NotoSansKhmer.ufo
<glyph name="uni1780" format="1">
  <advance width="1300"/>
  <unicode hex="1780"/>
  <outline>
    <contour>
      <point x="1100" y="1200" type="line"/>
      <point x="1100" y="1062" type="line"/>
      <point x="200" y="1062" type="line"/>
      <point x="200" y="1200" type="line"/>
    </contour>
    <contour>
      <point x="388" y="600" type="qcurve" smooth="yes"/>
      <point x="388" y="0" type="line"/>
      <point x="200" y="0" type="line"/>
      <point x="200" y="600" type="line" smooth="yes"/>
      <point x="200" y="923"/>
      <point x="650" y="923" type="qcurve" smooth="yes"/>
      <point x="1100" y="923"/>
      <point x="1100" y="600" type="qcurve" smooth="yes"/>
      <point x="1100" y="0" type="line"/>
      <point x="912" y="0" type="line"/>
      <point x="912" y="600" type="line" smooth="yes"/>
      <point x="912" y="785"/>
      <point x="650" y="785" type="qcurve" smooth="yes"/>
      <point x="388" y="785"/>
    </contour>
  </outline>
</glyph>
<glyph name="uni1781" format="1">
  <advance width="1300"/>
  <unicode hex="1781"/>
  <outline>
    <contour>
      <point x="388" y="473" type="line"/>
      <point x="388" y="323" type="line" smooth="yes"/>
      <point x="388" y="231"/>
      <point x="447" y="185" type="qcurve" smooth="yes"/>
      <point x="505" y="138"/>
      <point x="650" y="138" type="qcurve" smooth="yes"/>
      <point x="795" y="138"/>
      <point x="854" y="185" type="qcurve" smooth="yes"/>
      <point x="912" y="231"/>
      <point x="912" y="323" type="qcurve" smooth="yes"/>
      <point x="912" y="480" type="line"/>
      <point x="1100" y="480" type="line"/>
      <point x="1100" y="323" type="line" smooth="yes"/>
      <point x="1100" y="185"/>
      <point x="1000" y="93" type="qcurve" smooth="yes"/>
      <point x="900" y="0"/>
      <point x="650" y="0" type="qcurve" smooth="yes"/>
      <point x="400" y="0"/>
      <point x="300" y="93" type="qcurve" smooth="yes"/>
      <point x="200" y="185"/>
      <point x="200" y="323" type="qcurve" smooth="yes"/>
      <point x="200" y="586" type="line"/>
      <point x="556" y="636" type="line" smooth="yes"/>
      <point x="912" y="687"/>
      <point x="912" y="877" type="qcurve" smooth="yes"/>
      <point x="912" y="969"/>
      <point x="854" y="1016" type="qcurve" smooth="yes"/>
      <point x="795" y="1062"/>
      <point x="650" y="1062" type="qcurve" smooth="yes"/>
      <point x="505" y="1062"/>
      <point x="447" y="1016" type="qcurve" smooth="yes"/>
      <point x="388" y="969"/>
      <point x="388" y="897" type="qcurve" smooth="yes"/>
      <point x="388" y="863"/>
      <point x="488" y="863" type="qcurve"/>
      <point x="488" y="719" type="line"/>
      <point x="338" y="719" type="line" smooth="yes"/>
      <point x="200" y="719"/>
      <point x="200" y="863" type="qcurve" smooth="yes"/>
      <point x="200" y="897" type="line" smooth="yes"/>
      <point x="200" y="1015"/>
      <point x="300" y="1108" type="qcurve" smooth="yes"/>
      <point x="400" y="1200"/>
      <point x="650" y="1200" type="qcurve" smooth="yes"/>
      <point x="900" y="1200"/>
      <point x="1000" y="1108" type="qcurve" smooth="yes"/>
      <point x="1100" y="1015"/>
      <point x="1100" y="877" type="qcurve" smooth="yes"/>
      <point x="1100" y="575"/>
      <point x="566" y="499" type="qcurve" smooth="yes"/>
    </contour>
  </outline>
</glyph>
<glyph name="uni1782" format="1">
  <advance width="1300"/>
  <unicode hex="1782"/>
  <outline>
    <contour>
      <point x="1100" y="1200" type="line"/>
      <point x="1100" y="1062" type="line"/>
      <point x="200" y="1062" type="line"/>
      <point x="200" y="1200" type="line"/>
    </contour>
    <contour>
      <point x="388" y="320" type="line"/>
      <point x="457" y="400"/>
      <point x="573" y="400" type="qcurve" smooth="yes"/>
      <point x="700" y="400" type="line"/>
      <point x="700" y="262" type="line"/>
      <point x="596" y="262" type="line" smooth="yes"/>
      <point x="493" y="262"/>
      <point x="450" y="216" type="qcurve" smooth="yes"/>
      <point x="408" y="171"/>
      <point x="388" y="86" type="qcurve"/>
      <point x="388" y="0" type="line"/>
      <point x="200" y="0" type="line"/>
      <point x="200" y="600" type="line" smooth="yes"/>
      <point x="200" y="923"/>
      <point x="650" y="923" type="qcurve" smooth="yes"/>
      <point x="1100" y="923"/>
      <point x="1100" y="600" type="qcurve" smooth="yes"/>
      <point x="1100" y="0" type="line"/>
      <point x="912" y="0" type="line"/>
      <point x="912" y="600" type="line" smooth="yes"/>
      <point x="912" y="785"/>
      <point x="650" y="785" type="qcurve" smooth="yes"/>
      <point x="388" y="785"/>
      <point x="388" y="600" type="qcurve" smooth="yes"/>
    </contour>
  </outline>
</glyph>
<glyph name="uni1783" format="1">
  <advance width="1900"/>
  <unicode hex="1783"/>
  <outline>
    <contour>
      <point x="862" y="806" type="line"/>
      <point x="782" y="905" type="line"/>
      <point x="742" y="955" type="line" smooth="yes"/>
      <point x="721" y="980"/>
      <point x="721" y="1005" type="qcurve" smooth="yes"/>
      <point x="721" y="1029"/>
      <point x="740" y="1053" type="qcurve" smooth="yes"/>
      <point x="777" y="1102" type="line"/>
      <point x="852" y="1200" type="line"/>
      <point x="1100" y="1200" type="line"/>
      <point x="1100" y="1062" type="line"/>
      <point x="852" y="1062" type="line"/>
      <point x="1050" y="840" type="line"/>
      <point x="1050" y="323" type="line" smooth="yes"/>
      <point x="1050" y="138"/>
      <point x="1281" y="138" type="qcurve" smooth="yes"/>
      <point x="1512" y="138"/>
      <point x="1512" y="323" type="qcurve" smooth="yes"/>
      <point x="1512" y="806" type="line"/>
      <point x="1407" y="905" type="line"/>
      <point x="1355" y="955" type="line" smooth="yes"/>
      <point x="1324" y="984"/>
      <point x="1324" y="1012" type="qcurve" smooth="yes"/>
      <point x="1324" y="1033"/>
      <point x="1340" y="1053" type="qcurve" smooth="yes"/>
      <point x="1377" y="1102" type="line"/>
      <point x="1452" y="1200" type="line"/>
      <point x="1700" y="1200" type="line"/>
      <point x="1700" y="1062" type="line"/>
      <point x="1452" y="1062" type="line"/>
      <point x="1700" y="840" type="line"/>
      <point x="1700" y="323" type="line" smooth="yes"/>
      <point x="1700" y="0"/>
      <point x="1281" y="0" type="qcurve" smooth="yes"/>
      <point x="1062" y="0"/>
      <point x="956" y="98" type="qcurve"/>
      <point x="850" y="0"/>
      <point x="625" y="0" type="qcurve" smooth="yes"/>
      <point x="200" y="0"/>
      <point x="200" y="323" type="qcurve" smooth="yes"/>
      <point x="200" y="1015" type="line" smooth="yes"/>
      <point x="200" y="1062"/>
      <point x="59" y="1062" type="qcurve"/>
      <point x="59" y="1200" type="line"/>
      <point x="238" y="1200" type="line" smooth="yes"/>
      <point x="388" y="1200"/>
      <point x="388" y="1098" type="qcurve" smooth="yes"/>
      <point x="388" y="323" type="line" smooth="yes"/>
      <point x="388" y="138"/>
      <point x="625" y="138" type="qcurve" smooth="yes"/>
      <point x="862" y="138"/>
      <point x="862" y="323" type="qcurve" smooth="yes"/>
    </contour>
  </outline>
</glyph>
<glyph name="uni1784" format="1">
  <advance width="1300"/>
  <unicode hex="1784"/>
  <outline>
    <contour>
      <point x="200" y="1400" type="line"/>
      <point x="388" y="1400" type="line"/>
      <point x="388" y="1039" type="line" smooth="yes"/>
      <point x="388" y="989"/>
      <point x="460" y="923"/>
      <point x="530" y="923" type="qcurve" smooth="yes"/>
      <point x="604" y="923"/>
      <point x="705" y="953" type="qcurve"/>
      <point x="630" y="1004"/>
      <point x="630" y="1056" type="qcurve" smooth="yes"/>
      <point x="630" y="1200"/>
      <point x="820" y="1200" type="qcurve" smooth="yes"/>
      <point x="1000" y="1200"/>
      <point x="1000" y="1056" type="qcurve" smooth="yes"/>
      <point x="1000" y="994"/>
      <point x="932" y="937" type="qcurve"/>
      <point x="953" y="930"/>
      <point x="975" y="920" type="qcurve" smooth="yes"/>
      <point x="1100" y="867"/>
      <point x="1100" y="720" type="qcurve" smooth="yes"/>
      <point x="1100" y="0" type="line"/>
      <point x="882" y="0" type="line"/>
      <point x="651" y="210" type="line"/>
      <point x="419" y="0" type="line"/>
      <point x="200" y="0" type="line"/>
      <point x="200" y="535" type="line" smooth="yes"/>
      <point x="200" y="576"/>
      <point x="100" y="576" type="qcurve"/>
      <point x="100" y="720" type="line"/>
      <point x="250" y="720" type="line" smooth="yes"/>
      <point x="388" y="720"/>
      <point x="388" y="576" type="qcurve" smooth="yes"/>
      <point x="388" y="166" type="line"/>
      <point x="651" y="405" type="line"/>
      <point x="912" y="167" type="line"/>
      <point x="912" y="720" type="line" smooth="yes"/>
      <point x="912" y="769"/>
      <point x="864" y="815"/>
      <point x="828" y="834" type="qcurve"/>
      <point x="686" y="785"/>
      <point x="530" y="785" type="qcurve" smooth="yes"/>
      <point x="372" y="785"/>
      <point x="289" y="855" type="qcurve"/>
      <point x="200" y="916"/>
      <point x="200" y="1039" type="qcurve" smooth="yes"/>
    </contour>
  </outline>
</glyph>
<glyph name="uni1786" format="1">
  <advance width="1300"/>
  <unicode hex="1786"/>
  <outline>
    <contour>
      <point x="912" y="640" type="qcurve"/>
      <point x="912" y="762" type="line"/>
      <point x="820" y="762"/>
      <point x="820" y="701" type="qcurve" smooth="yes"/>
      <point x="820" y="640"/>
    </contour>
    <contour>
      <point x="200" y="400" type="qcurve"/>
      <point x="200" y="786" type="line"/>
      <point x="172" y="822" type="line" smooth="yes"/>
      <point x="100" y="914"/>
      <point x="100" y="955" type="qcurve" smooth="yes"/>
      <point x="100" y="992"/>
      <point x="118" y="1017" type="qcurve" smooth="yes"/>
      <point x="258" y="1200" type="line"/>
      <point x="1100" y="1200" type="line"/>
      <point x="1100" y="1062" type="line"/>
      <point x="263" y="1062" type="line"/>
      <point x="242" y="1037" type="line" smooth="yes"/>
      <point x="237" y="1032"/>
      <point x="237" y="1024" type="qcurve" smooth="yes"/>
      <point x="237" y="992"/>
      <point x="304" y="916" type="qcurve" smooth="yes"/>
      <point x="388" y="820" type="line"/>
      <point x="388" y="400" type="line"/>
      <point x="636" y="400" type="line"/>
      <point x="678" y="323" type="line" smooth="yes"/>
      <point x="728" y="231"/>
      <point x="795" y="138"/>
      <point x="820" y="138" type="qcurve" smooth="yes"/>
      <point x="845" y="138"/>
      <point x="912" y="231"/>
      <point x="912" y="323" type="qcurve" smooth="yes"/>
      <point x="912" y="502" type="line"/>
      <point x="702" y="502"/>
      <point x="702" y="701" type="qcurve" smooth="yes"/>
      <point x="702" y="900"/>
      <point x="912" y="900" type="qcurve" smooth="yes"/>
      <point x="1100" y="900"/>
      <point x="1100" y="778" type="qcurve" smooth="yes"/>
      <point x="1100" y="323" type="line" smooth="yes"/>
      <point x="1100" y="185"/>
      <point x="950" y="0"/>
      <point x="820" y="0" type="qcurve" smooth="yes"/>
      <point x="690" y="0"/>
      <point x="615" y="93" type="qcurve" smooth="yes"/>
      <point x="557" y="164"/>
      <point x="514" y="262" type="qcurve"/>
      <point x="388" y="262" type="line"/>
      <point x="388" y="0" type="line"/>
      <point x="200" y="0" type="line"/>
      <point x="100" y="162"/>
      <point x="100" y="281" type="qcurve" smooth="yes"/>
      <point x="100" y="400"/>
    </contour>
  </outline>
</glyph>
<glyph name="uni1787" format="1">
  <advance width="1300"/>
  <unicode hex="1787"/>
  <outline>
    <contour>
      <point x="388" y="166" type="line"/>
      <point x="651" y="405" type="line"/>
      <point x="912" y="167" type="line"/>
      <point x="912" y="923" type="line"/>
      <point x="1100" y="923" type="line"/>
      <point x="1100" y="0" type="line"/>
      <point x="882" y="0" type="line"/>
      <point x="651" y="210" type="line"/>
      <point x="419" y="0" type="line"/>
      <point x="200" y="0" type="line"/>
      <point x="200" y="786" type="line"/>
      <point x="172" y="822" type="line" smooth="yes"/>
      <point x="100" y="914"/>
      <point x="100" y="955" type="qcurve" smooth="yes"/>
      <point x="100" y="992"/>
      <point x="118" y="1017" type="qcurve" smooth="yes"/>
      <point x="258" y="1200" type="line"/>
      <point x="800" y="1200" type="line" smooth="yes"/>
      <point x="912" y="1200"/>
      <point x="912" y="1250" type="qcurve" smooth="yes"/>
      <point x="912" y="1400" type="line"/>
      <point x="1100" y="1400" type="line"/>
      <point x="1100" y="1250" type="line" smooth="yes"/>
      <point x="1100" y="1062"/>
      <point x="800" y="1062" type="qcurve" smooth="yes"/>
      <point x="263" y="1062" type="line"/>
      <point x="242" y="1037" type="line" smooth="yes"/>
      <point x="237" y="1032"/>
      <point x="237" y="1024" type="qcurve" smooth="yes"/>
      <point x="237" y="992"/>
      <point x="304" y="916" type="qcurve" smooth="yes"/>
      <point x="388" y="820" type="line"/>
    </contour>
  </outline>
</glyph>
<glyph name="uni1788" format="1">
  <advance width="2562"/>
  <unicode hex="1788"/>
  <outline>
    <contour>
      <point x="388" y="310" type="qcurve"/>
      <point x="388" y="138" type="line"/>
      <point x="480" y="138"/>
      <point x="480" y="249" type="qcurve" smooth="yes"/>
      <point x="480" y="310"/>
    </contour>
    <contour>
      <point x="200" y="877" type="line" smooth="yes"/>
      <point x="200" y="1200"/>
      <point x="625" y="1200" type="qcurve" smooth="yes"/>
      <point x="1050" y="1200"/>
      <point x="1050" y="877" type="qcurve" smooth="yes"/>
      <point x="1050" y="323" type="line" smooth="yes"/>
      <point x="1050" y="138"/>
      <point x="1287" y="138" type="qcurve" smooth="yes"/>
      <point x="1524" y="138"/>
      <point x="1524" y="323" type="qcurve" smooth="yes"/>
      <point x="1524" y="806" type="line"/>
      <point x="1444" y="905" type="line"/>
      <point x="1404" y="955" type="line" smooth="yes"/>
      <point x="1383" y="980"/>
      <point x="1383" y="1005" type="qcurve" smooth="yes"/>
      <point x="1383" y="1029"/>
      <point x="1402" y="1053" type="qcurve" smooth="yes"/>
      <point x="1439" y="1102" type="line"/>
      <point x="1514" y="1200" type="line"/>
      <point x="1762" y="1200" type="line"/>
      <point x="1762" y="1062" type="line"/>
      <point x="1514" y="1062" type="line"/>
      <point x="1712" y="840" type="line"/>
      <point x="1712" y="323" type="line" smooth="yes"/>
      <point x="1712" y="138"/>
      <point x="1943" y="138" type="qcurve" smooth="yes"/>
      <point x="2174" y="138"/>
      <point x="2174" y="323" type="qcurve" smooth="yes"/>
      <point x="2174" y="806" type="line"/>
      <point x="2069" y="905" type="line"/>
      <point x="2017" y="955" type="line" smooth="yes"/>
      <point x="1986" y="984"/>
      <point x="1986" y="1012" type="qcurve" smooth="yes"/>
      <point x="1986" y="1033"/>
      <point x="2002" y="1053" type="qcurve" smooth="yes"/>
      <point x="2039" y="1102" type="line"/>
      <point x="2114" y="1200" type="line"/>
      <point x="2362" y="1200" type="line"/>
      <point x="2362" y="1062" type="line"/>
      <point x="2114" y="1062" type="line"/>
      <point x="2362" y="840" type="line"/>
      <point x="2362" y="323" type="line" smooth="yes"/>
      <point x="2362" y="0"/>
      <point x="1943" y="0" type="qcurve" smooth="yes"/>
      <point x="1724" y="0"/>
      <point x="1618" y="98" type="qcurve"/>
      <point x="1512" y="0"/>
      <point x="1287" y="0" type="qcurve" smooth="yes"/>
      <point x="862" y="0"/>
      <point x="862" y="323" type="qcurve" smooth="yes"/>
      <point x="862" y="877" type="line" smooth="yes"/>
      <point x="862" y="1062"/>
      <point x="625" y="1062" type="qcurve" smooth="yes"/>
      <point x="388" y="1062"/>
      <point x="388" y="877" type="qcurve" smooth="yes"/>
      <point x="388" y="448" type="line"/>
      <point x="598" y="448"/>
      <point x="598" y="249" type="qcurve" smooth="yes"/>
      <point x="598" y="0"/>
      <point x="388" y="0" type="qcurve" smooth="yes"/>
      <point x="200" y="0"/>
      <point x="200" y="122" type="qcurve" smooth="yes"/>
    </contour>
  </outline>
</glyph>
<glyph name="uni1789" format="1">
  <advance width="1950"/>
  <unicode hex="1789"/>
  <outline>
    <contour>
      <point x="1400" y="-100" type="line"/>
      <point x="1750" y="-100" type="line"/>
      <point x="1750" y="-260" type="line" smooth="yes"/>
      <point x="1750" y="-500"/>
      <point x="1422" y="-500" type="qcurve" smooth="yes"/>
      <point x="1185" y="-500"/>
      <point x="1025" y="-400" type="qcurve" smooth="yes"/>
      <point x="864" y="-300"/>
      <point x="600" y="-300" type="qcurve" smooth="yes"/>
      <point x="200" y="-300" type="line"/>
      <point x="200" y="-180" type="line"/>
      <point x="600" y="-180" type="line" smooth="yes"/>
      <point x="947" y="-180"/>
      <point x="1114" y="-280" type="qcurve" smooth="yes"/>
      <point x="1281" y="-380"/>
      <point x="1422" y="-380" type="qcurve" smooth="yes"/>
      <point x="1562" y="-380"/>
      <point x="1562" y="-260" type="qcurve" smooth="yes"/>
      <point x="1562" y="-220" type="line"/>
      <point x="1400" y="-220" type="line"/>
    </contour>
    <contour>
      <point x="388" y="310" type="qcurve"/>
      <point x="388" y="138" type="line"/>
      <point x="480" y="138"/>
      <point x="480" y="249" type="qcurve" smooth="yes"/>
      <point x="480" y="310"/>
    </contour>
    <contour>
      <point x="200" y="923" type="line" smooth="yes"/>
      <point x="200" y="1036"/>
      <point x="275" y="1118" type="qcurve" smooth="yes"/>
      <point x="350" y="1200"/>
      <point x="445" y="1200" type="qcurve" smooth="yes"/>
      <point x="539" y="1200"/>
      <point x="650" y="1076" type="qcurve"/>
      <point x="762" y="1200"/>
      <point x="857" y="1200" type="qcurve" smooth="yes"/>
      <point x="950" y="1200"/>
      <point x="1025" y="1119" type="qcurve"/>
      <point x="1126" y="1200"/>
      <point x="1331" y="1200" type="qcurve" smooth="yes"/>
      <point x="1550" y="1200"/>
      <point x="1650" y="1108" type="qcurve" smooth="yes"/>
      <point x="1750" y="1015"/>
      <point x="1750" y="877" type="qcurve" smooth="yes"/>
      <point x="1750" y="0" type="line"/>
      <point x="1562" y="0" type="line"/>
      <point x="1562" y="877" type="line" smooth="yes"/>
      <point x="1562" y="969"/>
      <point x="1504" y="1015" type="qcurve" smooth="yes"/>
      <point x="1445" y="1062"/>
      <point x="1331" y="1062" type="qcurve" smooth="yes"/>
      <point x="1217" y="1062"/>
      <point x="1159" y="1015" type="qcurve" smooth="yes"/>
      <point x="1100" y="969"/>
      <point x="1100" y="877" type="qcurve" smooth="yes"/>
      <point x="1100" y="0" type="line"/>
      <point x="912" y="0" type="line"/>
      <point x="912" y="923" type="line" smooth="yes"/>
      <point x="912" y="1050"/>
      <point x="840" y="1050" type="qcurve" smooth="yes"/>
      <point x="791" y="1050"/>
      <point x="709" y="956" type="qcurve" smooth="yes"/>
      <point x="682" y="925"/>
      <point x="650" y="925" type="qcurve" smooth="yes"/>
      <point x="618" y="925"/>
      <point x="591" y="956" type="qcurve" smooth="yes"/>
      <point x="510" y="1050"/>
      <point x="461" y="1050" type="qcurve" smooth="yes"/>
      <point x="388" y="1050"/>
      <point x="388" y="923" type="qcurve" smooth="yes"/>
      <point x="388" y="448" type="line"/>
      <point x="598" y="448"/>
      <point x="598" y="249" type="qcurve" smooth="yes"/>
      <point x="598" y="0"/>
      <point x="388" y="0" type="qcurve" smooth="yes"/>
      <point x="200" y="0"/>
      <point x="200" y="122" type="qcurve" smooth="yes"/>
    </contour>
  </outline>
</glyph>
<glyph name="uni178A" format="1">
  <advance width="1300"/>
  <unicode hex="178A"/>
  <outline>
    <contour>
      <point x="388" y="166" type="line"/>
      <point x="651" y="405" type="line"/>
      <point x="912" y="167" type="line"/>
      <point x="912" y="823" type="line"/>
      <point x="1100" y="823" type="line"/>
      <point x="1100" y="0" type="line"/>
      <point x="882" y="0" type="line"/>
      <point x="651" y="210" type="line"/>
      <point x="419" y="0" type="line"/>
      <point x="200" y="0" type="line"/>
      <point x="200" y="823" type="line"/>
      <point x="388" y="823" type="line"/>
    </contour>
    <contour>
      <point x="200" y="1250" type="line"/>
      <point x="388" y="1250" type="line"/>
      <point x="388" y="1100" type="line"/>
      <point x="800" y="1100" type="line" smooth="yes"/>
      <point x="912" y="1100"/>
      <point x="912" y="1150" type="qcurve" smooth="yes"/>
      <point x="912" y="1400" type="line"/>
      <point x="1100" y="1400" type="line"/>
      <point x="1100" y="1150" type="line" smooth="yes"/>
      <point x="1100" y="962"/>
      <point x="800" y="962" type="qcurve" smooth="yes"/>
      <point x="200" y="962" type="line"/>
    </contour>
  </outline>
</glyph>
<glyph name="uni178B" format="1">
  <advance width="1300"/>
  <unicode hex="178B"/>
  <outline>
    <contour>
      <point x="200" y="1015" type="line" smooth="yes"/>
      <point x="200" y="1062"/>
      <point x="80" y="1062" type="qcurve"/>
      <point x="80" y="1200" type="line"/>
      <point x="238" y="1200" type="line" smooth="yes"/>
      <point x="388" y="1200"/>
      <point x="388" y="1098" type="qcurve" smooth="yes"/>
      <point x="388" y="323" type="line" smooth="yes"/>
      <point x="388" y="138"/>
      <point x="650" y="138" type="qcurve" smooth="yes"/>
      <point x="912" y="138"/>
      <point x="912" y="323" type="qcurve" smooth="yes"/>
      <point x="912" y="746" type="line"/>
      <point x="645" y="955" type="line" smooth="yes"/>
      <point x="614" y="984"/>
      <point x="614" y="1012" type="qcurve" smooth="yes"/>
      <point x="614" y="1033"/>
      <point x="630" y="1053" type="qcurve" smooth="yes"/>
      <point x="667" y="1102" type="line"/>
      <point x="742" y="1200" type="line"/>
      <point x="842" y="1200" type="line" smooth="yes"/>
      <point x="912" y="1200"/>
      <point x="912" y="1250" type="qcurve" smooth="yes"/>
      <point x="912" y="1400" type="line"/>
      <point x="1100" y="1400" type="line"/>
      <point x="1100" y="1250" type="line" smooth="yes"/>
      <point x="1100" y="1062"/>
      <point x="842" y="1062" type="qcurve" smooth="yes"/>
      <point x="742" y="1062" type="line"/>
      <point x="1100" y="840" type="line"/>
      <point x="1100" y="323" type="line" smooth="yes"/>
      <point x="1100" y="0"/>
      <point x="650" y="0" type="qcurve" smooth="yes"/>
      <point x="200" y="0"/>
      <point x="200" y="323" type="qcurve" smooth="yes"/>
    </contour>
  </outline>
</glyph>
<glyph name="uni178C" format="1">
  <advance width="1300"/>
  <unicode hex="178C"/>
  <outline>
    <contour>
      <point x="912" y="153" type="line"/>
      <point x="897" y="143"/>
      <point x="880" y="133" type="qcurve" smooth="yes"/>
      <point x="660" y="0"/>
      <point x="500" y="0" type="qcurve" smooth="yes"/>
      <point x="340" y="0"/>
      <point x="200" y="185"/>
      <point x="200" y="323" type="qcurve" smooth="yes"/>
      <point x="200" y="586" type="line"/>
      <point x="556" y="636" type="line" smooth="yes"/>
      <point x="912" y="687"/>
      <point x="912" y="877" type="qcurve" smooth="yes"/>
      <point x="912" y="923" type="line" smooth="yes"/>
      <point x="912" y="1050"/>
      <point x="840" y="1050" type="qcurve" smooth="yes"/>
      <point x="791" y="1050"/>
      <point x="709" y="956" type="qcurve" smooth="yes"/>
      <point x="682" y="925"/>
      <point x="650" y="925" type="qcurve" smooth="yes"/>
      <point x="618" y="925"/>
      <point x="591" y="956" type="qcurve" smooth="yes"/>
      <point x="510" y="1050"/>
      <point x="461" y="1050" type="qcurve" smooth="yes"/>
      <point x="388" y="1050"/>
      <point x="388" y="923" type="qcurve" smooth="yes"/>
      <point x="388" y="897" type="line" smooth="yes"/>
      <point x="388" y="863"/>
      <point x="488" y="863" type="qcurve"/>
      <point x="488" y="719" type="line"/>
      <point x="338" y="719" type="line" smooth="yes"/>
      <point x="200" y="719"/>
      <point x="200" y="863" type="qcurve" smooth="yes"/>
      <point x="200" y="923" type="line" smooth="yes"/>
      <point x="200" y="1036"/>
      <point x="275" y="1118" type="qcurve" smooth="yes"/>
      <point x="350" y="1200"/>
      <point x="445" y="1200" type="qcurve" smooth="yes"/>
      <point x="539" y="1200"/>
      <point x="650" y="1076" type="qcurve"/>
      <point x="762" y="1200"/>
      <point x="857" y="1200" type="qcurve" smooth="yes"/>
      <point x="951" y="1200"/>
      <point x="1026" y="1118" type="qcurve" smooth="yes"/>
      <point x="1100" y="1036"/>
      <point x="1100" y="923" type="qcurve" smooth="yes"/>
      <point x="1100" y="877" type="line" smooth="yes"/>
      <point x="1100" y="575"/>
      <point x="566" y="499" type="qcurve" smooth="yes"/>
      <point x="388" y="473" type="line"/>
      <point x="388" y="323" type="line" smooth="yes"/>
      <point x="388" y="231"/>
      <point x="445" y="138"/>
      <point x="515" y="138" type="qcurve" smooth="yes"/>
      <point x="585" y="138"/>
      <point x="912" y="341"/>
      <point x="912" y="403" type="qcurve" smooth="yes"/>
      <point x="912" y="480" type="line"/>
      <point x="1100" y="480" type="line"/>
      <point x="1100" y="-50" type="line"/>
      <point x="912" y="-50" type="line"/>
    </contour>
  </outline>
</glyph>
<glyph name="uni178D" format="1">
  <advance width="1900"/>
  <unicode hex="178D"/>
  <outline>
    <contour>
      <point x="388" y="310" type="qcurve"/>
      <point x="388" y="138" type="line"/>
      <point x="480" y="138"/>
      <point x="480" y="249" type="qcurve" smooth="yes"/>
      <point x="480" y="310"/>
    </contour>
    <contour>
      <point x="200" y="923" type="line" smooth="yes"/>
      <point x="200" y="1036"/>
      <point x="275" y="1118" type="qcurve" smooth="yes"/>
      <point x="350" y="1200"/>
      <point x="445" y="1200" type="qcurve" smooth="yes"/>
      <point x="539" y="1200"/>
      <point x="650" y="1076" type="qcurve"/>
      <point x="762" y="1200"/>
      <point x="857" y="1200" type="qcurve" smooth="yes"/>
      <point x="951" y="1200"/>
      <point x="1026" y="1118" type="qcurve" smooth="yes"/>
      <point x="1100" y="1036"/>
      <point x="1100" y="923" type="qcurve" smooth="yes"/>
      <point x="1100" y="400" type="line"/>
      <point x="1236" y="400" type="line"/>
      <point x="1278" y="323" type="line" smooth="yes"/>
      <point x="1328" y="231"/>
      <point x="1395" y="138"/>
      <point x="1420" y="138" type="qcurve" smooth="yes"/>
      <point x="1445" y="138"/>
      <point x="1512" y="231"/>
      <point x="1512" y="323" type="qcurve" smooth="yes"/>
      <point x="1512" y="806" type="line"/>
      <point x="1407" y="905" type="line"/>
      <point x="1355" y="955" type="line" smooth="yes"/>
      <point x="1324" y="984"/>
      <point x="1324" y="1012" type="qcurve" smooth="yes"/>
      <point x="1324" y="1033"/>
      <point x="1340" y="1053" type="qcurve" smooth="yes"/>
      <point x="1377" y="1102" type="line"/>
      <point x="1452" y="1200" type="line"/>
      <point x="1700" y="1200" type="line"/>
      <point x="1700" y="1062" type="line"/>
      <point x="1452" y="1062" type="line"/>
      <point x="1700" y="840" type="line"/>
      <point x="1700" y="323" type="line" smooth="yes"/>
      <point x="1700" y="185"/>
      <point x="1550" y="0"/>
      <point x="1420" y="0" type="qcurve" smooth="yes"/>
      <point x="1290" y="0"/>
      <point x="1215" y="93" type="qcurve" smooth="yes"/>
      <point x="1157" y="164"/>
      <point x="1114" y="262" type="qcurve"/>
      <point x="1100" y="262" type="line"/>
      <point x="1100" y="0" type="line"/>
      <point x="912" y="0" type="line"/>
      <point x="912" y="923" type="line" smooth="yes"/>
      <point x="912" y="1050"/>
      <point x="840" y="1050" type="qcurve" smooth="yes"/>
      <point x="791" y="1050"/>
      <point x="709" y="956" type="qcurve" smooth="yes"/>
      <point x="682" y="925"/>
      <point x="650" y="925" type="qcurve" smooth="yes"/>
      <point x="618" y="925"/>
      <point x="591" y="956" type="qcurve" smooth="yes"/>
      <point x="510" y="1050"/>
      <point x="461" y="1050" type="qcurve" smooth="yes"/>
      <point x="388" y="1050"/>
      <point x="388" y="923" type="qcurve" smooth="yes"/>
      <point x="388" y="448" type="line"/>
      <point x="598" y="448"/>
      <point x="598" y="249" type="qcurve" smooth="yes"/>
      <point x="598" y="0"/>
      <point x="388" y="0" type="qcurve" smooth="yes"/>
      <point x="200" y="0"/>
      <point x="200" y="122" type="qcurve" smooth="yes"/>
    </contour>
  </outline>
</glyph>
<glyph name="uni178E" format="1">
  <advance width="2538"/>
  <unicode hex="178E"/>
  <outline>
    <contour>
      <point x="388" y="310" type="qcurve"/>
      <point x="388" y="138" type="line"/>
      <point x="480" y="138"/>
      <point x="480" y="249" type="qcurve" smooth="yes"/>
      <point x="480" y="310"/>
    </contour>
    <contour>
      <point x="2338" y="0" type="line"/>
      <point x="2150" y="0" type="line"/>
      <point x="2150" y="877" type="line" smooth="yes"/>
      <point x="2150" y="1062"/>
      <point x="1919" y="1062" type="qcurve" smooth="yes"/>
      <point x="1688" y="1062"/>
      <point x="1688" y="877" type="qcurve" smooth="yes"/>
      <point x="1688" y="0" type="line"/>
      <point x="1470" y="0" type="line"/>
      <point x="1270" y="182" type="line"/>
      <point x="1069" y="0" type="line"/>
      <point x="850" y="0" type="line"/>
      <point x="850" y="877" type="line" smooth="yes"/>
      <point x="850" y="1062"/>
      <point x="619" y="1062" type="qcurve" smooth="yes"/>
      <point x="388" y="1062"/>
      <point x="388" y="877" type="qcurve" smooth="yes"/>
      <point x="388" y="448" type="line"/>
      <point x="598" y="448"/>
      <point x="598" y="249" type="qcurve" smooth="yes"/>
      <point x="598" y="0"/>
      <point x="388" y="0" type="qcurve" smooth="yes"/>
      <point x="200" y="0"/>
      <point x="200" y="122" type="qcurve" smooth="yes"/>
      <point x="200" y="877" type="line" smooth="yes"/>
      <point x="200" y="1200"/>
      <point x="619" y="1200" type="qcurve" smooth="yes"/>
      <point x="1038" y="1200"/>
      <point x="1038" y="877" type="qcurve" smooth="yes"/>
      <point x="1038" y="166" type="line"/>
      <point x="1270" y="377" type="line"/>
      <point x="1500" y="167" type="line"/>
      <point x="1500" y="877" type="line" smooth="yes"/>
      <point x="1500" y="1200"/>
      <point x="1919" y="1200" type="qcurve" smooth="yes"/>
      <point x="2338" y="1200"/>
      <point x="2338" y="877" type="qcurve" smooth="yes"/>
    </contour>
  </outline>
</glyph>
<glyph name="uni178F" format="1">
  <advance width="1300"/>
  <unicode hex="178F"/>
  <outline>
    <contour>
      <point x="1100" y="1200" type="line"/>
      <point x="1100" y="1062" type="line"/>
      <point x="200" y="1062" type="line"/>
      <point x="200" y="1200" type="line"/>
    </contour>
    <contour>
      <point x="388" y="310" type="qcurve"/>
      <point x="388" y="138" type="line"/>
      <point x="480" y="138"/>
      <point x="480" y="249" type="qcurve" smooth="yes"/>
      <point x="480" y="310"/>
    </contour>
    <contour>
      <point x="1100" y="0" type="line"/>
      <point x="912" y="0" type="line"/>
      <point x="912" y="600" type="line" smooth="yes"/>
      <point x="912" y="785"/>
      <point x="650" y="785" type="qcurve" smooth="yes"/>
      <point x="388" y="785"/>
      <point x="388" y="600" type="qcurve" smooth="yes"/>
      <point x="388" y="448" type="line"/>
      <point x="598" y="448"/>
      <point x="598" y="249" type="qcurve" smooth="yes"/>
      <point x="598" y="0"/>
      <point x="388" y="0" type="qcurve" smooth="yes"/>
      <point x="200" y="0"/>
      <point x="200" y="122" type="qcurve" smooth="yes"/>
      <point x="200" y="600" type="line" smooth="yes"/>
      <point x="200" y="923"/>
      <point x="650" y="923" type="qcurve" smooth="yes"/>
      <point x="1100" y="923"/>
      <point x="1100" y="600" type="qcurve" smooth="yes"/>
    </contour>
  </outline>
</glyph>
<glyph name="uni1791" format="1">
  <advance width="1300"/>
  <unicode hex="1791"/>
  <outline>
    <contour>
      <point x="1038" y="467" type="qcurve"/>
      <point x="1038" y="323" type="line" smooth="yes"/>
      <point x="1038" y="0"/>
      <point x="644" y="0" type="qcurve" smooth="yes"/>
      <point x="250" y="0"/>
      <point x="250" y="323" type="qcurve" smooth="yes"/>
      <point x="250" y="480" type="line"/>
      <point x="438" y="480" type="line"/>
      <point x="438" y="323" type="line" smooth="yes"/>
      <point x="438" y="138"/>
      <point x="644" y="138" type="qcurve" smooth="yes"/>
      <point x="850" y="138"/>
      <point x="850" y="323" type="qcurve" smooth="yes"/>
      <point x="850" y="482" type="line"/>
      <point x="734" y="499" type="line" smooth="yes"/>
      <point x="200" y="575"/>
      <point x="200" y="877" type="qcurve" smooth="yes"/>
      <point x="200" y="1015"/>
      <point x="300" y="1108" type="qcurve" smooth="yes"/>
      <point x="400" y="1200"/>
      <point x="650" y="1200" type="qcurve" smooth="yes"/>
      <point x="900" y="1200"/>
      <point x="1000" y="1108" type="qcurve" smooth="yes"/>
      <point x="1100" y="1015"/>
      <point x="1100" y="897" type="qcurve" smooth="yes"/>
      <point x="1100" y="847" type="line"/>
      <point x="912" y="847" type="line"/>
      <point x="912" y="897" type="line" smooth="yes"/>
      <point x="912" y="969"/>
      <point x="853" y="1016" type="qcurve" smooth="yes"/>
      <point x="795" y="1062"/>
      <point x="650" y="1062" type="qcurve" smooth="yes"/>
      <point x="505" y="1062"/>
      <point x="446" y="1016" type="qcurve" smooth="yes"/>
      <point x="388" y="969"/>
      <point x="388" y="877" type="qcurve" smooth="yes"/>
      <point x="388" y="687"/>
      <point x="744" y="636" type="qcurve" smooth="yes"/>
      <point x="858" y="620" type="line"/>
      <point x="867" y="644"/>
      <point x="887" y="664" type="qcurve" smooth="yes"/>
      <point x="923" y="700"/>
      <point x="975" y="700" type="qcurve" smooth="yes"/>
      <point x="1027" y="700"/>
      <point x="1100" y="627"/>
      <point x="1100" y="575" type="qcurve" smooth="yes"/>
      <point x="1100" y="523"/>
      <point x="1064" y="487" type="qcurve" smooth="yes"/>
      <point x="1052" y="475"/>
    </contour>
  </outline>
</glyph>
<glyph name="uni1793" format="1">
  <advance width="1300"/>
  <unicode hex="1793"/>
  <outline>
    <contour>
      <point x="734" y="499" type="qcurve" smooth="yes"/>
      <point x="200" y="575"/>
      <point x="200" y="877" type="qcurve" smooth="yes"/>
      <point x="200" y="1015"/>
      <point x="300" y="1108" type="qcurve" smooth="yes"/>
      <point x="400" y="1200"/>
      <point x="650" y="1200" type="qcurve" smooth="yes"/>
      <point x="900" y="1200"/>
      <point x="1000" y="1108" type="qcurve" smooth="yes"/>
      <point x="1100" y="1015"/>
      <point x="1100" y="897" type="qcurve" smooth="yes"/>
      <point x="1100" y="863" type="line" smooth="yes"/>
      <point x="1100" y="719"/>
      <point x="962" y="719" type="qcurve" smooth="yes"/>
      <point x="812" y="719" type="line"/>
      <point x="812" y="863" type="line"/>
      <point x="912" y="863"/>
      <point x="912" y="897" type="qcurve" smooth="yes"/>
      <point x="912" y="969"/>
      <point x="853" y="1016" type="qcurve" smooth="yes"/>
      <point x="795" y="1062"/>
      <point x="650" y="1062" type="qcurve" smooth="yes"/>
      <point x="505" y="1062"/>
      <point x="446" y="1016" type="qcurve" smooth="yes"/>
      <point x="388" y="969"/>
      <point x="388" y="877" type="qcurve" smooth="yes"/>
      <point x="388" y="687"/>
      <point x="744" y="636" type="qcurve" smooth="yes"/>
      <point x="1100" y="586"/>
      <point x="1100" y="363" type="qcurve" smooth="yes"/>
      <point x="1100" y="283" type="line" smooth="yes"/>
      <point x="1100" y="155"/>
      <point x="950" y="0"/>
      <point x="820" y="0" type="qcurve" smooth="yes"/>
      <point x="690" y="0"/>
      <point x="615" y="93" type="qcurve" smooth="yes"/>
      <point x="557" y="164"/>
      <point x="464" y="212"/>
      <point x="388" y="212" type="qcurve"/>
      <point x="388" y="0" type="line"/>
      <point x="200" y="0" type="line"/>
      <point x="200" y="504" type="line"/>
      <point x="388" y="503" type="line"/>
      <point x="388" y="350" type="line"/>
      <point x="566" y="350"/>
      <point x="728" y="231"/>
      <point x="795" y="138"/>
      <point x="820" y="138" type="qcurve" smooth="yes"/>
      <point x="845" y="138"/>
      <point x="912" y="201"/>
      <point x="912" y="273" type="qcurve" smooth="yes"/>
      <point x="912" y="363" type="line" smooth="yes"/>
      <point x="912" y="473"/>
    </contour>
  </outline>
</glyph>
<glyph name="uni1795" format="1">
  <advance width="1300"/>
  <unicode hex="1795"/>
  <outline>
    <contour>
      <point x="912" y="640" type="qcurve"/>
      <point x="912" y="762" type="line"/>
      <point x="820" y="762"/>
      <point x="820" y="701" type="qcurve" smooth="yes"/>
      <point x="820" y="640"/>
    </contour>
    <contour>
      <point x="1100" y="0" type="line"/>
      <point x="882" y="0" type="line"/>
      <point x="651" y="210" type="line"/>
      <point x="419" y="0" type="line"/>
      <point x="200" y="0" type="line"/>
      <point x="200" y="786" type="line"/>
      <point x="172" y="822" type="line" smooth="yes"/>
      <point x="100" y="914"/>
      <point x="100" y="955" type="qcurve" smooth="yes"/>
      <point x="100" y="992"/>
      <point x="118" y="1017" type="qcurve" smooth="yes"/>
      <point x="258" y="1200" type="line"/>
      <point x="800" y="1200" type="line" smooth="yes"/>
      <point x="912" y="1200"/>
      <point x="912" y="1250" type="qcurve" smooth="yes"/>
      <point x="912" y="1400" type="line"/>
      <point x="1100" y="1400" type="line"/>
      <point x="1100" y="1250" type="line" smooth="yes"/>
      <point x="1100" y="1062"/>
      <point x="800" y="1062" type="qcurve" smooth="yes"/>
      <point x="263" y="1062" type="line"/>
      <point x="242" y="1037" type="line" smooth="yes"/>
      <point x="237" y="1032"/>
      <point x="237" y="1024" type="qcurve" smooth="yes"/>
      <point x="237" y="992"/>
      <point x="304" y="916" type="qcurve" smooth="yes"/>
      <point x="388" y="820" type="line"/>
      <point x="388" y="166" type="line"/>
      <point x="651" y="405" type="line"/>
      <point x="912" y="167" type="line"/>
      <point x="912" y="502" type="line"/>
      <point x="702" y="502"/>
      <point x="702" y="701" type="qcurve" smooth="yes"/>
      <point x="702" y="900"/>
      <point x="912" y="900" type="qcurve" smooth="yes"/>
      <point x="1100" y="900"/>
      <point x="1100" y="778" type="qcurve" smooth="yes"/>
    </contour>
  </outline>
</glyph>
<glyph name="uni1796" format="1">
  <advance width="1300"/>
  <unicode hex="1796"/>
  <outline>
    <contour>
      <point x="388" y="310" type="qcurve"/>
      <point x="388" y="138" type="line"/>
      <point x="480" y="138"/>
      <point x="480" y="249" type="qcurve" smooth="yes"/>
      <point x="480" y="310"/>
    </contour>
    <contour>
      <point x="200" y="923" type="line" smooth="yes"/>
      <point x="200" y="1036"/>
      <point x="275" y="1118" type="qcurve" smooth="yes"/>
      <point x="350" y="1200"/>
      <point x="445" y="1200" type="qcurve" smooth="yes"/>
      <point x="539" y="1200"/>
      <point x="650" y="1076" type="qcurve"/>
      <point x="762" y="1200"/>
      <point x="857" y="1200" type="qcurve" smooth="yes"/>
      <point x="951" y="1200"/>
      <point x="1026" y="1118" type="qcurve" smooth="yes"/>
      <point x="1100" y="1036"/>
      <point x="1100" y="923" type="qcurve" smooth="yes"/>
      <point x="1100" y="0" type="line"/>
      <point x="912" y="0" type="line"/>
      <point x="912" y="923" type="line" smooth="yes"/>
      <point x="912" y="1050"/>
      <point x="840" y="1050" type="qcurve" smooth="yes"/>
      <point x="791" y="1050"/>
      <point x="709" y="956" type="qcurve" smooth="yes"/>
      <point x="682" y="925"/>
      <point x="650" y="925" type="qcurve" smooth="yes"/>
      <point x="618" y="925"/>
      <point x="591" y="956" type="qcurve" smooth="yes"/>
      <point x="510" y="1050"/>
      <point x="461" y="1050" type="qcurve" smooth="yes"/>
      <point x="388" y="1050"/>
      <point x="388" y="923" type="qcurve" smooth="yes"/>
      <point x="388" y="448" type="line"/>
      <point x="598" y="448"/>
      <point x="598" y="249" type="qcurve" smooth="yes"/>
      <point x="598" y="0"/>
      <point x="388" y="0" type="qcurve" smooth="yes"/>
      <point x="200" y="0"/>
      <point x="200" y="122" type="qcurve" smooth="yes"/>
    </contour>
  </outline>
</glyph>
<glyph name="uni1797" format="1">
  <advance width="1300"/>
  <unicode hex="1797"/>
  <outline>
    <contour>
      <point x="1100" y="1200" type="line"/>
      <point x="1100" y="1062" type="line"/>
      <point x="200" y="1062" type="line"/>
      <point x="200" y="1200" type="line"/>
    </contour>
    <contour>
      <point x="458" y="348"/>
      <point x="458" y="224" type="qcurve" smooth="yes"/>
      <point x="458" y="0"/>
      <point x="236" y="0" type="qcurve" smooth="yes"/>
      <point x="80" y="0"/>
      <point x="40" y="223" type="qcurve"/>
      <point x="147" y="264" type="line"/>
      <point x="181" y="174"/>
      <point x="236" y="174" type="qcurve" smooth="yes"/>
      <point x="270" y="174"/>
      <point x="270" y="224" type="qcurve" smooth="yes"/>
      <point x="270" y="267"/>
      <point x="200" y="507"/>
      <point x="200" y="600" type="qcurve" smooth="yes"/>
      <point x="200" y="923"/>
      <point x="650" y="923" type="qcurve" smooth="yes"/>
      <point x="1100" y="923"/>
      <point x="1100" y="600" type="qcurve" smooth="yes"/>
      <point x="1100" y="0" type="line"/>
      <point x="912" y="0" type="line"/>
      <point x="912" y="600" type="line" smooth="yes"/>
      <point x="912" y="785"/>
      <point x="650" y="785" type="qcurve" smooth="yes"/>
      <point x="388" y="785"/>
      <point x="388" y="600" type="qcurve" smooth="yes"/>
      <point x="388" y="540"/>
    </contour>
  </outline>
</glyph>
<glyph name="uni1798" format="1">
  <advance width="1300"/>
  <unicode hex="1798"/>
  <outline>
    <contour>
      <point x="1100" y="323" type="line" smooth="yes"/>
      <point x="1100" y="0"/>
      <point x="650" y="0" type="qcurve" smooth="yes"/>
      <point x="200" y="0"/>
      <point x="200" y="323" type="qcurve" smooth="yes"/>
      <point x="200" y="806" type="line"/>
      <point x="120" y="905" type="line"/>
      <point x="80" y="955" type="line" smooth="yes"/>
      <point x="59" y="980"/>
      <point x="59" y="1005" type="qcurve" smooth="yes"/>
      <point x="59" y="1029"/>
      <point x="78" y="1053" type="qcurve" smooth="yes"/>
      <point x="115" y="1102" type="line"/>
      <point x="190" y="1200" type="line"/>
      <point x="438" y="1200" type="line"/>
      <point x="438" y="1062" type="line"/>
      <point x="190" y="1062" type="line"/>
      <point x="388" y="840" type="line"/>
      <point x="388" y="669" type="line"/>
      <point x="912" y="669" type="line"/>
      <point x="912" y="806" type="line"/>
      <point x="807" y="905" type="line"/>
      <point x="755" y="955" type="line" smooth="yes"/>
      <point x="724" y="984"/>
      <point x="724" y="1012" type="qcurve" smooth="yes"/>
      <point x="724" y="1033"/>
      <point x="740" y="1053" type="qcurve" smooth="yes"/>
      <point x="777" y="1102" type="line"/>
      <point x="852" y="1200" type="line"/>
      <point x="1100" y="1200" type="line"/>
      <point x="1100" y="1062" type="line"/>
      <point x="852" y="1062" type="line"/>
      <point x="1100" y="840" type="line"/>
    </contour>
    <contour>
      <point x="912" y="531" type="line"/>
      <point x="388" y="531" type="line"/>
      <point x="388" y="323" type="line" smooth="yes"/>
      <point x="388" y="138"/>
      <point x="650" y="138" type="qcurve" smooth="yes"/>
      <point x="912" y="138"/>
      <point x="912" y="323" type="qcurve" smooth="yes"/>
    </contour>
  </outline>
</glyph>
<glyph name="uni1799" format="1">
  <advance width="1950"/>
  <unicode hex="1799"/>
  <outline>
    <contour>
      <point x="200" y="1098" type="line" smooth="yes"/>
      <point x="200" y="1200"/>
      <point x="350" y="1200" type="qcurve" smooth="yes"/>
      <point x="529" y="1200" type="line"/>
      <point x="529" y="1062" type="line"/>
      <point x="388" y="1062"/>
      <point x="388" y="1015" type="qcurve" smooth="yes"/>
      <point x="388" y="323" type="line" smooth="yes"/>
      <point x="388" y="231"/>
      <point x="505" y="138"/>
      <point x="650" y="138" type="qcurve" smooth="yes"/>
      <point x="795" y="138"/>
      <point x="912" y="231"/>
      <point x="912" y="323" type="qcurve" smooth="yes"/>
      <point x="912" y="806" type="line"/>
      <point x="832" y="905" type="line"/>
      <point x="792" y="955" type="line" smooth="yes"/>
      <point x="771" y="980"/>
      <point x="771" y="1005" type="qcurve" smooth="yes"/>
      <point x="771" y="1029"/>
      <point x="790" y="1053" type="qcurve" smooth="yes"/>
      <point x="827" y="1102" type="line"/>
      <point x="902" y="1200" type="line"/>
      <point x="1150" y="1200" type="line"/>
      <point x="1150" y="1062" type="line"/>
      <point x="902" y="1062" type="line"/>
      <point x="1100" y="840" type="line"/>
      <point x="1100" y="323" type="line" smooth="yes"/>
      <point x="1100" y="231"/>
      <point x="1159" y="185" type="qcurve" smooth="yes"/>
      <point x="1217" y="138"/>
      <point x="1331" y="138" type="qcurve" smooth="yes"/>
      <point x="1445" y="138"/>
      <point x="1504" y="185" type="qcurve" smooth="yes"/>
      <point x="1562" y="231"/>
      <point x="1562" y="323" type="qcurve" smooth="yes"/>
      <point x="1562" y="806" type="line"/>
      <point x="1457" y="905" type="line"/>
      <point x="1405" y="955" type="line" smooth="yes"/>
      <point x="1374" y="984"/>
      <point x="1374" y="1012" type="qcurve" smooth="yes"/>
      <point x="1374" y="1033"/>
      <point x="1390" y="1053" type="qcurve" smooth="yes"/>
      <point x="1427" y="1102" type="line"/>
      <point x="1502" y="1200" type="line"/>
      <point x="1750" y="1200" type="line"/>
      <point x="1750" y="1062" type="line"/>
      <point x="1502" y="1062" type="line"/>
      <point x="1750" y="840" type="line"/>
      <point x="1750" y="323" type="line" smooth="yes"/>
      <point x="1750" y="185"/>
      <point x="1550" y="0"/>
      <point x="1331" y="0" type="qcurve" smooth="yes"/>
      <point x="1112" y="0"/>
      <point x="1012" y="93" type="qcurve" smooth="yes"/>
      <point x="1009" y="95"/>
      <point x="1006" y="98" type="qcurve"/>
      <point x="1003" y="95"/>
      <point x="1000" y="93" type="qcurve" smooth="yes"/>
      <point x="900" y="0"/>
      <point x="650" y="0" type="qcurve" smooth="yes"/>
      <point x="400" y="0"/>
      <point x="200" y="185"/>
      <point x="200" y="323" type="qcurve" smooth="yes"/>
    </contour>
  </outline>
</glyph>
<glyph name="uni179B" format="1">
  <advance width="1900"/>
  <unicode hex="179B"/>
  <outline>
    <contour>
      <point x="388" y="310" type="qcurve"/>
      <point x="388" y="138" type="line"/>
      <point x="480" y="138"/>
      <point x="480" y="249" type="qcurve" smooth="yes"/>
      <point x="480" y="310"/>
    </contour>
    <contour>
      <point x="1512" y="806" type="line"/>
      <point x="1407" y="905" type="line"/>
      <point x="1355" y="955" type="line" smooth="yes"/>
      <point x="1324" y="984"/>
      <point x="1324" y="1012" type="qcurve" smooth="yes"/>
      <point x="1324" y="1033"/>
      <point x="1340" y="1053" type="qcurve" smooth="yes"/>
      <point x="1377" y="1102" type="line"/>
      <point x="1452" y="1200" type="line"/>
      <point x="1700" y="1200" type="line"/>
      <point x="1700" y="1062" type="line"/>
      <point x="1452" y="1062" type="line"/>
      <point x="1700" y="840" type="line"/>
      <point x="1700" y="323" type="line" smooth="yes"/>
      <point x="1700" y="0"/>
      <point x="1281" y="0" type="qcurve" smooth="yes"/>
      <point x="862" y="0"/>
      <point x="862" y="323" type="qcurve" smooth="yes"/>
      <point x="862" y="877" type="line" smooth="yes"/>
      <point x="862" y="1062"/>
      <point x="625" y="1062" type="qcurve" smooth="yes"/>
      <point x="388" y="1062"/>
      <point x="388" y="877" type="qcurve" smooth="yes"/>
      <point x="388" y="448" type="line"/>
      <point x="598" y="448"/>
      <point x="598" y="249" type="qcurve" smooth="yes"/>
      <point x="598" y="0"/>
      <point x="388" y="0" type="qcurve" smooth="yes"/>
      <point x="200" y="0"/>
      <point x="200" y="122" type="qcurve" smooth="yes"/>
      <point x="200" y="877" type="line" smooth="yes"/>
      <point x="200" y="1200"/>
      <point x="625" y="1200" type="qcurve" smooth="yes"/>
      <point x="1050" y="1200"/>
      <point x="1050" y="877" type="qcurve" smooth="yes"/>
      <point x="1050" y="323" type="line" smooth="yes"/>
      <point x="1050" y="138"/>
      <point x="1281" y="138" type="qcurve" smooth="yes"/>
      <point x="1512" y="138"/>
      <point x="1512" y="323" type="qcurve" smooth="yes"/>
    </contour>
  </outline>
</glyph>
<glyph name="uni179C" format="1">
  <advance width="588"/>
  <unicode hex="179C"/>
  <outline>
    <contour>
      <point x="200" y="310" type="line"/>
      <point x="158" y="310"/>
      <point x="158" y="249" type="qcurve" smooth="yes"/>
      <point x="158" y="138"/>
      <point x="200" y="138" type="qcurve"/>
    </contour>
    <contour>
      <point x="200" y="806" type="line"/>
      <point x="95" y="905" type="line"/>
      <point x="43" y="955" type="line" smooth="yes"/>
      <point x="12" y="984"/>
      <point x="12" y="1012" type="qcurve" smooth="yes"/>
      <point x="12" y="1033"/>
      <point x="28" y="1053" type="qcurve" smooth="yes"/>
      <point x="65" y="1102" type="line"/>
      <point x="140" y="1200" type="line"/>
      <point x="240" y="1200" type="line" smooth="yes"/>
      <point x="312" y="1200"/>
      <point x="312" y="1250" type="qcurve" smooth="yes"/>
      <point x="312" y="1400" type="line"/>
      <point x="500" y="1400" type="line"/>
      <point x="500" y="1250" type="line" smooth="yes"/>
      <point x="500" y="1062"/>
      <point x="240" y="1062" type="qcurve" smooth="yes"/>
      <point x="140" y="1062" type="line"/>
      <point x="388" y="840" type="line"/>
      <point x="388" y="122" type="line" smooth="yes"/>
      <point x="388" y="0"/>
      <point x="294" y="0" type="qcurve" smooth="yes"/>
      <point x="200" y="0" type="line" smooth="yes"/>
      <point x="40" y="0"/>
      <point x="40" y="249" type="qcurve" smooth="yes"/>
      <point x="40" y="448"/>
      <point x="200" y="448" type="qcurve"/>
    </contour>
  </outline>
</glyph>
<glyph name="uni179D" format="1">
  <advance width="1300"/>
  <unicode hex="179D"/>
  <outline>
    <contour>
      <point x="1100" y="1200" type="line"/>
      <point x="1100" y="1062" type="line"/>
      <point x="200" y="1062" type="line"/>
      <point x="200" y="1200" type="line"/>
    </contour>
    <contour>
      <point x="1100" y="400" type="line"/>
      <point x="1200" y="400" type="line"/>
      <point x="1200" y="262" type="line"/>
      <point x="1100" y="262" type="line"/>
      <point x="1100" y="0" type="line"/>
      <point x="912" y="0" type="line"/>
      <point x="912" y="262" type="line"/>
      <point x="740" y="262" type="line"/>
      <point x="740" y="400" type="line"/>
      <point x="912" y="400" type="line"/>
      <point x="912" y="600" type="line" smooth="yes"/>
      <point x="912" y="692"/>
      <point x="854" y="739" type="qcurve" smooth="yes"/>
      <point x="795" y="785"/>
      <point x="650" y="785" type="qcurve" smooth="yes"/>
      <point x="505" y="785"/>
      <point x="447" y="739" type="qcurve" smooth="yes"/>
      <point x="388" y="692"/>
      <point x="388" y="600" type="qcurve" smooth="yes"/>
      <point x="388" y="320" type="line"/>
      <point x="457" y="400"/>
      <point x="573" y="400" type="qcurve" smooth="yes"/>
      <point x="700" y="400" type="line"/>
      <point x="700" y="262" type="line"/>
      <point x="596" y="262" type="line" smooth="yes"/>
      <point x="493" y="262"/>
      <point x="450" y="216" type="qcurve" smooth="yes"/>
      <point x="408" y="171"/>
      <point x="388" y="86" type="qcurve"/>
      <point x="388" y="0" type="line"/>
      <point x="200" y="0" type="line"/>
      <point x="200" y="600" type="line" smooth="yes"/>
      <point x="200" y="738"/>
      <point x="300" y="831" type="qcurve" smooth="yes"/>
      <point x="400" y="923"/>
      <point x="650" y="923" type="qcurve" smooth="yes"/>
      <point x="900" y="923"/>
      <point x="1000" y="831" type="qcurve" smooth="yes"/>
      <point x="1100" y="738"/>
      <point x="1100" y="600" type="qcurve" smooth="yes"/>
    </contour>
  </outline>
</glyph>
<glyph name="uni179F" format="1">
  <advance width="1900"/>
  <unicode hex="179F"/>
  <outline>
    <contour>
      <point x="388" y="310" type="qcurve"/>
      <point x="388" y="138" type="line"/>
      <point x="480" y="138"/>
      <point x="480" y="249" type="qcurve" smooth="yes"/>
      <point x="480" y="310"/>
    </contour>
    <contour>
      <point x="1512" y="806" type="line"/>
      <point x="1407" y="905" type="line"/>
      <point x="1355" y="955" type="line" smooth="yes"/>
      <point x="1324" y="984"/>
      <point x="1324" y="1012" type="qcurve" smooth="yes"/>
      <point x="1324" y="1033"/>
      <point x="1340" y="1053" type="qcurve" smooth="yes"/>
      <point x="1377" y="1102" type="line"/>
      <point x="1452" y="1200" type="line"/>
      <point x="1700" y="1200" type="line"/>
      <point x="1700" y="1062" type="line"/>
      <point x="1452" y="1062" type="line"/>
      <point x="1700" y="840" type="line"/>
      <point x="1700" y="323" type="line" smooth="yes"/>
      <point x="1700" y="0"/>
      <point x="1281" y="0" type="qcurve" smooth="yes"/>
      <point x="862" y="0"/>
      <point x="862" y="323" type="qcurve" smooth="yes"/>
      <point x="862" y="600" type="line" smooth="yes"/>
      <point x="862" y="785"/>
      <point x="625" y="785" type="qcurve" smooth="yes"/>
      <point x="388" y="785"/>
      <point x="388" y="600" type="qcurve" smooth="yes"/>
      <point x="388" y="448" type="line"/>
      <point x="598" y="448"/>
      <point x="598" y="249" type="qcurve" smooth="yes"/>
      <point x="598" y="0"/>
      <point x="388" y="0" type="qcurve" smooth="yes"/>
      <point x="200" y="0"/>
      <point x="200" y="122" type="qcurve" smooth="yes"/>
      <point x="200" y="600" type="line" smooth="yes"/>
      <point x="200" y="738"/>
      <point x="300" y="831" type="qcurve" smooth="yes"/>
      <point x="319" y="849"/>
      <point x="344" y="863" type="qcurve"/>
      <point x="310" y="905" type="line"/>
      <point x="270" y="955" type="line" smooth="yes"/>
      <point x="249" y="980"/>
      <point x="249" y="1005" type="qcurve" smooth="yes"/>
      <point x="249" y="1029"/>
      <point x="268" y="1053" type="qcurve" smooth="yes"/>
      <point x="305" y="1102" type="line"/>
      <point x="380" y="1200" type="line"/>
      <point x="950" y="1200" type="line"/>
      <point x="950" y="1062" type="line"/>
      <point x="380" y="1062" type="line"/>
      <point x="510" y="916" type="line"/>
      <point x="563" y="923"/>
      <point x="625" y="923" type="qcurve" smooth="yes"/>
      <point x="1050" y="923"/>
      <point x="1050" y="600" type="qcurve" smooth="yes"/>
      <point x="1050" y="323" type="line" smooth="yes"/>
      <point x="1050" y="138"/>
      <point x="1281" y="138" type="qcurve" smooth="yes"/>
      <point x="1512" y="138"/>
      <point x="1512" y="323" type="qcurve" smooth="yes"/>
    </contour>
  </outline>
</glyph>
<glyph name="uni17A0" format="1">
  <advance width="1900"/>
  <unicode hex="17A0"/>
  <outline>
    <contour>
      <point x="1512" y="877" type="line" smooth="yes"/>
      <point x="1512" y="969"/>
      <point x="1395" y="1062"/>
      <point x="1281" y="1062" type="qcurve" smooth="yes"/>
      <point x="1167" y="1062"/>
      <point x="1050" y="969"/>
      <point x="1050" y="877" type="qcurve" smooth="yes"/>
      <point x="1050" y="323" type="line" smooth="yes"/>
      <point x="1050" y="185"/>
      <point x="950" y="92" type="qcurve" smooth="yes"/>
      <point x="850" y="0"/>
      <point x="625" y="0" type="qcurve" smooth="yes"/>
      <point x="400" y="0"/>
      <point x="300" y="92" type="qcurve" smooth="yes"/>
      <point x="200" y="185"/>
      <point x="200" y="323" type="qcurve" smooth="yes"/>
      <point x="200" y="806" type="line"/>
      <point x="120" y="905" type="line"/>
      <point x="80" y="955" type="line" smooth="yes"/>
      <point x="59" y="980"/>
      <point x="59" y="1005" type="qcurve" smooth="yes"/>
      <point x="59" y="1029"/>
      <point x="78" y="1053" type="qcurve" smooth="yes"/>
      <point x="115" y="1102" type="line"/>
      <point x="190" y="1200" type="line"/>
      <point x="438" y="1200" type="line"/>
      <point x="438" y="1062" type="line"/>
      <point x="190" y="1062" type="line"/>
      <point x="388" y="840" type="line"/>
      <point x="388" y="323" type="line" smooth="yes"/>
      <point x="388" y="231"/>
      <point x="447" y="184" type="qcurve" smooth="yes"/>
      <point x="505" y="138"/>
      <point x="625" y="138" type="qcurve" smooth="yes"/>
      <point x="745" y="138"/>
      <point x="804" y="184" type="qcurve" smooth="yes"/>
      <point x="862" y="231"/>
      <point x="862" y="323" type="qcurve" smooth="yes"/>
      <point x="862" y="877" type="line" smooth="yes"/>
      <point x="862" y="1015"/>
      <point x="1062" y="1200"/>
      <point x="1275" y="1200" type="qcurve" smooth="yes"/>
      <point x="1488" y="1200"/>
      <point x="1700" y="1038"/>
      <point x="1700" y="877" type="qcurve" smooth="yes"/>
      <point x="1700" y="0" type="line"/>
      <point x="1512" y="0" type="line"/>
    </contour>
  </outline>
</glyph>
<glyph name="uni17A1" format="1">
  <advance width="1900"/>
  <unicode hex="17A1"/>
  <outline>
    <contour>
      <point x="1038" y="467" type="qcurve"/>
      <point x="1038" y="323" type="line" smooth="yes"/>
      <point x="1038" y="0"/>
      <point x="644" y="0" type="qcurve" smooth="yes"/>
      <point x="250" y="0"/>
      <point x="250" y="323" type="qcurve" smooth="yes"/>
      <point x="250" y="480" type="line"/>
      <point x="438" y="480" type="line"/>
      <point x="438" y="323" type="line" smooth="yes"/>
      <point x="438" y="138"/>
      <point x="644" y="138" type="qcurve" smooth="yes"/>
      <point x="850" y="138"/>
      <point x="850" y="323" type="qcurve" smooth="yes"/>
      <point x="850" y="482" type="line"/>
      <point x="734" y="499" type="line" smooth="yes"/>
      <point x="200" y="575"/>
      <point x="200" y="877" type="qcurve" smooth="yes"/>
      <point x="200" y="1015"/>
      <point x="300" y="1108" type="qcurve" smooth="yes"/>
      <point x="400" y="1200"/>
      <point x="650" y="1200" type="qcurve" smooth="yes"/>
      <point x="900" y="1200"/>
      <point x="1000" y="1108" type="qcurve" smooth="yes"/>
      <point x="1100" y="1015"/>
      <point x="1100" y="897" type="qcurve" smooth="yes"/>
      <point x="1100" y="847" type="line"/>
      <point x="912" y="847" type="line"/>
      <point x="912" y="897" type="line" smooth="yes"/>
      <point x="912" y="969"/>
      <point x="853" y="1016" type="qcurve" smooth="yes"/>
      <point x="795" y="1062"/>
      <point x="650" y="1062" type="qcurve" smooth="yes"/>
      <point x="505" y="1062"/>
      <point x="446" y="1016" type="qcurve" smooth="yes"/>
      <point x="388" y="969"/>
      <point x="388" y="877" type="qcurve" smooth="yes"/>
      <point x="388" y="687"/>
      <point x="744" y="636" type="qcurve" smooth="yes"/>
      <point x="858" y="620" type="line"/>
      <point x="867" y="644"/>
      <point x="887" y="664" type="qcurve" smooth="yes"/>
      <point x="923" y="700"/>
      <point x="975" y="700" type="qcurve" smooth="yes"/>
      <point x="1027" y="700"/>
      <point x="1100" y="627"/>
      <point x="1100" y="575" type="qcurve" smooth="yes"/>
      <point x="1100" y="523"/>
      <point x="1064" y="487" type="qcurve" smooth="yes"/>
      <point x="1052" y="475"/>
    </contour>
    <contour>
      <point x="1512" y="806" type="line"/>
      <point x="1407" y="905" type="line"/>
      <point x="1355" y="955" type="line" smooth="yes"/>
      <point x="1324" y="984"/>
      <point x="1324" y="1012" type="qcurve" smooth="yes"/>
      <point x="1324" y="1033"/>
      <point x="1340" y="1053" type="qcurve" smooth="yes"/>
      <point x="1377" y="1102" type="line"/>
      <point x="1452" y="1200" type="line"/>
      <point x="1700" y="1200" type="line"/>
      <point x="1700" y="1062" type="line"/>
      <point x="1452" y="1062" type="line"/>
      <point x="1700" y="840" type="line"/>
      <point x="1700" y="-490" type="line"/>
      <point x="1482" y="-490" type="line"/>
      <point x="1276" y="-303" type="line"/>
      <point x="1069" y="-490" type="line"/>
      <point x="850" y="-490" type="line"/>
      <point x="850" y="-235" type="line" smooth="yes"/>
      <point x="850" y="-194"/>
      <point x="750" y="-194" type="qcurve"/>
      <point x="750" y="-50" type="line"/>
      <point x="900" y="-50" type="line" smooth="yes"/>
      <point x="1038" y="-50"/>
      <point x="1038" y="-194" type="qcurve" smooth="yes"/>
      <point x="1038" y="-324" type="line"/>
      <point x="1276" y="-108" type="line"/>
      <point x="1512" y="-323" type="line"/>
    </contour>
  </outline>
</glyph>
<glyph name="uni17A5" format="1">
  <advance width="1300"/>
  <unicode hex="17A5"/>
  <outline>
    <contour>
      <point x="172" y="822" type="line" smooth="yes"/>
      <point x="100" y="914"/>
      <point x="100" y="955" type="qcurve" smooth="yes"/>
      <point x="100" y="992"/>
      <point x="118" y="1017" type="qcurve" smooth="yes"/>
      <point x="258" y="1200" type="line"/>
      <point x="800" y="1200" type="line" smooth="yes"/>
      <point x="912" y="1200"/>
      <point x="912" y="1250" type="qcurve" smooth="yes"/>
      <point x="912" y="1400" type="line"/>
      <point x="1100" y="1400" type="line"/>
      <point x="1100" y="1250" type="line" smooth="yes"/>
      <point x="1100" y="1062"/>
      <point x="800" y="1062" type="qcurve" smooth="yes"/>
      <point x="263" y="1062" type="line"/>
      <point x="242" y="1037" type="line" smooth="yes"/>
      <point x="237" y="1032"/>
      <point x="237" y="1024" type="qcurve" smooth="yes"/>
      <point x="237" y="992"/>
      <point x="304" y="916" type="qcurve" smooth="yes"/>
      <point x="314" y="904" type="line"/>
      <point x="178" y="814" type="line"/>
    </contour>
    <contour>
      <point x="388" y="310" type="qcurve"/>
      <point x="388" y="138" type="line"/>
      <point x="480" y="138"/>
      <point x="480" y="249" type="qcurve" smooth="yes"/>
      <point x="480" y="310"/>
    </contour>
    <contour>
      <point x="200" y="600" type="line" smooth="yes"/>
      <point x="200" y="738"/>
      <point x="300" y="831" type="qcurve" smooth="yes"/>
      <point x="400" y="923"/>
      <point x="650" y="923" type="qcurve" smooth="yes"/>
      <point x="900" y="923"/>
      <point x="1000" y="831" type="qcurve" smooth="yes"/>
      <point x="1100" y="738"/>
      <point x="1100" y="600" type="qcurve" smooth="yes"/>
      <point x="1100" y="0" type="line"/>
      <point x="912" y="0" type="line"/>
      <point x="912" y="600" type="line" smooth="yes"/>
      <point x="912" y="692"/>
      <point x="854" y="739" type="qcurve" smooth="yes"/>
      <point x="795" y="785"/>
      <point x="650" y="785" type="qcurve" smooth="yes"/>
      <point x="505" y="785"/>
      <point x="447" y="739" type="qcurve" smooth="yes"/>
      <point x="388" y="692"/>
      <point x="388" y="600" type="qcurve" smooth="yes"/>
      <point x="388" y="448" type="line"/>
      <point x="598" y="448"/>
      <point x="598" y="249" type="qcurve" smooth="yes"/>
      <point x="598" y="0"/>
      <point x="388" y="0" type="qcurve" smooth="yes"/>
      <point x="200" y="0"/>
      <point x="200" y="122" type="qcurve" smooth="yes"/>
    </contour>
  </outline>
</glyph>
<glyph name="uni17A6" format="1">
  <advance width="1900"/>
  <unicode hex="17A6"/>
  <outline>
    <contour>
      <point x="883" y="-283" type="qcurve" smooth="yes"/>
      <point x="883" y="-217"/>
      <point x="831" y="-183" type="qcurve" smooth="yes"/>
      <point x="779" y="-150"/>
      <point x="650" y="-150" type="qcurve" smooth="yes"/>
      <point x="521" y="-150"/>
      <point x="470" y="-183" type="qcurve" smooth="yes"/>
      <point x="417" y="-217"/>
      <point x="417" y="-283" type="qcurve" smooth="yes"/>
      <point x="417" y="-366" type="line" smooth="yes"/>
      <point x="417" y="-400"/>
      <point x="524" y="-400" type="qcurve"/>
      <point x="524" y="-500" type="line"/>
      <point x="383" y="-500" type="line" smooth="yes"/>
      <point x="250" y="-500"/>
      <point x="250" y="-426" type="qcurve" smooth="yes"/>
      <point x="250" y="-283" type="line" smooth="yes"/>
      <point x="250" y="-184"/>
      <point x="339" y="-116" type="qcurve" smooth="yes"/>
      <point x="428" y="-50"/>
      <point x="650" y="-50" type="qcurve" smooth="yes"/>
      <point x="872" y="-50"/>
      <point x="961" y="-116" type="qcurve" smooth="yes"/>
      <point x="1050" y="-184"/>
      <point x="1050" y="-283" type="qcurve" smooth="yes"/>
      <point x="1050" y="-360"/>
      <point x="1312" y="-360" type="qcurve" smooth="yes"/>
      <point x="1512" y="-360"/>
      <point x="1512" y="-260" type="qcurve" smooth="yes"/>
      <point x="1512" y="1250" type="line" smooth="yes"/>
      <point x="1512" y="1480"/>
      <point x="1312" y="1480" type="qcurve" smooth="yes"/>
      <point x="1112" y="1480"/>
      <point x="1052" y="1400" type="qcurve"/>
      <point x="924" y="1400" type="line"/>
      <point x="924" y="1900" type="line"/>
      <point x="1112" y="1900" type="line"/>
      <point x="1112" y="1552" type="line"/>
      <point x="1207" y="1610"/>
      <point x="1312" y="1610" type="qcurve" smooth="yes"/>
      <point x="1700" y="1610"/>
      <point x="1700" y="1250" type="qcurve" smooth="yes"/>
      <point x="1700" y="-260" type="line" smooth="yes"/>
      <point x="1700" y="-500"/>
      <point x="1312" y="-500" type="qcurve" smooth="yes"/>
      <point x="883" y="-500"/>
    </contour>
    <contour>
      <point x="388" y="310" type="qcurve"/>
      <point x="388" y="138" type="line"/>
      <point x="480" y="138"/>
      <point x="480" y="249" type="qcurve" smooth="yes"/>
      <point x="480" y="310"/>
    </contour>
    <contour>
      <point x="200" y="877" type="line" smooth="yes"/>
      <point x="200" y="1015"/>
      <point x="300" y="1108" type="qcurve" smooth="yes"/>
      <point x="400" y="1200"/>
      <point x="625" y="1200" type="qcurve" smooth="yes"/>
      <point x="850" y="1200"/>
      <point x="950" y="1108" type="qcurve" smooth="yes"/>
      <point x="1050" y="1015"/>
      <point x="1050" y="877" type="qcurve" smooth="yes"/>
      <point x="1050" y="0" type="line"/>
      <point x="862" y="0" type="line"/>
      <point x="862" y="877" type="line" smooth="yes"/>
      <point x="862" y="969"/>
      <point x="804" y="1016" type="qcurve" smooth="yes"/>
      <point x="745" y="1062"/>
      <point x="625" y="1062" type="qcurve" smooth="yes"/>
      <point x="505" y="1062"/>
      <point x="447" y="1016" type="qcurve" smooth="yes"/>
      <point x="388" y="969"/>
      <point x="388" y="877" type="qcurve" smooth="yes"/>
      <point x="388" y="448" type="line"/>
      <point x="598" y="448"/>
      <point x="598" y="249" type="qcurve" smooth="yes"/>
      <point x="598" y="0"/>
      <point x="388" y="0" type="qcurve" smooth="yes"/>
      <point x="200" y="0"/>
      <point x="200" y="122" type="qcurve" smooth="yes"/>
    </contour>
  </outline>
</glyph>
<glyph name="uni17AA" format="1">
  <advance width="1300"/>
  <unicode hex="17AA"/>
  <outline>
    <contour>
      <point x="200" y="586" type="line"/>
      <point x="556" y="636" type="line" smooth="yes"/>
      <point x="912" y="687"/>
      <point x="912" y="877" type="qcurve" smooth="yes"/>
      <point x="912" y="969"/>
      <point x="854" y="1016" type="qcurve" smooth="yes"/>
      <point x="795" y="1062"/>
      <point x="650" y="1062" type="qcurve" smooth="yes"/>
      <point x="505" y="1062"/>
      <point x="447" y="1016" type="qcurve" smooth="yes"/>
      <point x="388" y="969"/>
      <point x="388" y="897" type="qcurve" smooth="yes"/>
      <point x="388" y="863"/>
      <point x="488" y="863" type="qcurve"/>
      <point x="488" y="719" type="line"/>
      <point x="338" y="719" type="line" smooth="yes"/>
      <point x="200" y="719"/>
      <point x="200" y="863" type="qcurve" smooth="yes"/>
      <point x="200" y="897" type="line" smooth="yes"/>
      <point x="200" y="1015"/>
      <point x="300" y="1108" type="qcurve" smooth="yes"/>
      <point x="400" y="1200"/>
      <point x="650" y="1200" type="qcurve" smooth="yes"/>
      <point x="900" y="1200"/>
      <point x="1000" y="1108" type="qcurve" smooth="yes"/>
      <point x="1100" y="1015"/>
      <point x="1100" y="877" type="qcurve" smooth="yes"/>
      <point x="1100" y="575"/>
      <point x="566" y="499" type="qcurve" smooth="yes"/>
      <point x="388" y="473" type="line"/>
      <point x="388" y="323" type="line" smooth="yes"/>
      <point x="388" y="231"/>
      <point x="445" y="138"/>
      <point x="515" y="138" type="qcurve" smooth="yes"/>
      <point x="585" y="138"/>
      <point x="912" y="341"/>
      <point x="912" y="403" type="qcurve" smooth="yes"/>
      <point x="912" y="480" type="line"/>
      <point x="1100" y="480" type="line"/>
      <point x="1100" y="-50" type="line"/>
      <point x="912" y="-50" type="line"/>
      <point x="912" y="153" type="line"/>
      <point x="897" y="143"/>
      <point x="880" y="133" type="qcurve" smooth="yes"/>
      <point x="660" y="0"/>
      <point x="500" y="0" type="qcurve" smooth="yes"/>
      <point x="340" y="0"/>
      <point x="200" y="185"/>
      <point x="200" y="323" type="qcurve" smooth="yes"/>
    </contour>
    <contour>
      <point x="172" y="1122" type="line" smooth="yes"/>
      <point x="100" y="1214"/>
      <point x="100" y="1255" type="qcurve" smooth="yes"/>
      <point x="100" y="1292"/>
      <point x="118" y="1317" type="qcurve" smooth="yes"/>
      <point x="258" y="1500" type="line"/>
      <point x="800" y="1500" type="line" smooth="yes"/>
      <point x="912" y="1500"/>
      <point x="912" y="1550" type="qcurve" smooth="yes"/>
      <point x="912" y="1700" type="line"/>
      <point x="1100" y="1700" type="line"/>
      <point x="1100" y="1550" type="line" smooth="yes"/>
      <point x="1100" y="1362"/>
      <point x="800" y="1362" type="qcurve" smooth="yes"/>
      <point x="263" y="1362" type="line"/>
      <point x="242" y="1337" type="line" smooth="yes"/>
      <point x="237" y="1332"/>
      <point x="237" y="1324" type="qcurve" smooth="yes"/>
      <point x="237" y="1292"/>
      <point x="304" y="1216" type="qcurve" smooth="yes"/>
      <point x="314" y="1204" type="line"/>
      <point x="178" y="1114" type="line"/>
    </contour>
  </outline>
</glyph>
<glyph name="uni17AB" format="1">
  <advance width="1300"/>
  <unicode hex="17AB"/>
  <outline>
    <contour>
      <point x="200" y="-380" type="line"/>
      <point x="500" y="-380" type="line" smooth="yes"/>
      <point x="912" y="-380"/>
      <point x="912" y="-180" type="qcurve"/>
      <point x="800" y="-180" type="line"/>
      <point x="800" y="-50" type="line"/>
      <point x="1100" y="-50" type="line"/>
      <point x="1100" y="-180" type="line" smooth="yes"/>
      <point x="1100" y="-500"/>
      <point x="500" y="-500" type="qcurve" smooth="yes"/>
      <point x="200" y="-500" type="line"/>
    </contour>
    <contour>
      <point x="912" y="806" type="line"/>
      <point x="807" y="905" type="line"/>
      <point x="755" y="955" type="line" smooth="yes"/>
      <point x="724" y="984"/>
      <point x="724" y="1012" type="qcurve" smooth="yes"/>
      <point x="724" y="1033"/>
      <point x="740" y="1053" type="qcurve" smooth="yes"/>
      <point x="777" y="1102" type="line"/>
      <point x="852" y="1200" type="line"/>
      <point x="1100" y="1200" type="line"/>
      <point x="1100" y="1062" type="line"/>
      <point x="852" y="1062" type="line"/>
      <point x="1100" y="840" type="line"/>
      <point x="1100" y="323" type="line" smooth="yes"/>
      <point x="1100" y="185"/>
      <point x="900" y="0"/>
      <point x="650" y="0" type="qcurve" smooth="yes"/>
      <point x="400" y="0"/>
      <point x="200" y="185"/>
      <point x="200" y="323" type="qcurve" smooth="yes"/>
      <point x="200" y="806" type="line"/>
      <point x="120" y="905" type="line"/>
      <point x="80" y="955" type="line" smooth="yes"/>
      <point x="59" y="980"/>
      <point x="59" y="1005" type="qcurve" smooth="yes"/>
      <point x="59" y="1029"/>
      <point x="78" y="1053" type="qcurve" smooth="yes"/>
      <point x="115" y="1102" type="line"/>
      <point x="190" y="1200" type="line"/>
      <point x="438" y="1200" type="line"/>
      <point x="438" y="1062" type="line"/>
      <point x="190" y="1062" type="line"/>
      <point x="388" y="840" type="line"/>
      <point x="388" y="323" type="line" smooth="yes"/>
      <point x="388" y="231"/>
      <point x="505" y="138"/>
      <point x="650" y="138" type="qcurve" smooth="yes"/>
      <point x="795" y="138"/>
      <point x="912" y="231"/>
      <point x="912" y="323" type="qcurve" smooth="yes"/>
    </contour>
  </outline>
</glyph>
<glyph name="uni17AE" format="1">
  <advance width="1300"/>
  <unicode hex="17AE"/>
  <outline>
    <contour>
      <point x="1080" y="-286" type="qcurve"/>
      <point x="1127" y="-380"/>
      <point x="1170" y="-380" type="qcurve" smooth="yes"/>
      <point x="1250" y="-380" type="line"/>
      <point x="1250" y="-500" type="line"/>
      <point x="1170" y="-500" type="line" smooth="yes"/>
      <point x="1074" y="-500"/>
      <point x="975" y="-406" type="qcurve"/>
      <point x="826" y="-500"/>
      <point x="500" y="-500" type="qcurve" smooth="yes"/>
      <point x="200" y="-500" type="line"/>
      <point x="200" y="-380" type="line"/>
      <point x="500" y="-380" type="line" smooth="yes"/>
      <point x="912" y="-380"/>
      <point x="912" y="-180" type="qcurve"/>
      <point x="800" y="-180" type="line"/>
      <point x="800" y="-50" type="line"/>
      <point x="1100" y="-50" type="line"/>
      <point x="1100" y="-180" type="line" smooth="yes"/>
      <point x="1100" y="-238"/>
    </contour>
    <contour>
      <point x="388" y="310" type="qcurve"/>
      <point x="388" y="138" type="line"/>
      <point x="480" y="138"/>
      <point x="480" y="249" type="qcurve" smooth="yes"/>
      <point x="480" y="310"/>
    </contour>
    <contour>
      <point x="200" y="923" type="line" smooth="yes"/>
      <point x="200" y="1036"/>
      <point x="275" y="1118" type="qcurve" smooth="yes"/>
      <point x="350" y="1200"/>
      <point x="445" y="1200" type="qcurve" smooth="yes"/>
      <point x="539" y="1200"/>
      <point x="650" y="1076" type="qcurve"/>
      <point x="762" y="1200"/>
      <point x="857" y="1200" type="qcurve" smooth="yes"/>
      <point x="951" y="1200"/>
      <point x="1026" y="1118" type="qcurve" smooth="yes"/>
      <point x="1100" y="1036"/>
      <point x="1100" y="923" type="qcurve" smooth="yes"/>
      <point x="1100" y="0" type="line"/>
      <point x="912" y="0" type="line"/>
      <point x="912" y="923" type="line" smooth="yes"/>
      <point x="912" y="1050"/>
      <point x="840" y="1050" type="qcurve" smooth="yes"/>
      <point x="791" y="1050"/>
      <point x="709" y="956" type="qcurve" smooth="yes"/>
      <point x="682" y="925"/>
      <point x="650" y="925" type="qcurve" smooth="yes"/>
      <point x="618" y="925"/>
      <point x="591" y="956" type="qcurve" smooth="yes"/>
      <point x="510" y="1050"/>
      <point x="461" y="1050" type="qcurve" smooth="yes"/>
      <point x="388" y="1050"/>
      <point x="388" y="923" type="qcurve" smooth="yes"/>
      <point x="388" y="448" type="line"/>
      <point x="598" y="448"/>
      <point x="598" y="249" type="qcurve" smooth="yes"/>
      <point x="598" y="0"/>
      <point x="388" y="0" type="qcurve" smooth="yes"/>
      <point x="200" y="0"/>
      <point x="200" y="122" type="qcurve" smooth="yes"/>
    </contour>
  </outline>
</glyph>
<glyph name="uni17AF" format="1">
  <advance width="1300"/>
  <unicode hex="17AF"/>
  <outline>
    <contour>
      <point x="200" y="1540" type="line"/>
      <point x="388" y="1540" type="line"/>
      <point x="388" y="1316" type="line" smooth="yes"/>
      <point x="388" y="1266"/>
      <point x="460" y="1200"/>
      <point x="530" y="1200" type="qcurve" smooth="yes"/>
      <point x="815" y="1200" type="line" smooth="yes"/>
      <point x="1100" y="1200"/>
      <point x="1100" y="897" type="qcurve" smooth="yes"/>
      <point x="1100" y="0" type="line"/>
      <point x="882" y="0" type="line"/>
      <point x="651" y="210" type="line"/>
      <point x="419" y="0" type="line"/>
      <point x="200" y="0" type="line"/>
      <point x="200" y="762" type="line" smooth="yes"/>
      <point x="200" y="803"/>
      <point x="100" y="803" type="qcurve"/>
      <point x="100" y="947" type="line"/>
      <point x="250" y="947" type="line" smooth="yes"/>
      <point x="388" y="947"/>
      <point x="388" y="803" type="qcurve" smooth="yes"/>
      <point x="388" y="166" type="line"/>
      <point x="651" y="405" type="line"/>
      <point x="912" y="167" type="line"/>
      <point x="912" y="897" type="line" smooth="yes"/>
      <point x="912" y="1062"/>
      <point x="721" y="1062" type="qcurve" smooth="yes"/>
      <point x="530" y="1062" type="line" smooth="yes"/>
      <point x="372" y="1062"/>
      <point x="289" y="1132" type="qcurve"/>
      <point x="200" y="1193"/>
      <point x="200" y="1316" type="qcurve" smooth="yes"/>
    </contour>
  </outline>
</glyph>
<glyph name="uni17B0" format="1">
  <advance width="1300"/>
  <unicode hex="17B0"/>
  <outline>
    <contour>
      <point x="670" y="-246" type="line"/>
      <point x="912" y="-282" type="line"/>
      <point x="912" y="-185" type="line"/>
    </contour>
    <contour>
      <point x="388" y="310" type="qcurve"/>
      <point x="388" y="138" type="line"/>
      <point x="480" y="138"/>
      <point x="480" y="249" type="qcurve" smooth="yes"/>
      <point x="480" y="310"/>
    </contour>
    <contour>
      <point x="383" y="-316" type="line"/>
      <point x="383" y="-356" type="line" smooth="yes"/>
      <point x="383" y="-395"/>
      <point x="469" y="-395" type="qcurve" smooth="yes"/>
      <point x="541" y="-395"/>
      <point x="569" y="-372" type="qcurve" smooth="yes"/>
      <point x="596" y="-351"/>
      <point x="596" y="-321" type="qcurve" smooth="yes"/>
      <point x="596" y="-265" type="line"/>
    </contour>
    <contour>
      <point x="200" y="923" type="line" smooth="yes"/>
      <point x="200" y="1036"/>
      <point x="275" y="1118" type="qcurve" smooth="yes"/>
      <point x="350" y="1200"/>
      <point x="445" y="1200" type="qcurve" smooth="yes"/>
      <point x="539" y="1200"/>
      <point x="650" y="1076" type="qcurve"/>
      <point x="762" y="1200"/>
      <point x="857" y="1200" type="qcurve" smooth="yes"/>
      <point x="951" y="1200"/>
      <point x="1026" y="1118" type="qcurve" smooth="yes"/>
      <point x="1100" y="1036"/>
      <point x="1100" y="923" type="qcurve" smooth="yes"/>
      <point x="1100" y="-275" type="line" smooth="yes"/>
      <point x="1100" y="-332"/>
      <point x="981" y="-389"/>
      <point x="816" y="-389" type="qcurve"/>
      <point x="706" y="-363" type="line"/>
      <point x="706" y="-410"/>
      <point x="650" y="-455" type="qcurve" smooth="yes"/>
      <point x="596" y="-500"/>
      <point x="466" y="-500" type="qcurve" smooth="yes"/>
      <point x="200" y="-500"/>
      <point x="200" y="-360" type="qcurve" smooth="yes"/>
      <point x="200" y="-219" type="line"/>
      <point x="486" y="-168"/>
      <point x="912" y="-84"/>
      <point x="912" y="-50" type="qcurve" smooth="yes"/>
      <point x="912" y="923" type="line" smooth="yes"/>
      <point x="912" y="1050"/>
      <point x="840" y="1050" type="qcurve" smooth="yes"/>
      <point x="791" y="1050"/>
      <point x="709" y="956" type="qcurve" smooth="yes"/>
      <point x="682" y="925"/>
      <point x="650" y="925" type="qcurve" smooth="yes"/>
      <point x="618" y="925"/>
      <point x="591" y="956" type="qcurve" smooth="yes"/>
      <point x="510" y="1050"/>
      <point x="461" y="1050" type="qcurve" smooth="yes"/>
      <point x="388" y="1050"/>
      <point x="388" y="923" type="qcurve" smooth="yes"/>
      <point x="388" y="448" type="line"/>
      <point x="598" y="448"/>
      <point x="598" y="249" type="qcurve" smooth="yes"/>
      <point x="598" y="0"/>
      <point x="388" y="0" type="qcurve" smooth="yes"/>
      <point x="200" y="0"/>
      <point x="200" y="122" type="qcurve" smooth="yes"/>
    </contour>
  </outline>
</glyph>
<glyph name="uni17B2" format="1">
  <advance width="1300"/>
  <unicode hex="17B2"/>
  <outline>
    <contour>
      <point x="906" y="453" type="qcurve"/>
      <point x="800" y="360" type="line"/>
      <point x="687" y="465" type="line"/>
      <point x="1022" y="762" type="line"/>
      <point x="644" y="762" type="line"/>
      <point x="644" y="900" type="line"/>
      <point x="1022" y="900" type="line"/>
      <point x="1097" y="802" type="line"/>
      <point x="1134" y="753" type="line" smooth="yes"/>
      <point x="1150" y="733"/>
      <point x="1150" y="712" type="qcurve" smooth="yes"/>
      <point x="1150" y="684"/>
      <point x="1119" y="655" type="qcurve" smooth="yes"/>
      <point x="1067" y="605" type="line"/>
      <point x="1043" y="582" type="line"/>
      <point x="1100" y="504"/>
      <point x="1100" y="400" type="qcurve" smooth="yes"/>
      <point x="1100" y="323" type="line" smooth="yes"/>
      <point x="1100" y="185"/>
      <point x="1000" y="92" type="qcurve" smooth="yes"/>
      <point x="900" y="0"/>
      <point x="650" y="0" type="qcurve" smooth="yes"/>
      <point x="400" y="0"/>
      <point x="300" y="92" type="qcurve" smooth="yes"/>
      <point x="200" y="185"/>
      <point x="200" y="323" type="qcurve" smooth="yes"/>
      <point x="200" y="877" type="line" smooth="yes"/>
      <point x="200" y="1015"/>
      <point x="300" y="1108" type="qcurve" smooth="yes"/>
      <point x="400" y="1200"/>
      <point x="625" y="1200" type="qcurve" smooth="yes"/>
      <point x="910" y="1200"/>
      <point x="1050" y="1108" type="qcurve"/>
      <point x="974" y="986" type="line"/>
      <point x="855" y="1062"/>
      <point x="625" y="1062" type="qcurve" smooth="yes"/>
      <point x="505" y="1062"/>
      <point x="447" y="1016" type="qcurve" smooth="yes"/>
      <point x="388" y="969"/>
      <point x="388" y="877" type="qcurve" smooth="yes"/>
      <point x="388" y="323" type="line" smooth="yes"/>
      <point x="388" y="231"/>
      <point x="447" y="184" type="qcurve" smooth="yes"/>
      <point x="505" y="138"/>
      <point x="650" y="138" type="qcurve" smooth="yes"/>
      <point x="795" y="138"/>
      <point x="854" y="184" type="qcurve" smooth="yes"/>
      <point x="912" y="231"/>
      <point x="912" y="323" type="qcurve" smooth="yes"/>
      <point x="912" y="400" type="line" smooth="yes"/>
      <point x="912" y="429"/>
    </contour>
  </outline>
</glyph>
<glyph name="uni17B5" format="1">
  <advance width="588"/>
  <unicode hex="17B5"/>
  <outline>
    <contour>
      <point x="68" y="1200" type="line" smooth="yes"/>
      <point x="236" y="1200"/>
      <point x="388" y="1068"/>
      <point x="388" y="937" type="qcurve" smooth="yes"/>
      <point x="388" y="0" type="line"/>
      <point x="200" y="0" type="line"/>
      <point x="200" y="937" type="line" smooth="yes"/>
      <point x="200" y="1009"/>
      <point x="143" y="1062"/>
      <point x="68" y="1062" type="qcurve" smooth="yes"/>
      <point x="-200" y="1062" type="line"/>
      <point x="-200" y="1200" type="line"/>
    </contour>
  </outline>
</glyph>
<glyph name="uni17B8" format="1">
  <advance width="0"/>
  <unicode hex="17B8"/>
  <outline>
    <contour>
      <point x="-900" y="1530" type="qcurve"/>
      <point x="-392" y="1530" type="line"/>
      <point x="-504" y="1610"/>
      <point x="-680" y="1670"/>
      <point x="-740" y="1670" type="qcurve" smooth="yes"/>
      <point x="-830" y="1670"/>
      <point x="-900" y="1610"/>
    </contour>
    <contour>
      <point x="-200" y="1400" type="line"/>
      <point x="-950" y="1400" type="line" smooth="yes"/>
      <point x="-1050" y="1400"/>
      <point x="-1050" y="1550" type="qcurve" smooth="yes"/>
      <point x="-1050" y="1650"/>
      <point x="-890" y="1800"/>
      <point x="-740" y="1800" type="qcurve" smooth="yes"/>
      <point x="-591" y="1800"/>
      <point x="-450" y="1725" type="qcurve" smooth="yes"/>
      <point x="-391" y="1694"/>
      <point x="-338" y="1658" type="qcurve"/>
      <point x="-338" y="1850" type="line"/>
      <point x="-200" y="1850" type="line"/>
    </contour>
  </outline>
</glyph>
<glyph name="uni17B9" format="1">
  <advance width="0"/>
  <unicode hex="17B9"/>
  <outline>
    <contour>
      <point x="-900" y="1530" type="qcurve"/>
      <point x="-392" y="1530" type="line"/>
      <point x="-504" y="1610"/>
      <point x="-680" y="1670"/>
      <point x="-740" y="1670" type="qcurve" smooth="yes"/>
      <point x="-830" y="1670"/>
      <point x="-900" y="1610"/>
    </contour>
    <contour>
      <point x="-238" y="1583" type="qcurve"/>
      <point x="-218" y="1567"/>
      <point x="-200" y="1550" type="qcurve"/>
      <point x="-200" y="1400" type="line"/>
      <point x="-950" y="1400" type="line" smooth="yes"/>
      <point x="-1050" y="1400"/>
      <point x="-1050" y="1550" type="qcurve" smooth="yes"/>
      <point x="-1050" y="1650"/>
      <point x="-890" y="1800"/>
      <point x="-740" y="1800" type="qcurve" smooth="yes"/>
      <point x="-662" y="1800"/>
      <point x="-587" y="1780" type="qcurve"/>
      <point x="-582" y="1790"/>
      <point x="-576" y="1801" type="qcurve" smooth="yes"/>
      <point x="-549" y="1849"/>
      <point x="-453" y="1900"/>
      <point x="-402" y="1900" type="qcurve" smooth="yes"/>
      <point x="-351" y="1900"/>
      <point x="-255" y="1849"/>
      <point x="-200" y="1752"/>
      <point x="-200" y="1700" type="qcurve" smooth="yes"/>
      <point x="-200" y="1648"/>
      <point x="-226" y="1601" type="qcurve" smooth="yes"/>
      <point x="-232" y="1591"/>
    </contour>
    <contour>
      <point x="-329" y="1651" type="qcurve"/>
      <point x="-327" y="1654"/>
      <point x="-325" y="1657" type="qcurve" smooth="yes"/>
      <point x="-314" y="1677"/>
      <point x="-314" y="1700" type="qcurve" smooth="yes"/>
      <point x="-314" y="1723"/>
      <point x="-338" y="1764"/>
      <point x="-379" y="1787"/>
      <point x="-402" y="1787" type="qcurve" smooth="yes"/>
      <point x="-424" y="1787"/>
      <point x="-466" y="1764"/>
      <point x="-478" y="1744" type="qcurve" smooth="yes"/>
      <point x="-479" y="1742"/>
      <point x="-480" y="1740" type="qcurve"/>
      <point x="-465" y="1733"/>
      <point x="-450" y="1725" type="qcurve" smooth="yes"/>
      <point x="-386" y="1691"/>
    </contour>
  </outline>
</glyph>
<glyph name="uni17BA" format="1">
  <advance width="0"/>
  <unicode hex="17BA"/>
  <outline>
    <contour>
      <point x="-900" y="1530" type="qcurve"/>
      <point x="-392" y="1530" type="line"/>
      <point x="-504" y="1610"/>
      <point x="-680" y="1670"/>
      <point x="-740" y="1670" type="qcurve" smooth="yes"/>
      <point x="-830" y="1670"/>
      <point x="-900" y="1610"/>
    </contour>
    <contour>
      <point x="-558" y="1771" type="qcurve"/>
      <point x="-558" y="1900" type="line"/>
      <point x="-420" y="1900" type="line"/>
      <point x="-420" y="1708" type="line"/>
      <point x="-378" y="1684"/>
      <point x="-338" y="1658" type="qcurve"/>
      <point x="-338" y="1850" type="line"/>
      <point x="-200" y="1850" type="line"/>
      <point x="-200" y="1400" type="line"/>
      <point x="-950" y="1400" type="line" smooth="yes"/>
      <point x="-1050" y="1400"/>
      <point x="-1050" y="1550" type="qcurve" smooth="yes"/>
      <point x="-1050" y="1650"/>
      <point x="-890" y="1800"/>
      <point x="-740" y="1800" type="qcurve" smooth="yes"/>
      <point x="-647" y="1800"/>
    </contour>
  </outline>
</glyph>
<glyph name="uni17BB" format="1">
  <advance width="0"/>
  <unicode hex="17BB"/>
  <outline>
    <contour>
      <point x="-200" y="-70" type="line"/>
      <point x="-200" y="-500" type="line"/>
      <point x="-388" y="-500" type="line"/>
      <point x="-388" y="-170" type="line"/>
      <point x="-493" y="-170" type="line"/>
      <point x="-493" y="-70" type="line"/>
    </contour>
  </outline>
</glyph>
<glyph name="uni17BC" format="1">
  <advance width="0"/>
  <unicode hex="17BC"/>
  <outline>
    <contour>
      <point x="-800" y="-70" type="line"/>
      <point x="-622" y="-70" type="line"/>
      <point x="-622" y="-290" type="line" smooth="yes"/>
      <point x="-622" y="-380"/>
      <point x="-500" y="-380" type="qcurve" smooth="yes"/>
      <point x="-378" y="-380"/>
      <point x="-378" y="-290" type="qcurve" smooth="yes"/>
      <point x="-378" y="-70" type="line"/>
      <point x="-200" y="-70" type="line"/>
      <point x="-200" y="-290" type="line" smooth="yes"/>
      <point x="-200" y="-500"/>
      <point x="-500" y="-500" type="qcurve" smooth="yes"/>
      <point x="-800" y="-500"/>
      <point x="-800" y="-290" type="qcurve" smooth="yes"/>
    </contour>
  </outline>
</glyph>
<glyph name="uni17BD" format="1">
  <advance width="0"/>
  <unicode hex="17BD"/>
  <outline>
    <contour>
      <point x="-850" y="-70" type="line"/>
      <point x="-672" y="-70" type="line"/>
      <point x="-672" y="-360" type="line"/>
      <point x="-525" y="-230" type="line"/>
      <point x="-378" y="-360" type="line"/>
      <point x="-378" y="-70" type="line"/>
      <point x="-200" y="-70" type="line"/>
      <point x="-200" y="-500" type="line"/>
      <point x="-400" y="-500" type="line"/>
      <point x="-525" y="-370" type="line"/>
      <point x="-650" y="-500" type="line"/>
      <point x="-850" y="-500" type="line"/>
    </contour>
  </outline>
</glyph>
<glyph name="uni17C0" format="1">
  <advance width="588"/>
  <unicode hex="17C0"/>
  <outline>
    <contour>
      <point x="-388" y="1900" type="line"/>
      <point x="-200" y="1900" type="line"/>
      <point x="-200" y="1552" type="line"/>
      <point x="-105" y="1610"/>
      <point x="0" y="1610" type="qcurve" smooth="yes"/>
      <point x="388" y="1610"/>
      <point x="388" y="1250" type="qcurve" smooth="yes"/>
      <point x="388" y="-260" type="line" smooth="yes"/>
      <point x="388" y="-500"/>
      <point x="0" y="-500" type="qcurve" smooth="yes"/>
      <point x="-388" y="-500"/>
      <point x="-388" y="-260" type="qcurve" smooth="yes"/>
      <point x="-388" y="-50" type="line"/>
      <point x="-150" y="-50" type="line"/>
      <point x="-150" y="-160" type="line"/>
      <point x="-200" y="-160" type="line"/>
      <point x="-200" y="-260" type="line" smooth="yes"/>
      <point x="-200" y="-360"/>
      <point x="0" y="-360" type="qcurve" smooth="yes"/>
      <point x="200" y="-360"/>
      <point x="200" y="-260" type="qcurve" smooth="yes"/>
      <point x="200" y="1250" type="line" smooth="yes"/>
      <point x="200" y="1480"/>
      <point x="0" y="1480" type="qcurve" smooth="yes"/>
      <point x="-200" y="1480"/>
      <point x="-260" y="1400" type="qcurve"/>
      <point x="-388" y="1400" type="line"/>
    </contour>
  </outline>
</glyph>
<glyph name="uni17C1" format="1">
  <advance width="588"/>
  <unicode hex="17C1"/>
  <outline>
    <contour>
      <point x="388" y="185" type="line" smooth="yes"/>
      <point x="388" y="138"/>
      <point x="463" y="138" type="qcurve" smooth="yes"/>
      <point x="548" y="138" type="line"/>
      <point x="548" y="0" type="line"/>
      <point x="350" y="0" type="line" smooth="yes"/>
      <point x="200" y="0"/>
      <point x="200" y="102" type="qcurve" smooth="yes"/>
      <point x="200" y="806" type="line"/>
      <point x="120" y="905" type="line"/>
      <point x="80" y="955" type="line" smooth="yes"/>
      <point x="59" y="980"/>
      <point x="59" y="1005" type="qcurve" smooth="yes"/>
      <point x="59" y="1029"/>
      <point x="78" y="1053" type="qcurve" smooth="yes"/>
      <point x="115" y="1102" type="line"/>
      <point x="190" y="1200" type="line"/>
      <point x="438" y="1200" type="line"/>
      <point x="438" y="1062" type="line"/>
      <point x="190" y="1062" type="line"/>
      <point x="388" y="840" type="line"/>
    </contour>
  </outline>
</glyph>
<glyph name="uni17C3" format="1">
  <advance width="588"/>
  <unicode hex="17C3"/>
  <outline>
    <contour>
      <point x="390" y="1505" type="qcurve" smooth="yes"/>
      <point x="390" y="1580"/>
      <point x="310" y="1580" type="qcurve" smooth="yes"/>
      <point x="200" y="1580"/>
      <point x="200" y="1530" type="qcurve"/>
      <point x="50" y="1530" type="line"/>
      <point x="50" y="1700" type="line" smooth="yes"/>
      <point x="50" y="1750"/>
      <point x="0" y="1750" type="qcurve"/>
      <point x="0" y="1900" type="line"/>
      <point x="200" y="1900"/>
      <point x="200" y="1750" type="qcurve" smooth="yes"/>
      <point x="200" y="1670" type="line"/>
      <point x="255" y="1700"/>
      <point x="310" y="1700" type="qcurve" smooth="yes"/>
      <point x="540" y="1700"/>
      <point x="540" y="1505" type="qcurve" smooth="yes"/>
      <point x="540" y="1300"/>
      <point x="300" y="1300" type="qcurve" smooth="yes"/>
      <point x="50" y="1300" type="line"/>
      <point x="50" y="1430" type="line"/>
      <point x="300" y="1430" type="line" smooth="yes"/>
      <point x="390" y="1430"/>
    </contour>
    <contour>
      <point x="388" y="185" type="line" smooth="yes"/>
      <point x="388" y="138"/>
      <point x="463" y="138" type="qcurve" smooth="yes"/>
      <point x="548" y="138" type="line"/>
      <point x="548" y="0" type="line"/>
      <point x="350" y="0" type="line" smooth="yes"/>
      <point x="200" y="0"/>
      <point x="200" y="102" type="qcurve" smooth="yes"/>
      <point x="200" y="806" type="line"/>
      <point x="120" y="905" type="line"/>
      <point x="80" y="955" type="line" smooth="yes"/>
      <point x="59" y="980"/>
      <point x="59" y="1005" type="qcurve" smooth="yes"/>
      <point x="59" y="1029"/>
      <point x="78" y="1053" type="qcurve" smooth="yes"/>
      <point x="115" y="1102" type="line"/>
      <point x="190" y="1200" type="line"/>
      <point x="438" y="1200" type="line"/>
      <point x="438" y="1062" type="line"/>
      <point x="190" y="1062" type="line"/>
      <point x="388" y="840" type="line"/>
    </contour>
  </outline>
</glyph>
<glyph name="uni17C5" format="1">
  <advance width="588"/>
  <unicode hex="17C5"/>
  <outline>
    <contour>
      <point x="200" y="1537" type="line" smooth="yes"/>
      <point x="200" y="1579"/>
      <point x="173" y="1612"/>
      <point x="128" y="1612" type="qcurve" smooth="yes"/>
      <point x="0" y="1612" type="line"/>
      <point x="0" y="1750" type="line"/>
      <point x="128" y="1750" type="line" smooth="yes"/>
      <point x="286" y="1750"/>
      <point x="388" y="1638"/>
      <point x="388" y="1537" type="qcurve" smooth="yes"/>
      <point x="388" y="1237" type="line"/>
      <point x="200" y="1239" type="line"/>
    </contour>
    <contour>
      <point x="68" y="1200" type="line" smooth="yes"/>
      <point x="236" y="1200"/>
      <point x="388" y="1068"/>
      <point x="388" y="937" type="qcurve" smooth="yes"/>
      <point x="388" y="0" type="line"/>
      <point x="200" y="0" type="line"/>
      <point x="200" y="937" type="line" smooth="yes"/>
      <point x="200" y="1009"/>
      <point x="143" y="1062"/>
      <point x="68" y="1062" type="qcurve" smooth="yes"/>
      <point x="-200" y="1062" type="line"/>
      <point x="-200" y="1200" type="line"/>
    </contour>
  </outline>
</glyph>
<glyph name="uni17C6" format="1">
  <advance width="0"/>
  <unicode hex="17C6"/>
  <outline>
    <contour>
      <point x="-716" y="1592"/>
      <point x="-740" y="1548"/>
      <point x="-740" y="1525" type="qcurve" smooth="yes"/>
      <point x="-740" y="1502"/>
      <point x="-716" y="1458"/>
      <point x="-673" y="1435"/>
      <point x="-650" y="1435" type="qcurve" smooth="yes"/>
      <point x="-627" y="1435"/>
      <point x="-583" y="1458"/>
      <point x="-560" y="1502"/>
      <point x="-560" y="1525" type="qcurve" smooth="yes"/>
      <point x="-560" y="1548"/>
      <point x="-584" y="1592"/>
      <point x="-627" y="1615"/>
      <point x="-650" y="1615" type="qcurve" smooth="yes"/>
      <point x="-673" y="1615"/>
    </contour>
    <contour>
      <point x="-650" y="1750" type="qcurve" smooth="yes"/>
      <point x="-593" y="1750"/>
      <point x="-486" y="1692"/>
      <point x="-425" y="1584"/>
      <point x="-425" y="1525" type="qcurve" smooth="yes"/>
      <point x="-425" y="1466"/>
      <point x="-484" y="1359"/>
      <point x="-591" y="1300"/>
      <point x="-650" y="1300" type="qcurve" smooth="yes"/>
      <point x="-708" y="1300"/>
      <point x="-815" y="1359"/>
      <point x="-875" y="1466"/>
      <point x="-875" y="1525" type="qcurve" smooth="yes"/>
      <point x="-875" y="1584"/>
      <point x="-814" y="1692"/>
      <point x="-707" y="1750"/>
    </contour>
  </outline>
</glyph>
<glyph name="uni17C7" format="1">
  <advance width="850"/>
  <unicode hex="17C7"/>
  <outline>
    <contour>
      <point x="359" y="292"/>
      <point x="335" y="248"/>
      <point x="335" y="225" type="qcurve" smooth="yes"/>
      <point x="335" y="202"/>
      <point x="359" y="158"/>
      <point x="402" y="135"/>
      <point x="425" y="135" type="qcurve" smooth="yes"/>
      <point x="448" y="135"/>
      <point x="492" y="158"/>
      <point x="515" y="202"/>
      <point x="515" y="225" type="qcurve" smooth="yes"/>
      <point x="515" y="248"/>
      <point x="491" y="292"/>
      <point x="448" y="315"/>
      <point x="425" y="315" type="qcurve" smooth="yes"/>
      <point x="402" y="315"/>
    </contour>
    <contour>
      <point x="425" y="450" type="qcurve" smooth="yes"/>
      <point x="482" y="450"/>
      <point x="589" y="392"/>
      <point x="650" y="284"/>
      <point x="650" y="225" type="qcurve" smooth="yes"/>
      <point x="650" y="166"/>
      <point x="591" y="59"/>
      <point x="484" y="0"/>
      <point x="425" y="0" type="qcurve" smooth="yes"/>
      <point x="367" y="0"/>
      <point x="260" y="59"/>
      <point x="200" y="166"/>
      <point x="200" y="225" type="qcurve" smooth="yes"/>
      <point x="200" y="284"/>
      <point x="261" y="392"/>
      <point x="368" y="450"/>
    </contour>
    <contour>
      <point x="359" y="1042"/>
      <point x="335" y="998"/>
      <point x="335" y="975" type="qcurve" smooth="yes"/>
      <point x="335" y="952"/>
      <point x="359" y="908"/>
      <point x="402" y="885"/>
      <point x="425" y="885" type="qcurve" smooth="yes"/>
      <point x="448" y="885"/>
      <point x="492" y="908"/>
      <point x="515" y="952"/>
      <point x="515" y="975" type="qcurve" smooth="yes"/>
      <point x="515" y="998"/>
      <point x="491" y="1042"/>
      <point x="448" y="1065"/>
      <point x="425" y="1065" type="qcurve" smooth="yes"/>
      <point x="402" y="1065"/>
    </contour>
    <contour>
      <point x="425" y="1200" type="qcurve" smooth="yes"/>
      <point x="482" y="1200"/>
      <point x="589" y="1142"/>
      <point x="650" y="1034"/>
      <point x="650" y="975" type="qcurve" smooth="yes"/>
      <point x="650" y="916"/>
      <point x="591" y="809"/>
      <point x="484" y="750"/>
      <point x="425" y="750" type="qcurve" smooth="yes"/>
      <point x="367" y="750"/>
      <point x="260" y="809"/>
      <point x="200" y="916"/>
      <point x="200" y="975" type="qcurve" smooth="yes"/>
      <point x="200" y="1034"/>
      <point x="261" y="1142"/>
      <point x="368" y="1200"/>
    </contour>
  </outline>
</glyph>
<glyph name="uni17C8" format="1">
  <advance width="580"/>
  <unicode hex="17C8"/>
  <outline>
    <contour>
      <point x="280" y="315" type="qcurve" smooth="yes"/>
      <point x="306" y="315"/>
      <point x="353" y="289"/>
      <point x="380" y="241"/>
      <point x="380" y="215" type="qcurve" smooth="yes"/>
      <point x="380" y="189"/>
      <point x="354" y="141"/>
      <point x="306" y="115"/>
      <point x="280" y="115" type="qcurve" smooth="yes"/>
      <point x="254" y="115"/>
      <point x="207" y="141"/>
      <point x="180" y="189"/>
      <point x="180" y="215" type="qcurve" smooth="yes"/>
      <point x="180" y="241"/>
      <point x="207" y="289"/>
      <point x="254" y="315"/>
    </contour>
    <contour>
      <point x="280" y="1065" type="qcurve" smooth="yes"/>
      <point x="306" y="1065"/>
      <point x="353" y="1039"/>
      <point x="380" y="991"/>
      <point x="380" y="965" type="qcurve" smooth="yes"/>
      <point x="380" y="939"/>
      <point x="354" y="891"/>
      <point x="306" y="865"/>
      <point x="280" y="865" type="qcurve" smooth="yes"/>
      <point x="254" y="865"/>
      <point x="207" y="891"/>
      <point x="180" y="939"/>
      <point x="180" y="965" type="qcurve" smooth="yes"/>
      <point x="180" y="991"/>
      <point x="207" y="1039"/>
      <point x="254" y="1065"/>
    </contour>
  </outline>
</glyph>
<glyph name="uni17CB" format="1">
  <advance width="0"/>
  <unicode hex="17CB"/>
  <outline>
    <contour>
      <point x="-725" y="1300" type="line"/>
      <point x="-725" y="1700" type="line"/>
      <point x="-575" y="1700" type="line"/>
      <point x="-575" y="1300" type="line"/>
    </contour>
  </outline>
</glyph>
<glyph name="uni17CC" format="1">
  <advance width="0"/>
  <unicode hex="17CC"/>
  <outline>
    <contour>
      <point x="-923" y="1309" type="qcurve"/>
      <point x="-1005" y="1416" type="line"/>
      <point x="-850" y="1500"/>
      <point x="-647" y="1712"/>
      <point x="-616" y="1806" type="qcurve"/>
      <point x="-495" y="1767" type="line"/>
      <point x="-539" y="1651"/>
      <point x="-594" y="1571"/>
      <point x="-645" y="1521" type="qcurve"/>
      <point x="-620" y="1525"/>
      <point x="-594" y="1525" type="qcurve" smooth="yes"/>
      <point x="-538" y="1525"/>
      <point x="-472" y="1510" type="qcurve" smooth="yes"/>
      <point x="-376" y="1489"/>
      <point x="-295" y="1391" type="qcurve"/>
      <point x="-410" y="1300" type="line"/>
      <point x="-491" y="1400"/>
      <point x="-617" y="1413" type="qcurve" smooth="yes"/>
      <point x="-659" y="1417"/>
      <point x="-693" y="1417" type="qcurve" smooth="yes"/>
      <point x="-762" y="1417"/>
      <point x="-800" y="1400" type="qcurve" smooth="yes"/>
      <point x="-857" y="1373"/>
    </contour>
  </outline>
</glyph>
<glyph name="uni17CD" format="1">
  <advance width="0"/>
  <unicode hex="17CD"/>
  <outline>
    <contour>
      <point x="-807" y="1410" type="qcurve" smooth="yes"/>
      <point x="-742" y="1410" type="line"/>
      <point x="-742" y="1300" type="line"/>
      <point x="-807" y="1300" type="line" smooth="yes"/>
      <point x="-1050" y="1300"/>
      <point x="-1050" y="1455" type="qcurve" smooth="yes"/>
      <point x="-1050" y="1650"/>
      <point x="-783" y="1650" type="qcurve" smooth="yes"/>
      <point x="-561" y="1650" type="line" smooth="yes"/>
      <point x="-397" y="1650"/>
      <point x="-397" y="1800" type="qcurve"/>
      <point x="-250" y="1800" type="line"/>
      <point x="-250" y="1750" type="line" smooth="yes"/>
      <point x="-250" y="1520"/>
      <point x="-561" y="1520" type="qcurve" smooth="yes"/>
      <point x="-783" y="1520" type="line" smooth="yes"/>
      <point x="-902" y="1520"/>
      <point x="-902" y="1455" type="qcurve" smooth="yes"/>
      <point x="-902" y="1410"/>
    </contour>
  </outline>
</glyph>
<glyph name="uni17CE" format="1">
  <advance width="0"/>
  <unicode hex="17CE"/>
  <outline>
    <contour>
      <point x="-575" y="1618" type="line"/>
      <point x="-375" y="1618" type="line"/>
      <point x="-375" y="1481" type="line"/>
      <point x="-575" y="1481" type="line"/>
      <point x="-575" y="1300" type="line"/>
      <point x="-725" y="1300" type="line"/>
      <point x="-725" y="1481" type="line"/>
      <point x="-925" y="1481" type="line"/>
      <point x="-925" y="1618" type="line"/>
      <point x="-725" y="1618" type="line"/>
      <point x="-725" y="1799" type="line"/>
      <point x="-575" y="1799" type="line"/>
    </contour>
  </outline>
</glyph>
<glyph name="uni17CF" format="1">
  <advance width="0"/>
  <unicode hex="17CF"/>
  <outline>
    <contour>
      <point x="-800" y="1704" type="qcurve" smooth="yes"/>
      <point x="-664" y="1704" type="line" smooth="yes"/>
      <point x="-400" y="1704"/>
      <point x="-400" y="1800" type="qcurve"/>
      <point x="-250" y="1800" type="line"/>
      <point x="-250" y="1762" type="line" smooth="yes"/>
      <point x="-250" y="1588"/>
      <point x="-470" y="1588" type="qcurve" smooth="yes"/>
      <point x="-800" y="1588" type="line" smooth="yes"/>
      <point x="-899" y="1588"/>
      <point x="-899" y="1502" type="qcurve" smooth="yes"/>
      <point x="-899" y="1415" type="line"/>
      <point x="-650" y="1527" type="line"/>
      <point x="-400" y="1414" type="line"/>
      <point x="-400" y="1512" type="line"/>
      <point x="-250" y="1512" type="line"/>
      <point x="-250" y="1300" type="line"/>
      <point x="-430" y="1300" type="line"/>
      <point x="-651" y="1393" type="line"/>
      <point x="-868" y="1300" type="line"/>
      <point x="-869" y="1301" type="line"/>
      <point x="-869" y="1300" type="line"/>
      <point x="-1050" y="1300" type="line"/>
      <point x="-1050" y="1502" type="line" smooth="yes"/>
      <point x="-1050" y="1704"/>
    </contour>
  </outline>
</glyph>
<glyph name="uni17D0" format="1">
  <advance width="0"/>
  <unicode hex="17D0"/>
  <outline>
    <contour>
      <point x="-700" y="1600" type="qcurve" smooth="yes"/>
      <point x="-700" y="1790"/>
      <point x="-433" y="1790" type="qcurve" smooth="yes"/>
      <point x="-389" y="1790" type="line"/>
      <point x="-389" y="1660" type="line"/>
      <point x="-436" y="1660" type="line" smooth="yes"/>
      <point x="-550" y="1660"/>
      <point x="-550" y="1600" type="qcurve" smooth="yes"/>
      <point x="-550" y="1530"/>
      <point x="-309" y="1530" type="qcurve" smooth="yes"/>
      <point x="-50" y="1530"/>
      <point x="-50" y="1800" type="qcurve"/>
      <point x="100" y="1800" type="line"/>
      <point x="100" y="1400"/>
      <point x="-309" y="1400" type="qcurve" smooth="yes"/>
      <point x="-700" y="1400"/>
    </contour>
  </outline>
</glyph>
<glyph name="uni17D2" format="1">
  <advance width="0"/>
  <unicode hex="17D2"/>
  <outline>
    <contour>
      <point x="-575" y="-214" type="line"/>
      <point x="-375" y="-214" type="line"/>
      <point x="-375" y="-336" type="line"/>
      <point x="-575" y="-336" type="line"/>
      <point x="-575" y="-500" type="line"/>
      <point x="-725" y="-500" type="line"/>
      <point x="-725" y="-336" type="line"/>
      <point x="-925" y="-336" type="line"/>
      <point x="-925" y="-214" type="line"/>
      <point x="-725" y="-214" type="line"/>
      <point x="-725" y="-50" type="line"/>
      <point x="-575" y="-50" type="line"/>
    </contour>
  </outline>
</glyph>
<glyph name="uni17D4" format="1">
  <advance width="1200"/>
  <unicode hex="17D4"/>
  <outline>
    <contour>
      <point x="388" y="1020" type="qcurve" smooth="yes"/>
      <point x="388" y="938"/>
      <point x="466" y="938" type="qcurve" smooth="yes"/>
      <point x="643" y="938"/>
      <point x="728" y="1069" type="qcurve" smooth="yes"/>
      <point x="812" y="1200" type="line"/>
      <point x="1000" y="1200" type="line"/>
      <point x="1000" y="0" type="line"/>
      <point x="812" y="0" type="line"/>
      <point x="812" y="946" type="line"/>
      <point x="703" y="800"/>
      <point x="466" y="800" type="qcurve" smooth="yes"/>
      <point x="200" y="800"/>
      <point x="200" y="1020" type="qcurve" smooth="yes"/>
      <point x="200" y="1200"/>
      <point x="442" y="1200" type="qcurve" smooth="yes"/>
      <point x="495" y="1200" type="line"/>
      <point x="495" y="1062" type="line"/>
      <point x="442" y="1062" type="line" smooth="yes"/>
      <point x="388" y="1062"/>
    </contour>
  </outline>
</glyph>
<glyph name="uni17D5" format="1">
  <advance width="1500"/>
  <unicode hex="17D5"/>
  <outline>
    <contour>
      <point x="388" y="1020" type="qcurve" smooth="yes"/>
      <point x="388" y="938"/>
      <point x="466" y="938" type="qcurve" smooth="yes"/>
      <point x="643" y="938"/>
      <point x="728" y="1069" type="qcurve" smooth="yes"/>
      <point x="812" y="1200" type="line"/>
      <point x="1000" y="1200" type="line"/>
      <point x="1000" y="0" type="line"/>
      <point x="812" y="0" type="line"/>
      <point x="812" y="946" type="line"/>
      <point x="703" y="800"/>
      <point x="466" y="800" type="qcurve" smooth="yes"/>
      <point x="200" y="800"/>
      <point x="200" y="1020" type="qcurve" smooth="yes"/>
      <point x="200" y="1200"/>
      <point x="442" y="1200" type="qcurve" smooth="yes"/>
      <point x="495" y="1200" type="line"/>
      <point x="495" y="1062" type="line"/>
      <point x="442" y="1062" type="line" smooth="yes"/>
      <point x="388" y="1062"/>
    </contour>
    <contour>
      <point x="1300" y="1200" type="line"/>
      <point x="1300" y="0" type="line"/>
      <point x="1112" y="0" type="line"/>
      <point x="1112" y="1200" type="line"/>
    </contour>
  </outline>
</glyph>
<glyph name="uni17D7" format="1">
  <advance width="1200"/>
  <unicode hex="17D7"/>
  <outline>
    <contour>
      <point x="812" y="993" type="line"/>
      <point x="709" y="904"/>
      <point x="625" y="904" type="qcurve" smooth="yes"/>
      <point x="561" y="904"/>
      <point x="508" y="956" type="qcurve"/>
      <point x="460" y="1050"/>
      <point x="391" y="1050" type="qcurve" smooth="yes"/>
      <point x="338" y="1050"/>
      <point x="338" y="973" type="qcurve" smooth="yes"/>
      <point x="338" y="947" type="line" smooth="yes"/>
      <point x="338" y="913"/>
      <point x="438" y="913" type="qcurve"/>
      <point x="438" y="769" type="line"/>
      <point x="288" y="769" type="line" smooth="yes"/>
      <point x="150" y="769"/>
      <point x="150" y="913" type="qcurve" smooth="yes"/>
      <point x="150" y="973" type="line" smooth="yes"/>
      <point x="150" y="1036"/>
      <point x="260" y="1200"/>
      <point x="375" y="1200" type="qcurve" smooth="yes"/>
      <point x="489" y="1200"/>
      <point x="600" y="1046" type="qcurve"/>
      <point x="614" y="1036"/>
      <point x="631" y="1036" type="qcurve" smooth="yes"/>
      <point x="700" y="1036"/>
      <point x="812" y="1200" type="qcurve"/>
      <point x="1000" y="1200" type="line"/>
      <point x="1000" y="-80" type="line" smooth="yes"/>
      <point x="1000" y="-400"/>
      <point x="550" y="-400" type="qcurve"/>
      <point x="550" y="-262" type="line"/>
      <point x="812" y="-262"/>
      <point x="812" y="-80" type="qcurve" smooth="yes"/>
    </contour>
  </outline>
</glyph>
<glyph name="uni17D8" format="1">
  <advance width="4300"/>
  <unicode hex="17D8"/>
  <outline>
    <contour>
      <point x="3488" y="1020" type="qcurve" smooth="yes"/>
      <point x="3488" y="938"/>
      <point x="3566" y="938" type="qcurve" smooth="yes"/>
      <point x="3743" y="938"/>
      <point x="3828" y="1069" type="qcurve" smooth="yes"/>
      <point x="3912" y="1200" type="line"/>
      <point x="4100" y="1200" type="line"/>
      <point x="4100" y="0" type="line"/>
      <point x="3912" y="0" type="line"/>
      <point x="3912" y="946" type="line"/>
      <point x="3803" y="800"/>
      <point x="3566" y="800" type="qcurve" smooth="yes"/>
      <point x="3300" y="800"/>
      <point x="3300" y="1020" type="qcurve" smooth="yes"/>
      <point x="3300" y="1200"/>
      <point x="3542" y="1200" type="qcurve" smooth="yes"/>
      <point x="3595" y="1200" type="line"/>
      <point x="3595" y="1062" type="line"/>
      <point x="3542" y="1062" type="line" smooth="yes"/>
      <point x="3488" y="1062"/>
    </contour>
    <contour>
      <point x="388" y="1020" type="qcurve" smooth="yes"/>
      <point x="388" y="938"/>
      <point x="466" y="938" type="qcurve" smooth="yes"/>
      <point x="643" y="938"/>
      <point x="728" y="1069" type="qcurve" smooth="yes"/>
      <point x="812" y="1200" type="line"/>
      <point x="1000" y="1200" type="line"/>
      <point x="1000" y="0" type="line"/>
      <point x="812" y="0" type="line"/>
      <point x="812" y="946" type="line"/>
      <point x="703" y="800"/>
      <point x="466" y="800" type="qcurve" smooth="yes"/>
      <point x="200" y="800"/>
      <point x="200" y="1020" type="qcurve" smooth="yes"/>
      <point x="200" y="1200"/>
      <point x="442" y="1200" type="qcurve" smooth="yes"/>
      <point x="495" y="1200" type="line"/>
      <point x="495" y="1062" type="line"/>
      <point x="442" y="1062" type="line" smooth="yes"/>
      <point x="388" y="1062"/>
    </contour>
    <contour>
      <point x="1588" y="310" type="qcurve"/>
      <point x="1588" y="138" type="line"/>
      <point x="1680" y="138"/>
      <point x="1680" y="249" type="qcurve" smooth="yes"/>
      <point x="1680" y="310"/>
    </contour>
    <contour>
      <point x="1400" y="877" type="line" smooth="yes"/>
      <point x="1400" y="1015"/>
      <point x="1500" y="1108" type="qcurve" smooth="yes"/>
      <point x="1600" y="1200"/>
      <point x="1825" y="1200" type="qcurve" smooth="yes"/>
      <point x="2050" y="1200"/>
      <point x="2150" y="1108" type="qcurve" smooth="yes"/>
      <point x="2250" y="1015"/>
      <point x="2250" y="877" type="qcurve" smooth="yes"/>
      <point x="2250" y="323" type="line" smooth="yes"/>
      <point x="2250" y="231"/>
      <point x="2367" y="138"/>
      <point x="2481" y="138" type="qcurve" smooth="yes"/>
      <point x="2595" y="138"/>
      <point x="2712" y="231"/>
      <point x="2712" y="323" type="qcurve" smooth="yes"/>
      <point x="2712" y="806" type="line"/>
      <point x="2607" y="905" type="line"/>
      <point x="2555" y="955" type="line" smooth="yes"/>
      <point x="2524" y="984"/>
      <point x="2524" y="1012" type="qcurve" smooth="yes"/>
      <point x="2524" y="1033"/>
      <point x="2540" y="1053" type="qcurve" smooth="yes"/>
      <point x="2577" y="1102" type="line"/>
      <point x="2652" y="1200" type="line"/>
      <point x="2900" y="1200" type="line"/>
      <point x="2900" y="1062" type="line"/>
      <point x="2652" y="1062" type="line"/>
      <point x="2900" y="840" type="line"/>
      <point x="2900" y="323" type="line" smooth="yes"/>
      <point x="2900" y="162"/>
      <point x="2688" y="0"/>
      <point x="2475" y="0" type="qcurve" smooth="yes"/>
      <point x="2262" y="0"/>
      <point x="2062" y="185"/>
      <point x="2062" y="323" type="qcurve" smooth="yes"/>
      <point x="2062" y="877" type="line" smooth="yes"/>
      <point x="2062" y="969"/>
      <point x="2004" y="1016" type="qcurve" smooth="yes"/>
      <point x="1945" y="1062"/>
      <point x="1825" y="1062" type="qcurve" smooth="yes"/>
      <point x="1705" y="1062"/>
      <point x="1647" y="1016" type="qcurve" smooth="yes"/>
      <point x="1588" y="969"/>
      <point x="1588" y="877" type="qcurve" smooth="yes"/>
      <point x="1588" y="448" type="line"/>
      <point x="1798" y="448"/>
      <point x="1798" y="249" type="qcurve" smooth="yes"/>
      <point x="1798" y="0"/>
      <point x="1588" y="0" type="qcurve" smooth="yes"/>
      <point x="1400" y="0"/>
      <point x="1400" y="122" type="qcurve" smooth="yes"/>
    </contour>
  </outline>
</glyph>
<glyph name="uni17D9" format="1">
  <advance width="1500"/>
  <unicode hex="17D9"/>
  <outline>
    <contour>
      <point x="750" y="0" type="qcurve" smooth="yes"/>
      <point x="200" y="0"/>
      <point x="200" y="600" type="qcurve" smooth="yes"/>
      <point x="200" y="1200"/>
      <point x="750" y="1200" type="qcurve" smooth="yes"/>
      <point x="1300" y="1200"/>
      <point x="1300" y="600" type="qcurve" smooth="yes"/>
      <point x="1300" y="0"/>
    </contour>
    <contour>
      <point x="750" y="1100" type="qcurve" smooth="yes"/>
      <point x="338" y="1100"/>
      <point x="338" y="600" type="qcurve" smooth="yes"/>
      <point x="338" y="100"/>
      <point x="750" y="100" type="qcurve" smooth="yes"/>
      <point x="1163" y="100"/>
      <point x="1163" y="600" type="qcurve" smooth="yes"/>
      <point x="1163" y="1100"/>
    </contour>
    <contour>
      <point x="750" y="200" type="qcurve" smooth="yes"/>
      <point x="475" y="200"/>
      <point x="475" y="600" type="qcurve" smooth="yes"/>
      <point x="475" y="1000"/>
      <point x="750" y="1000" type="qcurve" smooth="yes"/>
      <point x="1025" y="1000"/>
      <point x="1025" y="600" type="qcurve" smooth="yes"/>
      <point x="1025" y="200"/>
    </contour>
    <contour>
      <point x="750" y="900" type="qcurve" smooth="yes"/>
      <point x="613" y="900"/>
      <point x="613" y="600" type="qcurve" smooth="yes"/>
      <point x="613" y="300"/>
      <point x="750" y="300" type="qcurve" smooth="yes"/>
      <point x="888" y="300"/>
      <point x="888" y="600" type="qcurve" smooth="yes"/>
      <point x="888" y="900"/>
    </contour>
  </outline>
</glyph>
<glyph name="uni17DB" format="1">
  <advance width="588"/>
  <unicode hex="17DB"/>
  <outline>
    <contour>
      <point x="388" y="531" type="line"/>
      <point x="388" y="102" type="line" smooth="yes"/>
      <point x="388" y="0"/>
      <point x="238" y="0" type="qcurve" smooth="yes"/>
      <point x="59" y="0" type="line"/>
      <point x="59" y="138" type="line"/>
      <point x="200" y="138"/>
      <point x="200" y="185" type="qcurve" smooth="yes"/>
      <point x="200" y="531" type="line"/>
      <point x="50" y="531" type="line"/>
      <point x="50" y="669" type="line"/>
      <point x="200" y="669" type="line"/>
      <point x="200" y="806" type="line"/>
      <point x="95" y="905" type="line"/>
      <point x="43" y="955" type="line" smooth="yes"/>
      <point x="12" y="984"/>
      <point x="12" y="1012" type="qcurve" smooth="yes"/>
      <point x="12" y="1033"/>
      <point x="28" y="1053" type="qcurve" smooth="yes"/>
      <point x="65" y="1102" type="line"/>
      <point x="140" y="1200" type="line"/>
      <point x="388" y="1200" type="line"/>
      <point x="388" y="1062" type="line"/>
      <point x="140" y="1062" type="line"/>
      <point x="388" y="840" type="line"/>
      <point x="388" y="669" type="line"/>
      <point x="488" y="669" type="line"/>
      <point x="488" y="531" type="line"/>
    </contour>
  </outline>
</glyph>
<glyph name="uni17E0" format="1">
  <advance width="1300"/>
  <unicode hex="17E0"/>
  <outline>
    <contour>
      <point x="650" y="138" type="qcurve" smooth="yes"/>
      <point x="912" y="138"/>
      <point x="912" y="380" type="qcurve" smooth="yes"/>
      <point x="912" y="820" type="line" smooth="yes"/>
      <point x="912" y="1062"/>
      <point x="650" y="1062" type="qcurve" smooth="yes"/>
      <point x="388" y="1062"/>
      <point x="388" y="820" type="qcurve" smooth="yes"/>
      <point x="388" y="380" type="line" smooth="yes"/>
      <point x="388" y="138"/>
    </contour>
    <contour>
      <point x="200" y="820" type="line" smooth="yes"/>
      <point x="200" y="1200"/>
      <point x="650" y="1200" type="qcurve" smooth="yes"/>
      <point x="1100" y="1200"/>
      <point x="1100" y="820" type="qcurve" smooth="yes"/>
      <point x="1100" y="380" type="line" smooth="yes"/>
      <point x="1100" y="0"/>
      <point x="650" y="0" type="qcurve" smooth="yes"/>
      <point x="200" y="0"/>
      <point x="200" y="380" type="qcurve" smooth="yes"/>
    </contour>
  </outline>
</glyph>
<glyph name="uni17E1" format="1">
  <advance width="1300"/>
  <unicode hex="17E1"/>
  <outline>
    <contour>
      <point x="912" y="320" type="qcurve" smooth="yes"/>
      <point x="912" y="880" type="line" smooth="yes"/>
      <point x="912" y="1062"/>
      <point x="650" y="1062" type="qcurve" smooth="yes"/>
      <point x="388" y="1062"/>
      <point x="388" y="880" type="qcurve" smooth="yes"/>
      <point x="388" y="760" type="line" smooth="yes"/>
      <point x="388" y="680"/>
      <point x="515" y="680" type="qcurve" smooth="yes"/>
      <point x="650" y="680" type="line"/>
      <point x="650" y="520" type="line"/>
      <point x="515" y="520" type="line" smooth="yes"/>
      <point x="200" y="520"/>
      <point x="200" y="760" type="qcurve" smooth="yes"/>
      <point x="200" y="880" type="line" smooth="yes"/>
      <point x="200" y="1200"/>
      <point x="650" y="1200" type="qcurve" smooth="yes"/>
      <point x="1100" y="1200"/>
      <point x="1100" y="880" type="qcurve" smooth="yes"/>
      <point x="1100" y="320" type="line" smooth="yes"/>
      <point x="1100" y="0"/>
      <point x="650" y="0" type="qcurve" smooth="yes"/>
      <point x="200" y="0"/>
      <point x="200" y="320" type="qcurve"/>
      <point x="388" y="320" type="line"/>
      <point x="388" y="138"/>
      <point x="650" y="138" type="qcurve" smooth="yes"/>
      <point x="912" y="138"/>
    </contour>
  </outline>
</glyph>
<glyph name="uni17E2" format="1">
  <advance width="1538"/>
  <unicode hex="17E2"/>
  <outline>
    <contour>
      <point x="1338" y="400" type="line" smooth="yes"/>
      <point x="1338" y="0"/>
      <point x="769" y="0" type="qcurve" smooth="yes"/>
      <point x="200" y="0"/>
      <point x="200" y="400" type="qcurve" smooth="yes"/>
      <point x="200" y="1300" type="line"/>
      <point x="100" y="1300" type="line"/>
      <point x="100" y="1450" type="line"/>
      <point x="200" y="1450" type="line" smooth="yes"/>
      <point x="388" y="1450"/>
      <point x="388" y="1300" type="qcurve" smooth="yes"/>
      <point x="388" y="400" type="line" smooth="yes"/>
      <point x="388" y="138"/>
      <point x="769" y="138" type="qcurve" smooth="yes"/>
      <point x="1150" y="138"/>
      <point x="1150" y="400" type="qcurve" smooth="yes"/>
      <point x="1150" y="1032" type="line"/>
      <point x="940" y="858" type="line"/>
      <point x="740" y="1032" type="line"/>
      <point x="740" y="750" type="line"/>
      <point x="790" y="750" type="line"/>
      <point x="790" y="600" type="line"/>
      <point x="542" y="600" type="line"/>
      <point x="542" y="1200" type="line"/>
      <point x="740" y="1200" type="line"/>
      <point x="940" y="1026" type="line"/>
      <point x="1150" y="1200" type="line"/>
      <point x="1338" y="1200" type="line"/>
    </contour>
  </outline>
</glyph>
<glyph name="uni17E3" format="1">
  <advance width="1764"/>
  <unicode hex="17E3"/>
  <outline>
    <contour>
      <point x="976" y="0" type="line"/>
      <point x="788" y="0" type="line"/>
      <point x="788" y="840" type="line" smooth="yes"/>
      <point x="788" y="1062"/>
      <point x="588" y="1062" type="qcurve" smooth="yes"/>
      <point x="388" y="1062"/>
      <point x="388" y="840" type="qcurve" smooth="yes"/>
      <point x="388" y="138" type="line"/>
      <point x="488" y="138" type="line"/>
      <point x="488" y="0" type="line"/>
      <point x="200" y="0" type="line"/>
      <point x="200" y="850" type="line" smooth="yes"/>
      <point x="200" y="1200"/>
      <point x="588" y="1200" type="qcurve" smooth="yes"/>
      <point x="787" y="1200"/>
      <point x="881" y="1111" type="qcurve"/>
      <point x="975" y="1200"/>
      <point x="1176" y="1200" type="qcurve" smooth="yes"/>
      <point x="1564" y="1200"/>
      <point x="1564" y="840" type="qcurve" smooth="yes"/>
      <point x="1564" y="0" type="line"/>
      <point x="1376" y="0" type="line"/>
      <point x="1376" y="840" type="line" smooth="yes"/>
      <point x="1376" y="1062"/>
      <point x="1176" y="1062" type="qcurve" smooth="yes"/>
      <point x="976" y="1062"/>
      <point x="976" y="840" type="qcurve" smooth="yes"/>
    </contour>
  </outline>
</glyph>
<glyph name="uni17E4" format="1">
  <advance width="1300"/>
  <unicode hex="17E4"/>
  <outline>
    <contour>
      <point x="650" y="138" type="qcurve" smooth="yes"/>
      <point x="970" y="138" type="line"/>
      <point x="700" y="448" type="line"/>
      <point x="700" y="800" type="line" smooth="yes"/>
      <point x="700" y="875"/>
      <point x="800" y="938"/>
      <point x="900" y="938" type="qcurve" smooth="yes"/>
      <point x="1100" y="938" type="line"/>
      <point x="1100" y="800" type="line"/>
      <point x="888" y="800" type="line"/>
      <point x="888" y="498" type="line"/>
      <point x="1100" y="138" type="line"/>
      <point x="1050" y="0" type="line"/>
      <point x="650" y="0" type="line" smooth="yes"/>
      <point x="200" y="0"/>
      <point x="200" y="400" type="qcurve" smooth="yes"/>
      <point x="200" y="1300" type="line"/>
      <point x="100" y="1300" type="line"/>
      <point x="100" y="1460" type="line"/>
      <point x="200" y="1460" type="line" smooth="yes"/>
      <point x="388" y="1460"/>
      <point x="388" y="1310" type="qcurve" smooth="yes"/>
      <point x="388" y="400" type="line" smooth="yes"/>
      <point x="388" y="138"/>
    </contour>
  </outline>
</glyph>
<glyph name="uni17E5" format="1">
  <advance width="1300"/>
  <unicode hex="17E5"/>
  <outline>
    <contour>
      <point x="388" y="330" type="line" smooth="yes"/>
      <point x="388" y="138"/>
      <point x="650" y="138" type="qcurve" smooth="yes"/>
      <point x="950" y="138" type="line"/>
      <point x="700" y="368" type="line"/>
      <point x="700" y="600" type="line" smooth="yes"/>
      <point x="700" y="675"/>
      <point x="800" y="800"/>
      <point x="888" y="800" type="qcurve" smooth="yes"/>
      <point x="1100" y="800" type="line"/>
      <point x="1100" y="662" type="line"/>
      <point x="888" y="662" type="line"/>
      <point x="888" y="398" type="line"/>
      <point x="1100" y="138" type="line"/>
      <point x="1048" y="0" type="line"/>
      <point x="650" y="0" type="line" smooth="yes"/>
      <point x="200" y="0"/>
      <point x="200" y="330" type="qcurve" smooth="yes"/>
      <point x="200" y="890" type="line" smooth="yes"/>
      <point x="200" y="1037"/>
      <point x="325" y="1090" type="qcurve" smooth="yes"/>
      <point x="347" y="1100"/>
      <point x="368" y="1107" type="qcurve"/>
      <point x="300" y="1164"/>
      <point x="300" y="1226" type="qcurve" smooth="yes"/>
      <point x="300" y="1370"/>
      <point x="480" y="1370" type="qcurve" smooth="yes"/>
      <point x="670" y="1370"/>
      <point x="670" y="1226" type="qcurve" smooth="yes"/>
      <point x="670" y="1174"/>
      <point x="595" y="1123" type="qcurve"/>
      <point x="696" y="1093"/>
      <point x="770" y="1093" type="qcurve" smooth="yes"/>
      <point x="840" y="1093"/>
      <point x="912" y="1159"/>
      <point x="912" y="1209" type="qcurve" smooth="yes"/>
      <point x="912" y="1570" type="line"/>
      <point x="1100" y="1570" type="line"/>
      <point x="1100" y="1209" type="line" smooth="yes"/>
      <point x="1100" y="1086"/>
      <point x="1011" y="1025" type="qcurve"/>
      <point x="928" y="955"/>
      <point x="770" y="955" type="qcurve" smooth="yes"/>
      <point x="614" y="955"/>
      <point x="472" y="1004" type="qcurve"/>
      <point x="436" y="985"/>
      <point x="388" y="939"/>
      <point x="388" y="890" type="qcurve" smooth="yes"/>
    </contour>
  </outline>
</glyph>
<glyph name="uni17E6" format="1">
  <advance width="1300"/>
  <unicode hex="17E6"/>
  <outline>
    <contour>
      <point x="200" y="1550" type="line"/>
      <point x="388" y="1550" type="line"/>
      <point x="388" y="1146" type="line"/>
      <point x="516" y="1200"/>
      <point x="650" y="1200" type="qcurve" smooth="yes"/>
      <point x="1100" y="1200"/>
      <point x="1100" y="800" type="qcurve" smooth="yes"/>
      <point x="1100" y="400" type="line" smooth="yes"/>
      <point x="1100" y="0"/>
      <point x="650" y="0" type="qcurve" smooth="yes"/>
      <point x="200" y="0"/>
      <point x="200" y="350" type="qcurve" smooth="yes"/>
      <point x="200" y="700"/>
      <point x="550" y="700" type="qcurve" smooth="yes"/>
      <point x="700" y="700" type="line"/>
      <point x="700" y="562" type="line"/>
      <point x="550" y="562" type="line" smooth="yes"/>
      <point x="388" y="562"/>
      <point x="388" y="350" type="qcurve" smooth="yes"/>
      <point x="388" y="138"/>
      <point x="650" y="138" type="qcurve" smooth="yes"/>
      <point x="912" y="138"/>
      <point x="912" y="400" type="qcurve" smooth="yes"/>
      <point x="912" y="800" type="line" smooth="yes"/>
      <point x="912" y="1062"/>
      <point x="650" y="1062" type="qcurve" smooth="yes"/>
      <point x="388" y="1062"/>
      <point x="388" y="860" type="qcurve"/>
      <point x="200" y="860" type="line"/>
    </contour>
  </outline>
</glyph>
<glyph name="uni17E7" format="1">
  <advance width="1600"/>
  <unicode hex="17E7"/>
  <outline>
    <contour>
      <point x="1050" y="138" type="line"/>
      <point x="1212" y="138" type="line"/>
      <point x="1212" y="1500" type="line"/>
      <point x="1400" y="1500" type="line"/>
      <point x="1400" y="138" type="line" smooth="yes"/>
      <point x="1400" y="0"/>
      <point x="1125" y="0" type="qcurve" smooth="yes"/>
      <point x="862" y="0"/>
      <point x="862" y="138" type="qcurve" smooth="yes"/>
      <point x="862" y="923" type="line" smooth="yes"/>
      <point x="862" y="1050"/>
      <point x="804" y="1050" type="qcurve" smooth="yes"/>
      <point x="758" y="1050"/>
      <point x="681" y="956" type="qcurve" smooth="yes"/>
      <point x="655" y="925"/>
      <point x="625" y="925" type="qcurve" smooth="yes"/>
      <point x="595" y="925"/>
      <point x="569" y="956" type="qcurve" smooth="yes"/>
      <point x="493" y="1050"/>
      <point x="447" y="1050" type="qcurve" smooth="yes"/>
      <point x="388" y="1050"/>
      <point x="388" y="923" type="qcurve" smooth="yes"/>
      <point x="388" y="138" type="line"/>
      <point x="550" y="138" type="line"/>
      <point x="550" y="0" type="line"/>
      <point x="200" y="0" type="line"/>
      <point x="200" y="923" type="line" smooth="yes"/>
      <point x="200" y="1036"/>
      <point x="271" y="1118" type="qcurve" smooth="yes"/>
      <point x="342" y="1200"/>
      <point x="431" y="1200" type="qcurve" smooth="yes"/>
      <point x="520" y="1200"/>
      <point x="625" y="1076" type="qcurve"/>
      <point x="731" y="1200"/>
      <point x="821" y="1200" type="qcurve" smooth="yes"/>
      <point x="909" y="1200"/>
      <point x="980" y="1118" type="qcurve" smooth="yes"/>
      <point x="1050" y="1036"/>
      <point x="1050" y="923" type="qcurve" smooth="yes"/>
    </contour>
  </outline>
</glyph>
<glyph name="uni17E8" format="1">
  <advance width="1300"/>
  <unicode hex="17E8"/>
  <outline>
    <contour>
      <point x="200" y="880" type="line" smooth="yes"/>
      <point x="200" y="1200"/>
      <point x="650" y="1200" type="qcurve" smooth="yes"/>
      <point x="784" y="1200"/>
      <point x="912" y="1146" type="qcurve"/>
      <point x="912" y="1550" type="line"/>
      <point x="1100" y="1550" type="line"/>
      <point x="1100" y="880" type="line"/>
      <point x="912" y="880" type="line"/>
      <point x="912" y="1062"/>
      <point x="650" y="1062" type="qcurve" smooth="yes"/>
      <point x="388" y="1062"/>
      <point x="388" y="880" type="qcurve" smooth="yes"/>
      <point x="388" y="166" type="line"/>
      <point x="651" y="405" type="line"/>
      <point x="912" y="167" type="line"/>
      <point x="912" y="520" type="line" smooth="yes"/>
      <point x="912" y="600"/>
      <point x="860" y="600" type="qcurve" smooth="yes"/>
      <point x="680" y="600" type="line"/>
      <point x="680" y="750" type="line"/>
      <point x="860" y="750" type="line" smooth="yes"/>
      <point x="1100" y="750"/>
      <point x="1100" y="520" type="qcurve" smooth="yes"/>
      <point x="1100" y="0" type="line"/>
      <point x="882" y="0" type="line"/>
      <point x="651" y="210" type="line"/>
      <point x="419" y="0" type="line"/>
      <point x="200" y="0" type="line"/>
    </contour>
  </outline>
</glyph>
<glyph name="uni17E9" format="1">
  <advance width="1300"/>
  <unicode hex="17E9"/>
  <outline>
    <contour>
      <point x="912" y="1510" type="line"/>
      <point x="1100" y="1510" type="line"/>
      <point x="1100" y="942" type="line"/>
      <point x="912" y="942" type="line"/>
      <point x="912" y="1062"/>
      <point x="650" y="1062" type="qcurve" smooth="yes"/>
      <point x="388" y="1062"/>
      <point x="388" y="902" type="qcurve" smooth="yes"/>
      <point x="388" y="780"/>
      <point x="650" y="780" type="qcurve" smooth="yes"/>
      <point x="950" y="780" type="line"/>
      <point x="950" y="642" type="line"/>
      <point x="650" y="642" type="line" smooth="yes"/>
      <point x="388" y="642"/>
      <point x="388" y="526" type="qcurve" smooth="yes"/>
      <point x="388" y="300" type="line" smooth="yes"/>
      <point x="388" y="138"/>
      <point x="650" y="138" type="qcurve" smooth="yes"/>
      <point x="912" y="138"/>
      <point x="912" y="298" type="qcurve" smooth="yes"/>
      <point x="912" y="398"/>
      <point x="750" y="398" type="qcurve" smooth="yes"/>
      <point x="650" y="398" type="line"/>
      <point x="650" y="526" type="line"/>
      <point x="750" y="526" type="line" smooth="yes"/>
      <point x="1100" y="526"/>
      <point x="1100" y="293" type="qcurve" smooth="yes"/>
      <point x="1100" y="0"/>
      <point x="650" y="0" type="qcurve" smooth="yes"/>
      <point x="200" y="0"/>
      <point x="200" y="300" type="qcurve" smooth="yes"/>
      <point x="200" y="526" type="line"/>
      <point x="239" y="672"/>
      <point x="338" y="715" type="qcurve"/>
      <point x="239" y="759"/>
      <point x="200" y="902" type="qcurve"/>
      <point x="200" y="1200"/>
      <point x="650" y="1200" type="qcurve" smooth="yes"/>
      <point x="784" y="1200"/>
      <point x="912" y="1162" type="qcurve"/>
    </contour>
  </outline>
</glyph>
<glyph name="uni19E0" format="1">
  <advance width="1300"/>
  <unicode hex="19E0"/>
  <outline>
    <contour>
      <point x="650" y="938" type="qcurve" smooth="yes"/>
      <point x="912" y="938"/>
      <point x="912" y="1180" type="qcurve" smooth="yes"/>
      <point x="912" y="1620" type="line" smooth="yes"/>
      <point x="912" y="1862"/>
      <point x="650" y="1862" type="qcurve" smooth="yes"/>
      <point x="388" y="1862"/>
      <point x="388" y="1620" type="qcurve" smooth="yes"/>
      <point x="388" y="1180" type="line" smooth="yes"/>
      <point x="388" y="938"/>
    </contour>
    <contour>
      <point x="912" y="848" type="line"/>
      <point x="809" y="800"/>
      <point x="650" y="800" type="qcurve" smooth="yes"/>
      <point x="200" y="800"/>
      <point x="200" y="1180" type="qcurve" smooth="yes"/>
      <point x="200" y="1620" type="line" smooth="yes"/>
      <point x="200" y="2000"/>
      <point x="650" y="2000" type="qcurve" smooth="yes"/>
      <point x="1100" y="2000"/>
      <point x="1100" y="1620" type="qcurve" smooth="yes"/>
      <point x="1100" y="1180" type="line" smooth="yes"/>
      <point x="1100" y="1047"/>
      <point x="1045" y="960" type="qcurve"/>
      <point x="1100" y="960" type="line"/>
      <point x="1100" y="290" type="line"/>
      <point x="912" y="290" type="line"/>
      <point x="912" y="472"/>
      <point x="650" y="472" type="qcurve" smooth="yes"/>
      <point x="388" y="472"/>
      <point x="388" y="290" type="qcurve" smooth="yes"/>
      <point x="388" y="-424" type="line"/>
      <point x="651" y="-185" type="line"/>
      <point x="912" y="-423" type="line"/>
      <point x="912" y="-70" type="line" smooth="yes"/>
      <point x="912" y="10"/>
      <point x="860" y="10" type="qcurve" smooth="yes"/>
      <point x="680" y="10" type="line"/>
      <point x="680" y="160" type="line"/>
      <point x="860" y="160" type="line" smooth="yes"/>
      <point x="1100" y="160"/>
      <point x="1100" y="-70" type="qcurve" smooth="yes"/>
      <point x="1100" y="-590" type="line"/>
      <point x="882" y="-590" type="line"/>
      <point x="651" y="-380" type="line"/>
      <point x="419" y="-590" type="line"/>
      <point x="200" y="-590" type="line"/>
      <point x="200" y="290" type="line" smooth="yes"/>
      <point x="200" y="610"/>
      <point x="650" y="610" type="qcurve" smooth="yes"/>
      <point x="784" y="610"/>
      <point x="912" y="556" type="qcurve"/>
    </contour>
  </outline>
</glyph>
<glyph name="uni19E1" format="1">
  <advance width="1300"/>
  <unicode hex="19E1"/>
  <outline>
    <contour>
      <point x="912" y="1120" type="qcurve" smooth="yes"/>
      <point x="912" y="1680" type="line" smooth="yes"/>
      <point x="912" y="1862"/>
      <point x="650" y="1862" type="qcurve" smooth="yes"/>
      <point x="388" y="1862"/>
      <point x="388" y="1680" type="qcurve" smooth="yes"/>
      <point x="388" y="1560" type="line" smooth="yes"/>
      <point x="388" y="1480"/>
      <point x="515" y="1480" type="qcurve" smooth="yes"/>
      <point x="650" y="1480" type="line"/>
      <point x="650" y="1320" type="line"/>
      <point x="515" y="1320" type="line" smooth="yes"/>
      <point x="200" y="1320"/>
      <point x="200" y="1560" type="qcurve" smooth="yes"/>
      <point x="200" y="1680" type="line" smooth="yes"/>
      <point x="200" y="2000"/>
      <point x="650" y="2000" type="qcurve" smooth="yes"/>
      <point x="1100" y="2000"/>
      <point x="1100" y="1680" type="qcurve" smooth="yes"/>
      <point x="1100" y="1120" type="line" smooth="yes"/>
      <point x="1100" y="800"/>
      <point x="650" y="800" type="qcurve" smooth="yes"/>
      <point x="200" y="800"/>
      <point x="200" y="1120" type="qcurve"/>
      <point x="388" y="1120" type="line"/>
      <point x="388" y="938"/>
      <point x="650" y="938" type="qcurve" smooth="yes"/>
      <point x="912" y="938"/>
    </contour>
    <contour>
      <point x="388" y="430" type="qcurve" smooth="yes"/>
      <point x="388" y="348"/>
      <point x="466" y="348" type="qcurve" smooth="yes"/>
      <point x="643" y="348"/>
      <point x="728" y="479" type="qcurve" smooth="yes"/>
      <point x="812" y="610" type="line"/>
      <point x="1000" y="610" type="line"/>
      <point x="1000" y="-590" type="line"/>
      <point x="812" y="-590" type="line"/>
      <point x="812" y="356" type="line"/>
      <point x="703" y="210"/>
      <point x="466" y="210" type="qcurve" smooth="yes"/>
      <point x="200" y="210"/>
      <point x="200" y="430" type="qcurve" smooth="yes"/>
      <point x="200" y="610"/>
      <point x="442" y="610" type="qcurve" smooth="yes"/>
      <point x="495" y="610" type="line"/>
      <point x="495" y="472" type="line"/>
      <point x="442" y="472" type="line" smooth="yes"/>
      <point x="388" y="472"/>
    </contour>
  </outline>
</glyph>
<glyph name="uni19E2" format="1">
  <advance width="1538"/>
  <unicode hex="19E2"/>
  <outline>
    <contour>
      <point x="1338" y="1200" type="line" smooth="yes"/>
      <point x="1338" y="800"/>
      <point x="769" y="800" type="qcurve" smooth="yes"/>
      <point x="200" y="800"/>
      <point x="200" y="1200" type="qcurve" smooth="yes"/>
      <point x="200" y="2100" type="line"/>
      <point x="100" y="2100" type="line"/>
      <point x="100" y="2250" type="line"/>
      <point x="200" y="2250" type="line" smooth="yes"/>
      <point x="388" y="2250"/>
      <point x="388" y="2100" type="qcurve" smooth="yes"/>
      <point x="388" y="1200" type="line" smooth="yes"/>
      <point x="388" y="938"/>
      <point x="769" y="938" type="qcurve" smooth="yes"/>
      <point x="1150" y="938"/>
      <point x="1150" y="1200" type="qcurve" smooth="yes"/>
      <point x="1150" y="1832" type="line"/>
      <point x="940" y="1658" type="line"/>
      <point x="740" y="1832" type="line"/>
      <point x="740" y="1550" type="line"/>
      <point x="790" y="1550" type="line"/>
      <point x="790" y="1400" type="line"/>
      <point x="542" y="1400" type="line"/>
      <point x="542" y="2000" type="line"/>
      <point x="740" y="2000" type="line"/>
      <point x="940" y="1826" type="line"/>
      <point x="1150" y="2000" type="line"/>
      <point x="1338" y="2000" type="line"/>
    </contour>
    <contour>
      <point x="388" y="430" type="qcurve" smooth="yes"/>
      <point x="388" y="348"/>
      <point x="466" y="348" type="qcurve" smooth="yes"/>
      <point x="643" y="348"/>
      <point x="728" y="479" type="qcurve" smooth="yes"/>
      <point x="812" y="610" type="line"/>
      <point x="1000" y="610" type="line"/>
      <point x="1000" y="-590" type="line"/>
      <point x="812" y="-590" type="line"/>
      <point x="812" y="356" type="line"/>
      <point x="703" y="210"/>
      <point x="466" y="210" type="qcurve" smooth="yes"/>
      <point x="200" y="210"/>
      <point x="200" y="430" type="qcurve" smooth="yes"/>
      <point x="200" y="610"/>
      <point x="442" y="610" type="qcurve" smooth="yes"/>
      <point x="495" y="610" type="line"/>
      <point x="495" y="472" type="line"/>
      <point x="442" y="472" type="line" smooth="yes"/>
      <point x="388" y="472"/>
    </contour>
  </outline>
</glyph>
<glyph name="uni19E3" format="1">
  <advance width="1764"/>
  <unicode hex="19E3"/>
  <outline>
    <contour>
      <point x="976" y="800" type="line"/>
      <point x="788" y="800" type="line"/>
      <point x="788" y="1640" type="line" smooth="yes"/>
      <point x="788" y="1862"/>
      <point x="588" y="1862" type="qcurve" smooth="yes"/>
      <point x="388" y="1862"/>
      <point x="388" y="1640" type="qcurve" smooth="yes"/>
      <point x="388" y="938" type="line"/>
      <point x="488" y="938" type="line"/>
      <point x="488" y="800" type="line"/>
      <point x="200" y="800" type="line"/>
      <point x="200" y="1650" type="line" smooth="yes"/>
      <point x="200" y="2000"/>
      <point x="588" y="2000" type="qcurve" smooth="yes"/>
      <point x="787" y="2000"/>
      <point x="881" y="1911" type="qcurve"/>
      <point x="975" y="2000"/>
      <point x="1176" y="2000" type="qcurve" smooth="yes"/>
      <point x="1564" y="2000"/>
      <point x="1564" y="1640" type="qcurve" smooth="yes"/>
      <point x="1564" y="800" type="line"/>
      <point x="1376" y="800" type="line"/>
      <point x="1376" y="1640" type="line" smooth="yes"/>
      <point x="1376" y="1862"/>
      <point x="1176" y="1862" type="qcurve" smooth="yes"/>
      <point x="976" y="1862"/>
      <point x="976" y="1640" type="qcurve" smooth="yes"/>
    </contour>
    <contour>
      <point x="388" y="430" type="qcurve" smooth="yes"/>
      <point x="388" y="348"/>
      <point x="466" y="348" type="qcurve" smooth="yes"/>
      <point x="643" y="348"/>
      <point x="728" y="479" type="qcurve" smooth="yes"/>
      <point x="812" y="610" type="line"/>
      <point x="1000" y="610" type="line"/>
      <point x="1000" y="-590" type="line"/>
      <point x="812" y="-590" type="line"/>
      <point x="812" y="356" type="line"/>
      <point x="703" y="210"/>
      <point x="466" y="210" type="qcurve" smooth="yes"/>
      <point x="200" y="210"/>
      <point x="200" y="430" type="qcurve" smooth="yes"/>
      <point x="200" y="610"/>
      <point x="442" y="610" type="qcurve" smooth="yes"/>
      <point x="495" y="610" type="line"/>
      <point x="495" y="472" type="line"/>
      <point x="442" y="472" type="line" smooth="yes"/>
      <point x="388" y="472"/>
    </contour>
  </outline>
</glyph>
<glyph name="uni19E4" format="1">
  <advance width="1300"/>
  <unicode hex="19E4"/>
  <outline>
    <contour>
      <point x="650" y="938" type="qcurve" smooth="yes"/>
      <point x="970" y="938" type="line"/>
      <point x="700" y="1248" type="line"/>
      <point x="700" y="1600" type="line" smooth="yes"/>
      <point x="700" y="1675"/>
      <point x="800" y="1738"/>
      <point x="900" y="1738" type="qcurve" smooth="yes"/>
      <point x="1100" y="1738" type="line"/>
      <point x="1100" y="1600" type="line"/>
      <point x="888" y="1600" type="line"/>
      <point x="888" y="1298" type="line"/>
      <point x="1100" y="938" type="line"/>
      <point x="1050" y="800" type="line"/>
      <point x="650" y="800" type="line" smooth="yes"/>
      <point x="200" y="800"/>
      <point x="200" y="1200" type="qcurve" smooth="yes"/>
      <point x="200" y="2100" type="line"/>
      <point x="100" y="2100" type="line"/>
      <point x="100" y="2260" type="line"/>
      <point x="200" y="2260" type="line" smooth="yes"/>
      <point x="388" y="2260"/>
      <point x="388" y="2110" type="qcurve" smooth="yes"/>
      <point x="388" y="1200" type="line" smooth="yes"/>
      <point x="388" y="938"/>
    </contour>
    <contour>
      <point x="388" y="430" type="qcurve" smooth="yes"/>
      <point x="388" y="348"/>
      <point x="466" y="348" type="qcurve" smooth="yes"/>
      <point x="643" y="348"/>
      <point x="728" y="479" type="qcurve" smooth="yes"/>
      <point x="812" y="610" type="line"/>
      <point x="1000" y="610" type="line"/>
      <point x="1000" y="-590" type="line"/>
      <point x="812" y="-590" type="line"/>
      <point x="812" y="356" type="line"/>
      <point x="703" y="210"/>
      <point x="466" y="210" type="qcurve" smooth="yes"/>
      <point x="200" y="210"/>
      <point x="200" y="430" type="qcurve" smooth="yes"/>
      <point x="200" y="610"/>
      <point x="442" y="610" type="qcurve" smooth="yes"/>
      <point x="495" y="610" type="line"/>
      <point x="495" y="472" type="line"/>
      <point x="442" y="472" type="line" smooth="yes"/>
      <point x="388" y="472"/>
    </contour>
  </outline>
</glyph>
<glyph name="uni19E5" format="1">
  <advance width="1300"/>
  <unicode hex="19E5"/>
  <outline>
    <contour>
      <point x="388" y="1130" type="line" smooth="yes"/>
      <point x="388" y="938"/>
      <point x="650" y="938" type="qcurve" smooth="yes"/>
      <point x="950" y="938" type="line"/>
      <point x="700" y="1168" type="line"/>
      <point x="700" y="1400" type="line" smooth="yes"/>
      <point x="700" y="1475"/>
      <point x="800" y="1600"/>
      <point x="888" y="1600" type="qcurve" smooth="yes"/>
      <point x="1100" y="1600" type="line"/>
      <point x="1100" y="1462" type="line"/>
      <point x="888" y="1462" type="line"/>
      <point x="888" y="1198" type="line"/>
      <point x="1100" y="938" type="line"/>
      <point x="1048" y="800" type="line"/>
      <point x="650" y="800" type="line" smooth="yes"/>
      <point x="200" y="800"/>
      <point x="200" y="1130" type="qcurve" smooth="yes"/>
      <point x="200" y="1690" type="line" smooth="yes"/>
      <point x="200" y="1837"/>
      <point x="325" y="1890" type="qcurve" smooth="yes"/>
      <point x="347" y="1900"/>
      <point x="368" y="1907" type="qcurve"/>
      <point x="300" y="1964"/>
      <point x="300" y="2026" type="qcurve" smooth="yes"/>
      <point x="300" y="2170"/>
      <point x="480" y="2170" type="qcurve" smooth="yes"/>
      <point x="670" y="2170"/>
      <point x="670" y="2026" type="qcurve" smooth="yes"/>
      <point x="670" y="1974"/>
      <point x="595" y="1923" type="qcurve"/>
      <point x="696" y="1893"/>
      <point x="770" y="1893" type="qcurve" smooth="yes"/>
      <point x="840" y="1893"/>
      <point x="912" y="1959"/>
      <point x="912" y="2009" type="qcurve" smooth="yes"/>
      <point x="912" y="2370" type="line"/>
      <point x="1100" y="2370" type="line"/>
      <point x="1100" y="2009" type="line" smooth="yes"/>
      <point x="1100" y="1886"/>
      <point x="1011" y="1825" type="qcurve"/>
      <point x="928" y="1755"/>
      <point x="770" y="1755" type="qcurve" smooth="yes"/>
      <point x="614" y="1755"/>
      <point x="472" y="1804" type="qcurve"/>
      <point x="436" y="1785"/>
      <point x="388" y="1739"/>
      <point x="388" y="1690" type="qcurve" smooth="yes"/>
    </contour>
    <contour>
      <point x="388" y="430" type="qcurve" smooth="yes"/>
      <point x="388" y="348"/>
      <point x="466" y="348" type="qcurve" smooth="yes"/>
      <point x="643" y="348"/>
      <point x="728" y="479" type="qcurve" smooth="yes"/>
      <point x="812" y="610" type="line"/>
      <point x="1000" y="610" type="line"/>
      <point x="1000" y="-590" type="line"/>
      <point x="812" y="-590" type="line"/>
      <point x="812" y="356" type="line"/>
      <point x="703" y="210"/>
      <point x="466" y="210" type="qcurve" smooth="yes"/>
      <point x="200" y="210"/>
      <point x="200" y="430" type="qcurve" smooth="yes"/>
      <point x="200" y="610"/>
      <point x="442" y="610" type="qcurve" smooth="yes"/>
      <point x="495" y="610" type="line"/>
      <point x="495" y="472" type="line"/>
      <point x="442" y="472" type="line" smooth="yes"/>
      <point x="388" y="472"/>
    </contour>
  </outline>
</glyph>
<glyph name="uni19E6" format="1">
  <advance width="1300"/>
  <unicode hex="19E6"/>
  <outline>
    <contour>
      <point x="200" y="2350" type="line"/>
      <point x="388" y="2350" type="line"/>
      <point x="388" y="1946" type="line"/>
      <point x="516" y="2000"/>
      <point x="650" y="2000" type="qcurve" smooth="yes"/>
      <point x="1100" y="2000"/>
      <point x="1100" y="1600" type="qcurve" smooth="yes"/>
      <point x="1100" y="1200" type="line" smooth="yes"/>
      <point x="1100" y="800"/>
      <point x="650" y="800" type="qcurve" smooth="yes"/>
      <point x="200" y="800"/>
      <point x="200" y="1150" type="qcurve" smooth="yes"/>
      <point x="200" y="1500"/>
      <point x="550" y="1500" type="qcurve" smooth="yes"/>
      <point x="700" y="1500" type="line"/>
      <point x="700" y="1362" type="line"/>
      <point x="550" y="1362" type="line" smooth="yes"/>
      <point x="388" y="1362"/>
      <point x="388" y="1150" type="qcurve" smooth="yes"/>
      <point x="388" y="938"/>
      <point x="650" y="938" type="qcurve" smooth="yes"/>
      <point x="912" y="938"/>
      <point x="912" y="1200" type="qcurve" smooth="yes"/>
      <point x="912" y="1600" type="line" smooth="yes"/>
      <point x="912" y="1862"/>
      <point x="650" y="1862" type="qcurve" smooth="yes"/>
      <point x="388" y="1862"/>
      <point x="388" y="1660" type="qcurve"/>
      <point x="200" y="1660" type="line"/>
    </contour>
    <contour>
      <point x="388" y="430" type="qcurve" smooth="yes"/>
      <point x="388" y="348"/>
      <point x="466" y="348" type="qcurve" smooth="yes"/>
      <point x="643" y="348"/>
      <point x="728" y="479" type="qcurve" smooth="yes"/>
      <point x="812" y="610" type="line"/>
      <point x="1000" y="610" type="line"/>
      <point x="1000" y="-590" type="line"/>
      <point x="812" y="-590" type="line"/>
      <point x="812" y="356" type="line"/>
      <point x="703" y="210"/>
      <point x="466" y="210" type="qcurve" smooth="yes"/>
      <point x="200" y="210"/>
      <point x="200" y="430" type="qcurve" smooth="yes"/>
      <point x="200" y="610"/>
      <point x="442" y="610" type="qcurve" smooth="yes"/>
      <point x="495" y="610" type="line"/>
      <point x="495" y="472" type="line"/>
      <point x="442" y="472" type="line" smooth="yes"/>
      <point x="388" y="472"/>
    </contour>
  </outline>
</glyph>
<glyph name="uni19E7" format="1">
  <advance width="1600"/>
  <unicode hex="19E7"/>
  <outline>
    <contour>
      <point x="1050" y="938" type="line"/>
      <point x="1212" y="938" type="line"/>
      <point x="1212" y="2300" type="line"/>
      <point x="1400" y="2300" type="line"/>
      <point x="1400" y="938" type="line" smooth="yes"/>
      <point x="1400" y="800"/>
      <point x="1125" y="800" type="qcurve" smooth="yes"/>
      <point x="862" y="800"/>
      <point x="862" y="938" type="qcurve" smooth="yes"/>
      <point x="862" y="1723" type="line" smooth="yes"/>
      <point x="862" y="1850"/>
      <point x="804" y="1850" type="qcurve" smooth="yes"/>
      <point x="758" y="1850"/>
      <point x="681" y="1756" type="qcurve" smooth="yes"/>
      <point x="655" y="1725"/>
      <point x="625" y="1725" type="qcurve" smooth="yes"/>
      <point x="595" y="1725"/>
      <point x="569" y="1756" type="qcurve" smooth="yes"/>
      <point x="493" y="1850"/>
      <point x="447" y="1850" type="qcurve" smooth="yes"/>
      <point x="388" y="1850"/>
      <point x="388" y="1723" type="qcurve" smooth="yes"/>
      <point x="388" y="938" type="line"/>
      <point x="550" y="938" type="line"/>
      <point x="550" y="800" type="line"/>
      <point x="200" y="800" type="line"/>
      <point x="200" y="1723" type="line" smooth="yes"/>
      <point x="200" y="1836"/>
      <point x="271" y="1918" type="qcurve" smooth="yes"/>
      <point x="342" y="2000"/>
      <point x="431" y="2000" type="qcurve" smooth="yes"/>
      <point x="520" y="2000"/>
      <point x="625" y="1876" type="qcurve"/>
      <point x="731" y="2000"/>
      <point x="821" y="2000" type="qcurve" smooth="yes"/>
      <point x="909" y="2000"/>
      <point x="980" y="1918" type="qcurve" smooth="yes"/>
      <point x="1050" y="1836"/>
      <point x="1050" y="1723" type="qcurve" smooth="yes"/>
    </contour>
    <contour>
      <point x="388" y="430" type="qcurve" smooth="yes"/>
      <point x="388" y="348"/>
      <point x="466" y="348" type="qcurve" smooth="yes"/>
      <point x="643" y="348"/>
      <point x="728" y="479" type="qcurve" smooth="yes"/>
      <point x="812" y="610" type="line"/>
      <point x="1000" y="610" type="line"/>
      <point x="1000" y="-590" type="line"/>
      <point x="812" y="-590" type="line"/>
      <point x="812" y="356" type="line"/>
      <point x="703" y="210"/>
      <point x="466" y="210" type="qcurve" smooth="yes"/>
      <point x="200" y="210"/>
      <point x="200" y="430" type="qcurve" smooth="yes"/>
      <point x="200" y="610"/>
      <point x="442" y="610" type="qcurve" smooth="yes"/>
      <point x="495" y="610" type="line"/>
      <point x="495" y="472" type="line"/>
      <point x="442" y="472" type="line" smooth="yes"/>
      <point x="388" y="472"/>
    </contour>
  </outline>
</glyph>
<glyph name="uni19E8" format="1">
  <advance width="1300"/>
  <unicode hex="19E8"/>
  <outline>
    <contour>
      <point x="200" y="1680" type="line" smooth="yes"/>
      <point x="200" y="2000"/>
      <point x="650" y="2000" type="qcurve" smooth="yes"/>
      <point x="784" y="2000"/>
      <point x="912" y="1946" type="qcurve"/>
      <point x="912" y="2350" type="line"/>
      <point x="1100" y="2350" type="line"/>
      <point x="1100" y="1680" type="line"/>
      <point x="912" y="1680" type="line"/>
      <point x="912" y="1862"/>
      <point x="650" y="1862" type="qcurve" smooth="yes"/>
      <point x="388" y="1862"/>
      <point x="388" y="1680" type="qcurve" smooth="yes"/>
      <point x="388" y="966" type="line"/>
      <point x="651" y="1205" type="line"/>
      <point x="912" y="967" type="line"/>
      <point x="912" y="1320" type="line" smooth="yes"/>
      <point x="912" y="1400"/>
      <point x="860" y="1400" type="qcurve" smooth="yes"/>
      <point x="680" y="1400" type="line"/>
      <point x="680" y="1550" type="line"/>
      <point x="860" y="1550" type="line" smooth="yes"/>
      <point x="1100" y="1550"/>
      <point x="1100" y="1320" type="qcurve" smooth="yes"/>
      <point x="1100" y="800" type="line"/>
      <point x="882" y="800" type="line"/>
      <point x="651" y="1010" type="line"/>
      <point x="419" y="800" type="line"/>
      <point x="200" y="800" type="line"/>
    </contour>
    <contour>
      <point x="388" y="430" type="qcurve" smooth="yes"/>
      <point x="388" y="348"/>
      <point x="466" y="348" type="qcurve" smooth="yes"/>
      <point x="643" y="348"/>
      <point x="728" y="479" type="qcurve" smooth="yes"/>
      <point x="812" y="610" type="line"/>
      <point x="1000" y="610" type="line"/>
      <point x="1000" y="-590" type="line"/>
      <point x="812" y="-590" type="line"/>
      <point x="812" y="356" type="line"/>
      <point x="703" y="210"/>
      <point x="466" y="210" type="qcurve" smooth="yes"/>
      <point x="200" y="210"/>
      <point x="200" y="430" type="qcurve" smooth="yes"/>
      <point x="200" y="610"/>
      <point x="442" y="610" type="qcurve" smooth="yes"/>
      <point x="495" y="610" type="line"/>
      <point x="495" y="472" type="line"/>
      <point x="442" y="472" type="line" smooth="yes"/>
      <point x="388" y="472"/>
    </contour>
  </outline>
</glyph>
<glyph name="uni19E9" format="1">
  <advance width="1300"/>
  <unicode hex="19E9"/>
  <outline>
    <contour>
      <point x="912" y="2310" type="line"/>
      <point x="1100" y="2310" type="line"/>
      <point x="1100" y="1742" type="line"/>
      <point x="912" y="1742" type="line"/>
      <point x="912" y="1862"/>
      <point x="650" y="1862" type="qcurve" smooth="yes"/>
      <point x="388" y="1862"/>
      <point x="388" y="1702" type="qcurve" smooth="yes"/>
      <point x="388" y="1580"/>
      <point x="650" y="1580" type="qcurve" smooth="yes"/>
      <point x="950" y="1580" type="line"/>
      <point x="950" y="1442" type="line"/>
      <point x="650" y="1442" type="line" smooth="yes"/>
      <point x="388" y="1442"/>
      <point x="388" y="1326" type="qcurve" smooth="yes"/>
      <point x="388" y="1100" type="line" smooth="yes"/>
      <point x="388" y="938"/>
      <point x="650" y="938" type="qcurve" smooth="yes"/>
      <point x="912" y="938"/>
      <point x="912" y="1098" type="qcurve" smooth="yes"/>
      <point x="912" y="1198"/>
      <point x="750" y="1198" type="qcurve" smooth="yes"/>
      <point x="650" y="1198" type="line"/>
      <point x="650" y="1326" type="line"/>
      <point x="750" y="1326" type="line" smooth="yes"/>
      <point x="1100" y="1326"/>
      <point x="1100" y="1093" type="qcurve" smooth="yes"/>
      <point x="1100" y="800"/>
      <point x="650" y="800" type="qcurve" smooth="yes"/>
      <point x="200" y="800"/>
      <point x="200" y="1100" type="qcurve" smooth="yes"/>
      <point x="200" y="1326" type="line"/>
      <point x="239" y="1472"/>
      <point x="338" y="1515" type="qcurve"/>
      <point x="239" y="1559"/>
      <point x="200" y="1702" type="qcurve"/>
      <point x="200" y="2000"/>
      <point x="650" y="2000" type="qcurve" smooth="yes"/>
      <point x="784" y="2000"/>
      <point x="912" y="1962" type="qcurve"/>
    </contour>
    <contour>
      <point x="388" y="430" type="qcurve" smooth="yes"/>
      <point x="388" y="348"/>
      <point x="466" y="348" type="qcurve" smooth="yes"/>
      <point x="643" y="348"/>
      <point x="728" y="479" type="qcurve" smooth="yes"/>
      <point x="812" y="610" type="line"/>
      <point x="1000" y="610" type="line"/>
      <point x="1000" y="-590" type="line"/>
      <point x="812" y="-590" type="line"/>
      <point x="812" y="356" type="line"/>
      <point x="703" y="210"/>
      <point x="466" y="210" type="qcurve" smooth="yes"/>
      <point x="200" y="210"/>
      <point x="200" y="430" type="qcurve" smooth="yes"/>
      <point x="200" y="610"/>
      <point x="442" y="610" type="qcurve" smooth="yes"/>
      <point x="495" y="610" type="line"/>
      <point x="495" y="472" type="line"/>
      <point x="442" y="472" type="line" smooth="yes"/>
      <point x="388" y="472"/>
    </contour>
  </outline>
</glyph>
<glyph name="uni19EA" format="1">
  <advance width="2600"/>
  <unicode hex="19EA"/>
  <outline>
    <contour>
      <point x="912" y="1120" type="qcurve" smooth="yes"/>
      <point x="912" y="1680" type="line" smooth="yes"/>
      <point x="912" y="1862"/>
      <point x="650" y="1862" type="qcurve" smooth="yes"/>
      <point x="388" y="1862"/>
      <point x="388" y="1680" type="qcurve" smooth="yes"/>
      <point x="388" y="1560" type="line" smooth="yes"/>
      <point x="388" y="1480"/>
      <point x="515" y="1480" type="qcurve" smooth="yes"/>
      <point x="650" y="1480" type="line"/>
      <point x="650" y="1320" type="line"/>
      <point x="515" y="1320" type="line" smooth="yes"/>
      <point x="200" y="1320"/>
      <point x="200" y="1560" type="qcurve" smooth="yes"/>
      <point x="200" y="1680" type="line" smooth="yes"/>
      <point x="200" y="2000"/>
      <point x="650" y="2000" type="qcurve" smooth="yes"/>
      <point x="1100" y="2000"/>
      <point x="1100" y="1680" type="qcurve" smooth="yes"/>
      <point x="1100" y="1120" type="line" smooth="yes"/>
      <point x="1100" y="800"/>
      <point x="650" y="800" type="qcurve" smooth="yes"/>
      <point x="200" y="800"/>
      <point x="200" y="1120" type="qcurve"/>
      <point x="388" y="1120" type="line"/>
      <point x="388" y="938"/>
      <point x="650" y="938" type="qcurve" smooth="yes"/>
      <point x="912" y="938"/>
    </contour>
    <contour>
      <point x="1950" y="938" type="qcurve" smooth="yes"/>
      <point x="2212" y="938"/>
      <point x="2212" y="1180" type="qcurve" smooth="yes"/>
      <point x="2212" y="1620" type="line" smooth="yes"/>
      <point x="2212" y="1862"/>
      <point x="1950" y="1862" type="qcurve" smooth="yes"/>
      <point x="1688" y="1862"/>
      <point x="1688" y="1620" type="qcurve" smooth="yes"/>
      <point x="1688" y="1180" type="line" smooth="yes"/>
      <point x="1688" y="938"/>
    </contour>
    <contour>
      <point x="1500" y="1620" type="line" smooth="yes"/>
      <point x="1500" y="2000"/>
      <point x="1950" y="2000" type="qcurve" smooth="yes"/>
      <point x="2400" y="2000"/>
      <point x="2400" y="1620" type="qcurve" smooth="yes"/>
      <point x="2400" y="1180" type="line" smooth="yes"/>
      <point x="2400" y="800"/>
      <point x="1950" y="800" type="qcurve" smooth="yes"/>
      <point x="1500" y="800"/>
      <point x="1500" y="1180" type="qcurve" smooth="yes"/>
    </contour>
    <contour>
      <point x="988" y="430" type="qcurve" smooth="yes"/>
      <point x="988" y="348"/>
      <point x="1066" y="348" type="qcurve" smooth="yes"/>
      <point x="1243" y="348"/>
      <point x="1328" y="479" type="qcurve" smooth="yes"/>
      <point x="1412" y="610" type="line"/>
      <point x="1600" y="610" type="line"/>
      <point x="1600" y="-590" type="line"/>
      <point x="1412" y="-590" type="line"/>
      <point x="1412" y="356" type="line"/>
      <point x="1303" y="210"/>
      <point x="1066" y="210" type="qcurve" smooth="yes"/>
      <point x="800" y="210"/>
      <point x="800" y="430" type="qcurve" smooth="yes"/>
      <point x="800" y="610"/>
      <point x="1042" y="610" type="qcurve" smooth="yes"/>
      <point x="1095" y="610" type="line"/>
      <point x="1095" y="472" type="line"/>
      <point x="1042" y="472" type="line" smooth="yes"/>
      <point x="988" y="472"/>
    </contour>
  </outline>
</glyph>
<glyph name="uni19EC" format="1">
  <advance width="2838"/>
  <unicode hex="19EC"/>
  <outline>
    <contour>
      <point x="912" y="1120" type="qcurve" smooth="yes"/>
      <point x="912" y="1680" type="line" smooth="yes"/>
      <point x="912" y="1862"/>
      <point x="650" y="1862" type="qcurve" smooth="yes"/>
      <point x="388" y="1862"/>
      <point x="388" y="1680" type="qcurve" smooth="yes"/>
      <point x="388" y="1560" type="line" smooth="yes"/>
      <point x="388" y="1480"/>
      <point x="515" y="1480" type="qcurve" smooth="yes"/>
      <point x="650" y="1480" type="line"/>
      <point x="650" y="1320" type="line"/>
      <point x="515" y="1320" type="line" smooth="yes"/>
      <point x="200" y="1320"/>
      <point x="200" y="1560" type="qcurve" smooth="yes"/>
      <point x="200" y="1680" type="line" smooth="yes"/>
      <point x="200" y="2000"/>
      <point x="650" y="2000" type="qcurve" smooth="yes"/>
      <point x="1100" y="2000"/>
      <point x="1100" y="1680" type="qcurve" smooth="yes"/>
      <point x="1100" y="1120" type="line" smooth="yes"/>
      <point x="1100" y="800"/>
      <point x="650" y="800" type="qcurve" smooth="yes"/>
      <point x="200" y="800"/>
      <point x="200" y="1120" type="qcurve"/>
      <point x="388" y="1120" type="line"/>
      <point x="388" y="938"/>
      <point x="650" y="938" type="qcurve" smooth="yes"/>
      <point x="912" y="938"/>
    </contour>
    <contour>
      <point x="2638" y="1200" type="line" smooth="yes"/>
      <point x="2638" y="800"/>
      <point x="2069" y="800" type="qcurve" smooth="yes"/>
      <point x="1500" y="800"/>
      <point x="1500" y="1200" type="qcurve" smooth="yes"/>
      <point x="1500" y="2100" type="line"/>
      <point x="1400" y="2100" type="line"/>
      <point x="1400" y="2250" type="line"/>
      <point x="1500" y="2250" type="line" smooth="yes"/>
      <point x="1688" y="2250"/>
      <point x="1688" y="2100" type="qcurve" smooth="yes"/>
      <point x="1688" y="1200" type="line" smooth="yes"/>
      <point x="1688" y="938"/>
      <point x="2069" y="938" type="qcurve" smooth="yes"/>
      <point x="2450" y="938"/>
      <point x="2450" y="1200" type="qcurve" smooth="yes"/>
      <point x="2450" y="1832" type="line"/>
      <point x="2240" y="1658" type="line"/>
      <point x="2040" y="1832" type="line"/>
      <point x="2040" y="1550" type="line"/>
      <point x="2090" y="1550" type="line"/>
      <point x="2090" y="1400" type="line"/>
      <point x="1842" y="1400" type="line"/>
      <point x="1842" y="2000" type="line"/>
      <point x="2040" y="2000" type="line"/>
      <point x="2240" y="1826" type="line"/>
      <point x="2450" y="2000" type="line"/>
      <point x="2638" y="2000" type="line"/>
    </contour>
    <contour>
      <point x="988" y="430" type="qcurve" smooth="yes"/>
      <point x="988" y="348"/>
      <point x="1066" y="348" type="qcurve" smooth="yes"/>
      <point x="1243" y="348"/>
      <point x="1328" y="479" type="qcurve" smooth="yes"/>
      <point x="1412" y="610" type="line"/>
      <point x="1600" y="610" type="line"/>
      <point x="1600" y="-590" type="line"/>
      <point x="1412" y="-590" type="line"/>
      <point x="1412" y="356" type="line"/>
      <point x="1303" y="210"/>
      <point x="1066" y="210" type="qcurve" smooth="yes"/>
      <point x="800" y="210"/>
      <point x="800" y="430" type="qcurve" smooth="yes"/>
      <point x="800" y="610"/>
      <point x="1042" y="610" type="qcurve" smooth="yes"/>
      <point x="1095" y="610" type="line"/>
      <point x="1095" y="472" type="line"/>
      <point x="1042" y="472" type="line" smooth="yes"/>
      <point x="988" y="472"/>
    </contour>
  </outline>
</glyph>
<glyph name="uni19EF" format="1">
  <advance width="2600"/>
  <unicode hex="19EF"/>
  <outline>
    <contour>
      <point x="912" y="1120" type="qcurve" smooth="yes"/>
      <point x="912" y="1680" type="line" smooth="yes"/>
      <point x="912" y="1862"/>
      <point x="650" y="1862" type="qcurve" smooth="yes"/>
      <point x="388" y="1862"/>
      <point x="388" y="1680" type="qcurve" smooth="yes"/>
      <point x="388" y="1560" type="line" smooth="yes"/>
      <point x="388" y="1480"/>
      <point x="515" y="1480" type="qcurve" smooth="yes"/>
      <point x="650" y="1480" type="line"/>
      <point x="650" y="1320" type="line"/>
      <point x="515" y="1320" type="line" smooth="yes"/>
      <point x="200" y="1320"/>
      <point x="200" y="1560" type="qcurve" smooth="yes"/>
      <point x="200" y="1680" type="line" smooth="yes"/>
      <point x="200" y="2000"/>
      <point x="650" y="2000" type="qcurve" smooth="yes"/>
      <point x="1100" y="2000"/>
      <point x="1100" y="1680" type="qcurve" smooth="yes"/>
      <point x="1100" y="1120" type="line" smooth="yes"/>
      <point x="1100" y="800"/>
      <point x="650" y="800" type="qcurve" smooth="yes"/>
      <point x="200" y="800"/>
      <point x="200" y="1120" type="qcurve"/>
      <point x="388" y="1120" type="line"/>
      <point x="388" y="938"/>
      <point x="650" y="938" type="qcurve" smooth="yes"/>
      <point x="912" y="938"/>
    </contour>
    <contour>
      <point x="1688" y="1130" type="line" smooth="yes"/>
      <point x="1688" y="938"/>
      <point x="1950" y="938" type="qcurve" smooth="yes"/>
      <point x="2250" y="938" type="line"/>
      <point x="2000" y="1168" type="line"/>
      <point x="2000" y="1400" type="line" smooth="yes"/>
      <point x="2000" y="1475"/>
      <point x="2100" y="1600"/>
      <point x="2188" y="1600" type="qcurve" smooth="yes"/>
      <point x="2400" y="1600" type="line"/>
      <point x="2400" y="1462" type="line"/>
      <point x="2188" y="1462" type="line"/>
      <point x="2188" y="1198" type="line"/>
      <point x="2400" y="938" type="line"/>
      <point x="2348" y="800" type="line"/>
      <point x="1950" y="800" type="line" smooth="yes"/>
      <point x="1500" y="800"/>
      <point x="1500" y="1130" type="qcurve" smooth="yes"/>
      <point x="1500" y="1690" type="line" smooth="yes"/>
      <point x="1500" y="1837"/>
      <point x="1625" y="1890" type="qcurve" smooth="yes"/>
      <point x="1647" y="1900"/>
      <point x="1668" y="1907" type="qcurve"/>
      <point x="1600" y="1964"/>
      <point x="1600" y="2026" type="qcurve" smooth="yes"/>
      <point x="1600" y="2170"/>
      <point x="1780" y="2170" type="qcurve" smooth="yes"/>
      <point x="1970" y="2170"/>
      <point x="1970" y="2026" type="qcurve" smooth="yes"/>
      <point x="1970" y="1974"/>
      <point x="1895" y="1923" type="qcurve"/>
      <point x="1996" y="1893"/>
      <point x="2070" y="1893" type="qcurve" smooth="yes"/>
      <point x="2140" y="1893"/>
      <point x="2212" y="1959"/>
      <point x="2212" y="2009" type="qcurve" smooth="yes"/>
      <point x="2212" y="2370" type="line"/>
      <point x="2400" y="2370" type="line"/>
      <point x="2400" y="2009" type="line" smooth="yes"/>
      <point x="2400" y="1886"/>
      <point x="2311" y="1825" type="qcurve"/>
      <point x="2228" y="1755"/>
      <point x="2070" y="1755" type="qcurve" smooth="yes"/>
      <point x="1914" y="1755"/>
      <point x="1772" y="1804" type="qcurve"/>
      <point x="1736" y="1785"/>
      <point x="1688" y="1739"/>
      <point x="1688" y="1690" type="qcurve" smooth="yes"/>
    </contour>
    <contour>
      <point x="988" y="430" type="qcurve" smooth="yes"/>
      <point x="988" y="348"/>
      <point x="1066" y="348" type="qcurve" smooth="yes"/>
      <point x="1243" y="348"/>
      <point x="1328" y="479" type="qcurve" smooth="yes"/>
      <point x="1412" y="610" type="line"/>
      <point x="1600" y="610" type="line"/>
      <point x="1600" y="-590" type="line"/>
      <point x="1412" y="-590" type="line"/>
      <point x="1412" y="356" type="line"/>
      <point x="1303" y="210"/>
      <point x="1066" y="210" type="qcurve" smooth="yes"/>
      <point x="800" y="210"/>
      <point x="800" y="430" type="qcurve" smooth="yes"/>
      <point x="800" y="610"/>
      <point x="1042" y="610" type="qcurve" smooth="yes"/>
      <point x="1095" y="610" type="line"/>
      <point x="1095" y="472" type="line"/>
      <point x="1042" y="472" type="line" smooth="yes"/>
      <point x="988" y="472"/>
    </contour>
  </outline>
</glyph>
<glyph name="uni19F0" format="1">
  <advance width="1300"/>
  <unicode hex="19F0"/>
  <outline>
    <contour>
      <point x="1100" y="290" type="line"/>
      <point x="912" y="290" type="line"/>
      <point x="912" y="472"/>
      <point x="650" y="472" type="qcurve" smooth="yes"/>
      <point x="388" y="472"/>
      <point x="388" y="290" type="qcurve" smooth="yes"/>
      <point x="388" y="-424" type="line"/>
      <point x="651" y="-185" type="line"/>
      <point x="912" y="-423" type="line"/>
      <point x="912" y="-70" type="line" smooth="yes"/>
      <point x="912" y="10"/>
      <point x="860" y="10" type="qcurve" smooth="yes"/>
      <point x="680" y="10" type="line"/>
      <point x="680" y="160" type="line"/>
      <point x="860" y="160" type="line" smooth="yes"/>
      <point x="1100" y="160"/>
      <point x="1100" y="-70" type="qcurve" smooth="yes"/>
      <point x="1100" y="-590" type="line"/>
      <point x="882" y="-590" type="line"/>
      <point x="651" y="-380" type="line"/>
      <point x="419" y="-590" type="line"/>
      <point x="200" y="-590" type="line"/>
      <point x="200" y="290" type="line" smooth="yes"/>
      <point x="200" y="610"/>
      <point x="650" y="610" type="qcurve" smooth="yes"/>
      <point x="784" y="610"/>
      <point x="912" y="556" type="qcurve"/>
      <point x="912" y="800" type="line"/>
      <point x="882" y="800" type="line"/>
      <point x="651" y="1010" type="line"/>
      <point x="419" y="800" type="line"/>
      <point x="200" y="800" type="line"/>
      <point x="200" y="1680" type="line" smooth="yes"/>
      <point x="200" y="2000"/>
      <point x="650" y="2000" type="qcurve" smooth="yes"/>
      <point x="784" y="2000"/>
      <point x="912" y="1946" type="qcurve"/>
      <point x="912" y="2350" type="line"/>
      <point x="1100" y="2350" type="line"/>
      <point x="1100" y="1680" type="line"/>
      <point x="912" y="1680" type="line"/>
      <point x="912" y="1862"/>
      <point x="650" y="1862" type="qcurve" smooth="yes"/>
      <point x="388" y="1862"/>
      <point x="388" y="1680" type="qcurve" smooth="yes"/>
      <point x="388" y="966" type="line"/>
      <point x="651" y="1205" type="line"/>
      <point x="912" y="967" type="line"/>
      <point x="912" y="1320" type="line" smooth="yes"/>
      <point x="912" y="1400"/>
      <point x="860" y="1400" type="qcurve" smooth="yes"/>
      <point x="680" y="1400" type="line"/>
      <point x="680" y="1550" type="line"/>
      <point x="860" y="1550" type="line" smooth="yes"/>
      <point x="1100" y="1550"/>
      <point x="1100" y="1320" type="qcurve" smooth="yes"/>
    </contour>
  </outline>
</glyph>
<glyph name="uni19F1" format="1">
  <advance width="1300"/>
  <unicode hex="19F1"/>
  <outline>
    <contour>
      <point x="912" y="-270" type="qcurve" smooth="yes"/>
      <point x="912" y="290" type="line" smooth="yes"/>
      <point x="912" y="472"/>
      <point x="650" y="472" type="qcurve" smooth="yes"/>
      <point x="388" y="472"/>
      <point x="388" y="290" type="qcurve" smooth="yes"/>
      <point x="388" y="170" type="line" smooth="yes"/>
      <point x="388" y="90"/>
      <point x="515" y="90" type="qcurve" smooth="yes"/>
      <point x="650" y="90" type="line"/>
      <point x="650" y="-70" type="line"/>
      <point x="515" y="-70" type="line" smooth="yes"/>
      <point x="200" y="-70"/>
      <point x="200" y="170" type="qcurve" smooth="yes"/>
      <point x="200" y="290" type="line" smooth="yes"/>
      <point x="200" y="610"/>
      <point x="650" y="610" type="qcurve" smooth="yes"/>
      <point x="1100" y="610"/>
      <point x="1100" y="290" type="qcurve" smooth="yes"/>
      <point x="1100" y="-270" type="line" smooth="yes"/>
      <point x="1100" y="-590"/>
      <point x="650" y="-590" type="qcurve" smooth="yes"/>
      <point x="200" y="-590"/>
      <point x="200" y="-270" type="qcurve"/>
      <point x="388" y="-270" type="line"/>
      <point x="388" y="-452"/>
      <point x="650" y="-452" type="qcurve" smooth="yes"/>
      <point x="912" y="-452"/>
    </contour>
    <contour>
      <point x="388" y="1820" type="qcurve" smooth="yes"/>
      <point x="388" y="1738"/>
      <point x="466" y="1738" type="qcurve" smooth="yes"/>
      <point x="643" y="1738"/>
      <point x="728" y="1869" type="qcurve" smooth="yes"/>
      <point x="812" y="2000" type="line"/>
      <point x="1000" y="2000" type="line"/>
      <point x="1000" y="800" type="line"/>
      <point x="812" y="800" type="line"/>
      <point x="812" y="1746" type="line"/>
      <point x="703" y="1600"/>
      <point x="466" y="1600" type="qcurve" smooth="yes"/>
      <point x="200" y="1600"/>
      <point x="200" y="1820" type="qcurve" smooth="yes"/>
      <point x="200" y="2000"/>
      <point x="442" y="2000" type="qcurve" smooth="yes"/>
      <point x="495" y="2000" type="line"/>
      <point x="495" y="1862" type="line"/>
      <point x="442" y="1862" type="line" smooth="yes"/>
      <point x="388" y="1862"/>
    </contour>
  </outline>
</glyph>
<glyph name="uni19F2" format="1">
  <advance width="1538"/>
  <unicode hex="19F2"/>
  <outline>
    <contour>
      <point x="1338" y="-190" type="line" smooth="yes"/>
      <point x="1338" y="-590"/>
      <point x="769" y="-590" type="qcurve" smooth="yes"/>
      <point x="200" y="-590"/>
      <point x="200" y="-190" type="qcurve" smooth="yes"/>
      <point x="200" y="710" type="line"/>
      <point x="100" y="710" type="line"/>
      <point x="100" y="860" type="line"/>
      <point x="200" y="860" type="line" smooth="yes"/>
      <point x="388" y="860"/>
      <point x="388" y="710" type="qcurve" smooth="yes"/>
      <point x="388" y="-190" type="line" smooth="yes"/>
      <point x="388" y="-452"/>
      <point x="769" y="-452" type="qcurve" smooth="yes"/>
      <point x="1150" y="-452"/>
      <point x="1150" y="-190" type="qcurve" smooth="yes"/>
      <point x="1150" y="442" type="line"/>
      <point x="940" y="268" type="line"/>
      <point x="740" y="442" type="line"/>
      <point x="740" y="160" type="line"/>
      <point x="790" y="160" type="line"/>
      <point x="790" y="10" type="line"/>
      <point x="542" y="10" type="line"/>
      <point x="542" y="610" type="line"/>
      <point x="740" y="610" type="line"/>
      <point x="940" y="436" type="line"/>
      <point x="1150" y="610" type="line"/>
      <point x="1338" y="610" type="line"/>
    </contour>
    <contour>
      <point x="388" y="1820" type="qcurve" smooth="yes"/>
      <point x="388" y="1738"/>
      <point x="466" y="1738" type="qcurve" smooth="yes"/>
      <point x="643" y="1738"/>
      <point x="728" y="1869" type="qcurve" smooth="yes"/>
      <point x="812" y="2000" type="line"/>
      <point x="1000" y="2000" type="line"/>
      <point x="1000" y="800" type="line"/>
      <point x="812" y="800" type="line"/>
      <point x="812" y="1746" type="line"/>
      <point x="703" y="1600"/>
      <point x="466" y="1600" type="qcurve" smooth="yes"/>
      <point x="200" y="1600"/>
      <point x="200" y="1820" type="qcurve" smooth="yes"/>
      <point x="200" y="2000"/>
      <point x="442" y="2000" type="qcurve" smooth="yes"/>
      <point x="495" y="2000" type="line"/>
      <point x="495" y="1862" type="line"/>
      <point x="442" y="1862" type="line" smooth="yes"/>
      <point x="388" y="1862"/>
    </contour>
  </outline>
</glyph>
<glyph name="uni19F3" format="1">
  <advance width="1764"/>
  <unicode hex="19F3"/>
  <outline>
    <contour>
      <point x="976" y="-590" type="line"/>
      <point x="788" y="-590" type="line"/>
      <point x="788" y="250" type="line" smooth="yes"/>
      <point x="788" y="472"/>
      <point x="588" y="472" type="qcurve" smooth="yes"/>
      <point x="388" y="472"/>
      <point x="388" y="250" type="qcurve" smooth="yes"/>
      <point x="388" y="-452" type="line"/>
      <point x="488" y="-452" type="line"/>
      <point x="488" y="-590" type="line"/>
      <point x="200" y="-590" type="line"/>
      <point x="200" y="260" type="line" smooth="yes"/>
      <point x="200" y="610"/>
      <point x="588" y="610" type="qcurve" smooth="yes"/>
      <point x="787" y="610"/>
      <point x="881" y="521" type="qcurve"/>
      <point x="975" y="610"/>
      <point x="1176" y="610" type="qcurve" smooth="yes"/>
      <point x="1564" y="610"/>
      <point x="1564" y="250" type="qcurve" smooth="yes"/>
      <point x="1564" y="-590" type="line"/>
      <point x="1376" y="-590" type="line"/>
      <point x="1376" y="250" type="line" smooth="yes"/>
      <point x="1376" y="472"/>
      <point x="1176" y="472" type="qcurve" smooth="yes"/>
      <point x="976" y="472"/>
      <point x="976" y="250" type="qcurve" smooth="yes"/>
    </contour>
    <contour>
      <point x="388" y="1820" type="qcurve" smooth="yes"/>
      <point x="388" y="1738"/>
      <point x="466" y="1738" type="qcurve" smooth="yes"/>
      <point x="643" y="1738"/>
      <point x="728" y="1869" type="qcurve" smooth="yes"/>
      <point x="812" y="2000" type="line"/>
      <point x="1000" y="2000" type="line"/>
      <point x="1000" y="800" type="line"/>
      <point x="812" y="800" type="line"/>
      <point x="812" y="1746" type="line"/>
      <point x="703" y="1600"/>
      <point x="466" y="1600" type="qcurve" smooth="yes"/>
      <point x="200" y="1600"/>
      <point x="200" y="1820" type="qcurve" smooth="yes"/>
      <point x="200" y="2000"/>
      <point x="442" y="2000" type="qcurve" smooth="yes"/>
      <point x="495" y="2000" type="line"/>
      <point x="495" y="1862" type="line"/>
      <point x="442" y="1862" type="line" smooth="yes"/>
      <point x="388" y="1862"/>
    </contour>
  </outline>
</glyph>
<glyph name="uni19F4" format="1">
  <advance width="1300"/>
  <unicode hex="19F4"/>
  <outline>
    <contour>
      <point x="650" y="-452" type="qcurve" smooth="yes"/>
      <point x="970" y="-452" type="line"/>
      <point x="700" y="-142" type="line"/>
      <point x="700" y="210" type="line" smooth="yes"/>
      <point x="700" y="285"/>
      <point x="800" y="348"/>
      <point x="900" y="348" type="qcurve" smooth="yes"/>
      <point x="1100" y="348" type="line"/>
      <point x="1100" y="210" type="line"/>
      <point x="888" y="210" type="line"/>
      <point x="888" y="-92" type="line"/>
      <point x="1100" y="-452" type="line"/>
      <point x="1050" y="-590" type="line"/>
      <point x="650" y="-590" type="line" smooth="yes"/>
      <point x="200" y="-590"/>
      <point x="200" y="-190" type="qcurve" smooth="yes"/>
      <point x="200" y="710" type="line"/>
      <point x="100" y="710" type="line"/>
      <point x="100" y="870" type="line"/>
      <point x="200" y="870" type="line" smooth="yes"/>
      <point x="388" y="870"/>
      <point x="388" y="720" type="qcurve" smooth="yes"/>
      <point x="388" y="-190" type="line" smooth="yes"/>
      <point x="388" y="-452"/>
    </contour>
    <contour>
      <point x="388" y="1820" type="qcurve" smooth="yes"/>
      <point x="388" y="1738"/>
      <point x="466" y="1738" type="qcurve" smooth="yes"/>
      <point x="643" y="1738"/>
      <point x="728" y="1869" type="qcurve" smooth="yes"/>
      <point x="812" y="2000" type="line"/>
      <point x="1000" y="2000" type="line"/>
      <point x="1000" y="800" type="line"/>
      <point x="812" y="800" type="line"/>
      <point x="812" y="1746" type="line"/>
      <point x="703" y="1600"/>
      <point x="466" y="1600" type="qcurve" smooth="yes"/>
      <point x="200" y="1600"/>
      <point x="200" y="1820" type="qcurve" smooth="yes"/>
      <point x="200" y="2000"/>
      <point x="442" y="2000" type="qcurve" smooth="yes"/>
      <point x="495" y="2000" type="line"/>
      <point x="495" y="1862" type="line"/>
      <point x="442" y="1862" type="line" smooth="yes"/>
      <point x="388" y="1862"/>
    </contour>
  </outline>
</glyph>
<glyph name="uni19F5" format="1">
  <advance width="1300"/>
  <unicode hex="19F5"/>
  <outline>
    <contour>
      <point x="1000" y="980" type="line"/>
      <point x="1100" y="980" type="line"/>
      <point x="1100" y="619" type="line" smooth="yes"/>
      <point x="1100" y="496"/>
      <point x="1011" y="435" type="qcurve"/>
      <point x="928" y="365"/>
      <point x="770" y="365" type="qcurve" smooth="yes"/>
      <point x="614" y="365"/>
      <point x="472" y="414" type="qcurve"/>
      <point x="436" y="395"/>
      <point x="388" y="349"/>
      <point x="388" y="300" type="qcurve" smooth="yes"/>
      <point x="388" y="-260" type="line" smooth="yes"/>
      <point x="388" y="-452"/>
      <point x="650" y="-452" type="qcurve" smooth="yes"/>
      <point x="950" y="-452" type="line"/>
      <point x="700" y="-222" type="line"/>
      <point x="700" y="10" type="line" smooth="yes"/>
      <point x="700" y="85"/>
      <point x="800" y="210"/>
      <point x="888" y="210" type="qcurve" smooth="yes"/>
      <point x="1100" y="210" type="line"/>
      <point x="1100" y="72" type="line"/>
      <point x="888" y="72" type="line"/>
      <point x="888" y="-192" type="line"/>
      <point x="1100" y="-452" type="line"/>
      <point x="1048" y="-590" type="line"/>
      <point x="650" y="-590" type="line" smooth="yes"/>
      <point x="200" y="-590"/>
      <point x="200" y="-260" type="qcurve" smooth="yes"/>
      <point x="200" y="300" type="line" smooth="yes"/>
      <point x="200" y="447"/>
      <point x="325" y="500" type="qcurve" smooth="yes"/>
      <point x="347" y="510"/>
      <point x="368" y="517" type="qcurve"/>
      <point x="300" y="574"/>
      <point x="300" y="636" type="qcurve" smooth="yes"/>
      <point x="300" y="780"/>
      <point x="480" y="780" type="qcurve" smooth="yes"/>
      <point x="670" y="780"/>
      <point x="670" y="636" type="qcurve" smooth="yes"/>
      <point x="670" y="584"/>
      <point x="595" y="533" type="qcurve"/>
      <point x="696" y="503"/>
      <point x="770" y="503" type="qcurve" smooth="yes"/>
      <point x="840" y="503"/>
      <point x="912" y="569"/>
      <point x="912" y="619" type="qcurve" smooth="yes"/>
      <point x="912" y="800" type="line"/>
      <point x="812" y="800" type="line"/>
      <point x="812" y="1746" type="line"/>
      <point x="703" y="1600"/>
      <point x="466" y="1600" type="qcurve" smooth="yes"/>
      <point x="200" y="1600"/>
      <point x="200" y="1820" type="qcurve" smooth="yes"/>
      <point x="200" y="2000"/>
      <point x="442" y="2000" type="qcurve" smooth="yes"/>
      <point x="495" y="2000" type="line"/>
      <point x="495" y="1862" type="line"/>
      <point x="442" y="1862" type="line" smooth="yes"/>
      <point x="388" y="1862"/>
      <point x="388" y="1820" type="qcurve" smooth="yes"/>
      <point x="388" y="1738"/>
      <point x="466" y="1738" type="qcurve" smooth="yes"/>
      <point x="643" y="1738"/>
      <point x="728" y="1869" type="qcurve" smooth="yes"/>
      <point x="812" y="2000" type="line"/>
      <point x="1000" y="2000" type="line"/>
    </contour>
  </outline>
</glyph>
<glyph name="uni19F7" format="1">
  <advance width="1600"/>
  <unicode hex="19F7"/>
  <outline>
    <contour>
      <point x="1050" y="-452" type="line"/>
      <point x="1212" y="-452" type="line"/>
      <point x="1212" y="910" type="line"/>
      <point x="1400" y="910" type="line"/>
      <point x="1400" y="-452" type="line" smooth="yes"/>
      <point x="1400" y="-590"/>
      <point x="1125" y="-590" type="qcurve" smooth="yes"/>
      <point x="862" y="-590"/>
      <point x="862" y="-452" type="qcurve" smooth="yes"/>
      <point x="862" y="333" type="line" smooth="yes"/>
      <point x="862" y="460"/>
      <point x="804" y="460" type="qcurve" smooth="yes"/>
      <point x="758" y="460"/>
      <point x="681" y="366" type="qcurve" smooth="yes"/>
      <point x="655" y="335"/>
      <point x="625" y="335" type="qcurve" smooth="yes"/>
      <point x="595" y="335"/>
      <point x="569" y="366" type="qcurve" smooth="yes"/>
      <point x="493" y="460"/>
      <point x="447" y="460" type="qcurve" smooth="yes"/>
      <point x="388" y="460"/>
      <point x="388" y="333" type="qcurve" smooth="yes"/>
      <point x="388" y="-452" type="line"/>
      <point x="550" y="-452" type="line"/>
      <point x="550" y="-590" type="line"/>
      <point x="200" y="-590" type="line"/>
      <point x="200" y="333" type="line" smooth="yes"/>
      <point x="200" y="446"/>
      <point x="271" y="528" type="qcurve" smooth="yes"/>
      <point x="342" y="610"/>
      <point x="431" y="610" type="qcurve" smooth="yes"/>
      <point x="520" y="610"/>
      <point x="625" y="486" type="qcurve"/>
      <point x="731" y="610"/>
      <point x="821" y="610" type="qcurve" smooth="yes"/>
      <point x="909" y="610"/>
      <point x="980" y="528" type="qcurve" smooth="yes"/>
      <point x="1050" y="446"/>
      <point x="1050" y="333" type="qcurve" smooth="yes"/>
    </contour>
    <contour>
      <point x="388" y="1820" type="qcurve" smooth="yes"/>
      <point x="388" y="1738"/>
      <point x="466" y="1738" type="qcurve" smooth="yes"/>
      <point x="643" y="1738"/>
      <point x="728" y="1869" type="qcurve" smooth="yes"/>
      <point x="812" y="2000" type="line"/>
      <point x="1000" y="2000" type="line"/>
      <point x="1000" y="800" type="line"/>
      <point x="812" y="800" type="line"/>
      <point x="812" y="1746" type="line"/>
      <point x="703" y="1600"/>
      <point x="466" y="1600" type="qcurve" smooth="yes"/>
      <point x="200" y="1600"/>
      <point x="200" y="1820" type="qcurve" smooth="yes"/>
      <point x="200" y="2000"/>
      <point x="442" y="2000" type="qcurve" smooth="yes"/>
      <point x="495" y="2000" type="line"/>
      <point x="495" y="1862" type="line"/>
      <point x="442" y="1862" type="line" smooth="yes"/>
      <point x="388" y="1862"/>
    </contour>
  </outline>
</glyph>
<glyph name="uni19F8" format="1">
  <advance width="1300"/>
  <unicode hex="19F8"/>
  <outline>
    <contour>
      <point x="1000" y="960" type="line"/>
      <point x="1100" y="960" type="line"/>
      <point x="1100" y="290" type="line"/>
      <point x="912" y="290" type="line"/>
      <point x="912" y="472"/>
      <point x="650" y="472" type="qcurve" smooth="yes"/>
      <point x="388" y="472"/>
      <point x="388" y="290" type="qcurve" smooth="yes"/>
      <point x="388" y="-424" type="line"/>
      <point x="651" y="-185" type="line"/>
      <point x="912" y="-423" type="line"/>
      <point x="912" y="-70" type="line" smooth="yes"/>
      <point x="912" y="10"/>
      <point x="860" y="10" type="qcurve" smooth="yes"/>
      <point x="680" y="10" type="line"/>
      <point x="680" y="160" type="line"/>
      <point x="860" y="160" type="line" smooth="yes"/>
      <point x="1100" y="160"/>
      <point x="1100" y="-70" type="qcurve" smooth="yes"/>
      <point x="1100" y="-590" type="line"/>
      <point x="882" y="-590" type="line"/>
      <point x="651" y="-380" type="line"/>
      <point x="419" y="-590" type="line"/>
      <point x="200" y="-590" type="line"/>
      <point x="200" y="290" type="line" smooth="yes"/>
      <point x="200" y="610"/>
      <point x="650" y="610" type="qcurve" smooth="yes"/>
      <point x="784" y="610"/>
      <point x="912" y="556" type="qcurve"/>
      <point x="912" y="800" type="line"/>
      <point x="812" y="800" type="line"/>
      <point x="812" y="1746" type="line"/>
      <point x="703" y="1600"/>
      <point x="466" y="1600" type="qcurve" smooth="yes"/>
      <point x="200" y="1600"/>
      <point x="200" y="1820" type="qcurve" smooth="yes"/>
      <point x="200" y="2000"/>
      <point x="442" y="2000" type="qcurve" smooth="yes"/>
      <point x="495" y="2000" type="line"/>
      <point x="495" y="1862" type="line"/>
      <point x="442" y="1862" type="line" smooth="yes"/>
      <point x="388" y="1862"/>
      <point x="388" y="1820" type="qcurve" smooth="yes"/>
      <point x="388" y="1738"/>
      <point x="466" y="1738" type="qcurve" smooth="yes"/>
      <point x="643" y="1738"/>
      <point x="728" y="1869" type="qcurve" smooth="yes"/>
      <point x="812" y="2000" type="line"/>
      <point x="1000" y="2000" type="line"/>
    </contour>
  </outline>
</glyph>
<glyph name="uni19F9" format="1">
  <advance width="1300"/>
  <unicode hex="19F9"/>
  <outline>
    <contour>
      <point x="1000" y="920" type="line"/>
      <point x="1100" y="920" type="line"/>
      <point x="1100" y="352" type="line"/>
      <point x="912" y="352" type="line"/>
      <point x="912" y="472"/>
      <point x="650" y="472" type="qcurve" smooth="yes"/>
      <point x="388" y="472"/>
      <point x="388" y="312" type="qcurve" smooth="yes"/>
      <point x="388" y="190"/>
      <point x="650" y="190" type="qcurve" smooth="yes"/>
      <point x="950" y="190" type="line"/>
      <point x="950" y="52" type="line"/>
      <point x="650" y="52" type="line" smooth="yes"/>
      <point x="388" y="52"/>
      <point x="388" y="-64" type="qcurve" smooth="yes"/>
      <point x="388" y="-290" type="line" smooth="yes"/>
      <point x="388" y="-452"/>
      <point x="650" y="-452" type="qcurve" smooth="yes"/>
      <point x="912" y="-452"/>
      <point x="912" y="-292" type="qcurve" smooth="yes"/>
      <point x="912" y="-192"/>
      <point x="750" y="-192" type="qcurve" smooth="yes"/>
      <point x="650" y="-192" type="line"/>
      <point x="650" y="-64" type="line"/>
      <point x="750" y="-64" type="line" smooth="yes"/>
      <point x="1100" y="-64"/>
      <point x="1100" y="-297" type="qcurve" smooth="yes"/>
      <point x="1100" y="-590"/>
      <point x="650" y="-590" type="qcurve" smooth="yes"/>
      <point x="200" y="-590"/>
      <point x="200" y="-290" type="qcurve" smooth="yes"/>
      <point x="200" y="-64" type="line"/>
      <point x="239" y="82"/>
      <point x="338" y="125" type="qcurve"/>
      <point x="239" y="169"/>
      <point x="200" y="312" type="qcurve"/>
      <point x="200" y="610"/>
      <point x="650" y="610" type="qcurve" smooth="yes"/>
      <point x="784" y="610"/>
      <point x="912" y="572" type="qcurve"/>
      <point x="912" y="800" type="line"/>
      <point x="812" y="800" type="line"/>
      <point x="812" y="1746" type="line"/>
      <point x="703" y="1600"/>
      <point x="466" y="1600" type="qcurve" smooth="yes"/>
      <point x="200" y="1600"/>
      <point x="200" y="1820" type="qcurve" smooth="yes"/>
      <point x="200" y="2000"/>
      <point x="442" y="2000" type="qcurve" smooth="yes"/>
      <point x="495" y="2000" type="line"/>
      <point x="495" y="1862" type="line"/>
      <point x="442" y="1862" type="line" smooth="yes"/>
      <point x="388" y="1862"/>
      <point x="388" y="1820" type="qcurve" smooth="yes"/>
      <point x="388" y="1738"/>
      <point x="466" y="1738" type="qcurve" smooth="yes"/>
      <point x="643" y="1738"/>
      <point x="728" y="1869" type="qcurve" smooth="yes"/>
      <point x="812" y="2000" type="line"/>
      <point x="1000" y="2000" type="line"/>
    </contour>
  </outline>
</glyph>
